G04*
G04 #@! TF.GenerationSoftware,Altium Limited,Altium Designer,23.3.1 (30)*
G04*
G04 Layer_Color=65535*
%FSLAX45Y45*%
%MOMM*%
G71*
G04*
G04 #@! TF.SameCoordinates,784FB100-AB39-434A-9190-0E81AD2A1C3A*
G04*
G04*
G04 #@! TF.FilePolarity,Positive*
G04*
G01*
G75*
%ADD10C,0.25400*%
%ADD11C,0.10000*%
%ADD12C,0.15240*%
%ADD13C,0.25000*%
%ADD14C,0.20000*%
%ADD15C,0.20320*%
%ADD16C,0.12700*%
%ADD17C,0.30480*%
%ADD18R,5.33400X1.52400*%
D10*
X3844000Y2909500D02*
G03*
X3844000Y2909500I-12500J0D01*
G01*
X9399561Y4191000D02*
G03*
X9399561Y4191000I-160000J0D01*
G01*
X4224000Y3495180D02*
G03*
X4224000Y3495180I-160000J0D01*
G01*
X3718700Y3495180D02*
G03*
X3718700Y3495180I-160000J0D01*
G01*
X1912557Y2286000D02*
G03*
X1912557Y2286000I-160000J0D01*
G01*
X4325600Y6096000D02*
G03*
X4325600Y6096000I-160000J0D01*
G01*
X3208000Y4572000D02*
G03*
X3208000Y4572000I-160000J0D01*
G01*
X1833956Y502278D02*
G03*
X1833956Y502278I-160000J0D01*
G01*
X5748000Y2801538D02*
G03*
X5748000Y2801538I-160000J0D01*
G01*
X8796000Y4191000D02*
G03*
X8796000Y4191000I-160000J0D01*
G01*
X8976561Y2678500D02*
G03*
X8976561Y2678500I-12500J0D01*
G01*
X1410957Y1292401D02*
G03*
X1410957Y1292401I-12500J0D01*
G01*
X7908000Y2909500D02*
G03*
X7908000Y2909500I-12500J0D01*
G01*
D11*
X8901000Y3175750D02*
G03*
X8901000Y3175750I-5000J0D01*
G01*
X3538890Y5039213D02*
G03*
X3538890Y5039213I-5000J0D01*
G01*
Y4785213D02*
G03*
X3538890Y4785213I-5000J0D01*
G01*
X773000Y1269500D02*
G03*
X773000Y1269500I-5000J0D01*
G01*
X4837000Y1777500D02*
G03*
X4837000Y1777500I-5000J0D01*
G01*
D12*
X5873160Y5483010D02*
G03*
X5873160Y5483010I-7620J0D01*
G01*
X5962650Y5271434D02*
Y5320030D01*
X5914054Y4575810D02*
X5962650D01*
X5218430D02*
Y4624406D01*
Y5320030D02*
X5267026D01*
X5914054D02*
X5962650D01*
Y4575810D02*
Y4624406D01*
X5218430Y4575810D02*
X5267026D01*
X5218430Y5271434D02*
Y5320030D01*
D13*
X8898500Y2243000D02*
G03*
X8898500Y2243000I-12500J0D01*
G01*
X2802500Y5926000D02*
G03*
X2802500Y5926000I-12500J0D01*
G01*
X1024500D02*
G03*
X1024500Y5926000I-12500J0D01*
G01*
X1286500Y6266000D02*
G03*
X1286500Y6266000I-12500J0D01*
G01*
X5350500Y2071019D02*
G03*
X5350500Y2071019I-12500J0D01*
G01*
D14*
X3306000Y2762000D02*
X3806000D01*
X3306000Y2572000D02*
X3806000D01*
Y2762000D01*
X3306000Y2572000D02*
Y2762000D01*
X6388100Y6065520D02*
X6819900D01*
X6388100Y5872480D02*
X6819900D01*
X6388100D02*
Y6065520D01*
X6819900Y5872480D02*
Y6065520D01*
X1115564Y1319001D02*
X1308604D01*
X1115564Y1750801D02*
X1308604D01*
X1115564Y1319001D02*
Y1750801D01*
X1308604Y1319001D02*
Y1750801D01*
X8816273Y-233000D02*
X9812274D01*
X8816273Y967000D02*
X9812274D01*
X8816273Y-233000D02*
Y967000D01*
X8943273Y182000D02*
X9177273D01*
X9152274Y-233000D02*
Y182000D01*
X8968273Y-233000D02*
Y182000D01*
X8943273Y-233000D02*
Y182000D01*
X9177273Y-233000D02*
Y182000D01*
X8844867Y-233000D02*
Y622000D01*
X9275680Y-233000D02*
Y622000D01*
X9040274Y-143000D02*
X9080273D01*
X9101264Y-43772D02*
X9102700Y-49557D01*
X9098259Y-32814D02*
X9101264Y-43772D01*
X9095085Y-22714D02*
X9098259Y-32814D01*
X9093440Y-18000D02*
X9095085Y-22714D01*
X9025462D02*
X9027107Y-18000D01*
X9022288Y-32814D02*
X9025462Y-22714D01*
X9019282Y-43772D02*
X9022288Y-32814D01*
X9017847Y-49557D02*
X9019282Y-43772D01*
X9017847Y-49557D02*
X9019282Y-43772D01*
X9022288Y-32814D01*
X9025462Y-22714D01*
X9027107Y-18000D01*
X9093440D01*
Y622000D01*
X9080273Y-143000D02*
X9110273Y-18000D01*
Y622000D01*
X9010273Y-18000D02*
X9040274Y-143000D01*
X9010273Y-18000D02*
Y622000D01*
X9027107Y-18000D02*
Y622000D01*
X8844867D02*
X9275680D01*
X9352867D02*
X9783680D01*
X9535107Y-18000D02*
Y622000D01*
X9518274Y-18000D02*
Y622000D01*
Y-18000D02*
X9548274Y-143000D01*
X9535107Y-18000D02*
X9601440D01*
X9533462Y-22714D02*
X9535107Y-18000D01*
X9530288Y-32814D02*
X9533462Y-22714D01*
X9527283Y-43772D02*
X9530288Y-32814D01*
X9525847Y-49557D02*
X9527283Y-43772D01*
X9525847Y-49557D02*
X9527283Y-43772D01*
X9530288Y-32814D01*
X9533462Y-22714D01*
X9535107Y-18000D01*
X9548274Y-143000D02*
X9588274D01*
X9352867Y-233000D02*
Y622000D01*
X9451274Y-233000D02*
Y182000D01*
X9476274Y-233000D02*
Y182000D01*
X9451274D02*
X9685274D01*
X9660274Y-233000D02*
Y182000D01*
X9685273Y-233000D02*
Y182000D01*
X9783680Y-233000D02*
Y622000D01*
X9609264Y-43772D02*
X9610700Y-49557D01*
X9606259Y-32814D02*
X9609264Y-43772D01*
X9603085Y-22714D02*
X9606259Y-32814D01*
X9601440Y-18000D02*
X9603085Y-22714D01*
X9601440Y-18000D02*
Y622000D01*
X9588273Y-143000D02*
X9618273Y-18000D01*
Y622000D01*
X9812274Y-233000D02*
Y967000D01*
X6388100Y4348480D02*
X6819900D01*
X6388100Y4541520D02*
X6819900D01*
Y4348480D02*
Y4541520D01*
X6388100Y4348480D02*
Y4541520D01*
X7404100D02*
X7835900D01*
X7404100Y4348480D02*
X7835900D01*
X7404100D02*
Y4541520D01*
X7835900Y4348480D02*
Y4541520D01*
X7404100Y4094480D02*
X7835900D01*
X7404100Y4287520D02*
X7835900D01*
Y4094480D02*
Y4287520D01*
X7404100Y4094480D02*
Y4287520D01*
Y4033520D02*
X7835900D01*
X7404100Y3840480D02*
X7835900D01*
X7404100D02*
Y4033520D01*
X7835900Y3840480D02*
Y4033520D01*
X8623300Y5816600D02*
Y6477000D01*
Y5816600D02*
X9156700D01*
X8623300Y6477000D02*
X9156700D01*
X9131300Y5816600D02*
X9664700D01*
Y6477000D01*
X9131300D02*
X9664700D01*
X7353300Y5816600D02*
Y6477000D01*
Y5816600D02*
X7886700D01*
X7353300Y6477000D02*
X7886700D01*
X7861300Y5816600D02*
X8394700D01*
Y6477000D01*
X7861300D02*
X8394700D01*
X5372100Y3332480D02*
Y3525520D01*
X5803900Y3332480D02*
Y3525520D01*
X5372100D02*
X5803900D01*
X5372100Y3332480D02*
X5803900D01*
Y3586480D02*
Y3779520D01*
X5372100Y3586480D02*
Y3779520D01*
Y3586480D02*
X5803900D01*
X5372100Y3779520D02*
X5803900D01*
X5372100Y3840480D02*
Y4033520D01*
X5803900Y3840480D02*
Y4033520D01*
X5372100D02*
X5803900D01*
X5372100Y3840480D02*
X5803900D01*
X6819900Y3205480D02*
Y3398520D01*
X6388100Y3205480D02*
Y3398520D01*
Y3205480D02*
X6819900D01*
X6388100Y3398520D02*
X6819900D01*
Y2697480D02*
Y2890520D01*
X6388100Y2697480D02*
Y2890520D01*
Y2697480D02*
X6819900D01*
X6388100Y2890520D02*
X6819900D01*
X6388100Y2951480D02*
Y3144520D01*
X6819900Y2951480D02*
Y3144520D01*
X6388100D02*
X6819900D01*
X6388100Y2951480D02*
X6819900D01*
X9455461Y3459480D02*
Y3652520D01*
X9023661Y3459480D02*
Y3652520D01*
Y3459480D02*
X9455461D01*
X9023661Y3652520D02*
X9455461D01*
X6819900Y3459480D02*
Y3652520D01*
X6388100Y3459480D02*
Y3652520D01*
Y3459480D02*
X6819900D01*
X6388100Y3652520D02*
X6819900D01*
X3499204Y5110480D02*
Y5303520D01*
X3931004Y5110480D02*
Y5303520D01*
X3499204D02*
X3931004D01*
X3499204Y5110480D02*
X3931004D01*
X3499204Y5618480D02*
Y5811520D01*
X3931004Y5618480D02*
Y5811520D01*
X3499204D02*
X3931004D01*
X3499204Y5618480D02*
X3931004D01*
Y5364480D02*
Y5557520D01*
X3499204Y5364480D02*
Y5557520D01*
Y5364480D02*
X3931004D01*
X3499204Y5557520D02*
X3931004D01*
X6388100Y5605780D02*
Y5798820D01*
X6819900Y5605780D02*
Y5798820D01*
X6388100D02*
X6819900D01*
X6388100Y5605780D02*
X6819900D01*
X3670104Y5015500D02*
X3760103D01*
X3670104Y4890500D02*
X3760103D01*
X3670104Y4761500D02*
X3760103D01*
X3670104Y4636500D02*
X3760103D01*
X4848860Y2179320D02*
Y2392680D01*
X4292600D02*
X4848860D01*
X4292600Y2179320D02*
X4848860D01*
X4292600D02*
Y2392680D01*
X4356100Y2570480D02*
X4787900D01*
X4356100Y2763520D02*
X4787900D01*
Y2570480D02*
Y2763520D01*
X4356100Y2570480D02*
Y2763520D01*
X2324100Y2824480D02*
Y3017520D01*
X2755900Y2824480D02*
Y3017520D01*
X2324100D02*
X2755900D01*
X2324100Y2824480D02*
X2755900D01*
X2324100Y3078480D02*
Y3271520D01*
X2755900Y3078480D02*
Y3271520D01*
X2324100D02*
X2755900D01*
X2324100Y3078480D02*
X2755900D01*
X4356100Y4856480D02*
Y5049520D01*
X4787900Y4856480D02*
Y5049520D01*
X4356100D02*
X4787900D01*
X4356100Y4856480D02*
X4787900D01*
X4356100Y4602480D02*
Y4795520D01*
X4787900Y4602480D02*
Y4795520D01*
X4356100D02*
X4787900D01*
X4356100Y4602480D02*
X4787900D01*
X4219000Y3974500D02*
Y4104500D01*
X4134000Y3974500D02*
X4219000D01*
X3909000D02*
Y4104500D01*
Y3974500D02*
X3994000D01*
X3711000D02*
Y4104500D01*
X3626000Y3974500D02*
X3711000D01*
X3401000D02*
Y4104500D01*
Y3974500D02*
X3486000D01*
X4356100Y5364480D02*
Y5557520D01*
X4787900Y5364480D02*
Y5557520D01*
X4356100D02*
X4787900D01*
X4356100Y5364480D02*
X4787900D01*
X4356100Y5110480D02*
Y5303520D01*
X4787900Y5110480D02*
Y5303520D01*
X4356100D02*
X4787900D01*
X4356100Y5110480D02*
X4787900D01*
X6388100Y4856480D02*
Y5049520D01*
X6819900Y4856480D02*
Y5049520D01*
X6388100D02*
X6819900D01*
X6388100Y4856480D02*
X6819900D01*
X4356100Y4348480D02*
Y4541520D01*
X4787900Y4348480D02*
Y4541520D01*
X4356100D02*
X4787900D01*
X4356100Y4348480D02*
X4787900D01*
Y5618480D02*
Y5811520D01*
X4356100Y5618480D02*
Y5811520D01*
Y5618480D02*
X4787900D01*
X4356100Y5811520D02*
X4787900D01*
X6388100Y5364480D02*
Y5557520D01*
X6819900Y5364480D02*
Y5557520D01*
X6388100D02*
X6819900D01*
X6388100Y5364480D02*
X6819900D01*
X6388100Y5110480D02*
Y5303520D01*
X6819900Y5110480D02*
Y5303520D01*
X6388100D02*
X6819900D01*
X6388100Y5110480D02*
X6819900D01*
X4983480Y6311900D02*
X5176520D01*
X4983480Y5880100D02*
X5176520D01*
Y6311900D01*
X4983480Y5880100D02*
Y6311900D01*
X5999480D02*
X6192520D01*
X5999480Y5880100D02*
X6192520D01*
Y6311900D01*
X5999480Y5880100D02*
Y6311900D01*
X8451000Y2563000D02*
X8821000D01*
X8451000Y2263000D02*
X8821000D01*
X5372100Y2189480D02*
X5803900D01*
X5372100Y2382520D02*
X5803900D01*
Y2189480D02*
Y2382520D01*
X5372100Y2189480D02*
Y2382520D01*
X8989561Y2826000D02*
X9489561D01*
X8989561Y3016000D02*
X9489561D01*
X8989561Y2826000D02*
Y3016000D01*
X9489561Y2826000D02*
Y3016000D01*
X2324100Y4668520D02*
X2755900D01*
X2324100Y4475480D02*
X2755900D01*
X2324100D02*
Y4668520D01*
X2755900Y4475480D02*
Y4668520D01*
X2355000Y5946000D02*
X2725000D01*
X2355000Y6246000D02*
X2725000D01*
X2324100Y5618480D02*
Y5811520D01*
X2755900Y5618480D02*
Y5811520D01*
X2324100D02*
X2755900D01*
X2324100Y5618480D02*
X2755900D01*
X2679700Y4800991D02*
Y5470991D01*
X2400300Y4800991D02*
X2679700D01*
X2400300Y5470991D02*
X2679700D01*
X2400300Y5470991D02*
X2400300Y5470991D01*
X2400300Y4800991D02*
Y5470991D01*
X577000Y6246000D02*
X947000D01*
X577000Y5946000D02*
X947000D01*
X1339000D02*
X1709000D01*
X1339000Y6246000D02*
X1709000D01*
X1308100Y5618480D02*
X1739900D01*
X1308100Y5811520D02*
X1739900D01*
Y5618480D02*
Y5811520D01*
X1308100Y5618480D02*
Y5811520D01*
X410834Y4583300D02*
X1632574D01*
X410834Y5322700D02*
X1632574D01*
Y4583300D02*
Y5322700D01*
X410834Y4583300D02*
Y5322700D01*
X546100Y5618480D02*
X977900D01*
X546100Y5811520D02*
X977900D01*
Y5618480D02*
Y5811520D01*
X546100Y5618480D02*
Y5811520D01*
X2324100Y2763520D02*
X2755900D01*
X2324100Y2570480D02*
X2755900D01*
X2324100D02*
Y2763520D01*
X2755900Y2570480D02*
Y2763520D01*
X2115000Y3957500D02*
Y4081250D01*
X2268750Y4235000D01*
X2115000Y3538750D02*
X2268750Y3385000D01*
X2115000Y3538750D02*
Y3662500D01*
X2268750Y4235000D02*
X2965000D01*
Y3957500D02*
Y4235000D01*
Y3385000D02*
Y3662500D01*
X2268750Y3385000D02*
X2965000D01*
X1923957Y1439901D02*
Y1629901D01*
X1423957Y1439901D02*
Y1629901D01*
X1923957D01*
X1423957Y1439901D02*
X1923957D01*
X7250300Y439180D02*
X7989700D01*
X7250300Y1660920D02*
X7989700D01*
X7250300Y439180D02*
Y1660920D01*
X7989700Y439180D02*
Y1660920D01*
X6234300Y439180D02*
X6973700D01*
X6234300Y1660920D02*
X6973700D01*
X6234300Y439180D02*
Y1660920D01*
X6973700Y439180D02*
Y1660920D01*
X3186300Y439180D02*
X3925700D01*
X3186300Y1660920D02*
X3925700D01*
X3186300Y439180D02*
Y1660920D01*
X3925700Y439180D02*
Y1660920D01*
X2170300Y439180D02*
X2909700D01*
X2170300Y1660920D02*
X2909700D01*
X2170300Y439180D02*
Y1660920D01*
X2909700Y439180D02*
Y1660920D01*
X2755900Y2316480D02*
Y2509520D01*
X2324100Y2316480D02*
Y2509520D01*
Y2316480D02*
X2755900D01*
X2324100Y2509520D02*
X2755900D01*
Y2062480D02*
Y2255520D01*
X2324100Y2062480D02*
Y2255520D01*
Y2062480D02*
X2755900D01*
X2324100Y2255520D02*
X2755900D01*
Y1808480D02*
Y2001520D01*
X2324100Y1808480D02*
Y2001520D01*
Y1808480D02*
X2755900D01*
X2324100Y2001520D02*
X2755900D01*
X3340100Y1808480D02*
Y2001520D01*
X3771900Y1808480D02*
Y2001520D01*
X3340100D02*
X3771900D01*
X3340100Y1808480D02*
X3771900D01*
X1260000Y-233000D02*
Y967000D01*
X1066000Y-18000D02*
Y622000D01*
X1036000Y-143000D02*
X1066000Y-18000D01*
X1049166D02*
Y622000D01*
Y-18000D02*
X1050812Y-22714D01*
X1053985Y-32814D01*
X1056991Y-43772D01*
X1058426Y-49557D01*
X1231407Y-233000D02*
Y622000D01*
X1133000Y-233000D02*
Y182000D01*
X1108000Y-233000D02*
Y182000D01*
X899000D02*
X1133000D01*
X924000Y-233000D02*
Y182000D01*
X899000Y-233000D02*
Y182000D01*
X800594Y-233000D02*
Y622000D01*
X996000Y-143000D02*
X1036000D01*
X981188Y-22714D02*
X982834Y-18000D01*
X978015Y-32814D02*
X981188Y-22714D01*
X975009Y-43772D02*
X978015Y-32814D01*
X973574Y-49557D02*
X975009Y-43772D01*
X973574Y-49557D02*
X975009Y-43772D01*
X978015Y-32814D01*
X981188Y-22714D01*
X982834Y-18000D01*
X1049167D01*
X966000D02*
X996000Y-143000D01*
X966000Y-18000D02*
Y622000D01*
X982834Y-18000D02*
Y622000D01*
X800594D02*
X1231407D01*
X292593D02*
X723407D01*
X474834Y-18000D02*
Y622000D01*
X458000Y-18000D02*
Y622000D01*
Y-18000D02*
X488000Y-143000D01*
X558000Y-18000D02*
Y622000D01*
X528000Y-143000D02*
X558000Y-18000D01*
X541166D02*
Y622000D01*
X474834Y-18000D02*
X541166D01*
X473188Y-22714D02*
X474834Y-18000D01*
X470014Y-32814D02*
X473188Y-22714D01*
X467009Y-43772D02*
X470014Y-32814D01*
X465574Y-49557D02*
X467009Y-43772D01*
X465574Y-49557D02*
X467009Y-43772D01*
X470014Y-32814D01*
X473188Y-22714D01*
X474834Y-18000D01*
X541166D02*
X542812Y-22714D01*
X545985Y-32814D01*
X548991Y-43772D01*
X550426Y-49557D01*
X488000Y-143000D02*
X528000D01*
X723407Y-233000D02*
Y622000D01*
X292593Y-233000D02*
Y622000D01*
X625000Y-233000D02*
Y182000D01*
X391000Y-233000D02*
Y182000D01*
X416000Y-233000D02*
Y182000D01*
X600000Y-233000D02*
Y182000D01*
X391000D02*
X625000D01*
X264000Y-233000D02*
Y967000D01*
X1260000D01*
X264000Y-233000D02*
X1260000D01*
X6819900Y2189480D02*
Y2382520D01*
X6388100Y2189480D02*
Y2382520D01*
Y2189480D02*
X6819900D01*
X6388100Y2382520D02*
X6819900D01*
X7404100Y1808480D02*
Y2001520D01*
X7835900Y1808480D02*
Y2001520D01*
X7404100D02*
X7835900D01*
X7404100Y1808480D02*
X7835900D01*
X1195500Y2470230D02*
Y2593980D01*
X1041750Y2316480D02*
X1195500Y2470230D01*
X1041750Y3166480D02*
X1195500Y3012730D01*
Y2888980D02*
Y3012730D01*
X345500Y2316480D02*
X1041750D01*
X345500D02*
Y2593980D01*
Y2888980D02*
Y3166480D01*
X1041750D01*
X1207154Y3538750D02*
Y3662500D01*
X1053404Y3385000D02*
X1207154Y3538750D01*
X1053404Y4235000D02*
X1207154Y4081250D01*
Y3957500D02*
Y4081250D01*
X357154Y3385000D02*
X1053404D01*
X357154D02*
Y3662500D01*
Y3957500D02*
Y4235000D01*
X1053404D01*
X8356600Y2941320D02*
Y3154680D01*
Y2941320D02*
X8912860D01*
X8356600Y3154680D02*
X8912860D01*
Y2941320D02*
Y3154680D01*
X7370000Y2572000D02*
Y2762000D01*
X7870000Y2572000D02*
Y2762000D01*
X7370000Y2572000D02*
X7870000D01*
X7370000Y2762000D02*
X7870000D01*
X8420100Y3459480D02*
Y3652520D01*
X8851900Y3459480D02*
Y3652520D01*
X8420100D02*
X8851900D01*
X8420100Y3459480D02*
X8851900D01*
X5403000Y2051019D02*
X5773000D01*
X5403000Y1751019D02*
X5773000D01*
X6819900Y1808480D02*
Y2001520D01*
X6388100Y1808480D02*
Y2001520D01*
Y1808480D02*
X6819900D01*
X6388100Y2001520D02*
X6819900D01*
Y2443480D02*
Y2636520D01*
X6388100Y2443480D02*
Y2636520D01*
Y2443480D02*
X6819900D01*
X6388100Y2636520D02*
X6819900D01*
Y3967480D02*
Y4160520D01*
X6388100Y3967480D02*
Y4160520D01*
Y3967480D02*
X6819900D01*
X6388100Y4160520D02*
X6819900D01*
X6388100Y3713480D02*
Y3906520D01*
X6819900Y3713480D02*
Y3906520D01*
X6388100D02*
X6819900D01*
X6388100Y3713480D02*
X6819900D01*
D15*
X5583308Y1191875D02*
Y1431875D01*
X4563308Y1191875D02*
Y1431875D01*
X5583308D01*
X4564210Y413940D02*
Y653940D01*
X5584210Y413940D02*
Y653940D01*
X4564210Y413940D02*
X5584210D01*
X9403498Y1931635D02*
Y2171635D01*
X8383498Y1931635D02*
Y2171635D01*
X9403498D01*
X8384400Y1153700D02*
Y1393700D01*
X9404400Y1153700D02*
Y1393700D01*
X8384400Y1153700D02*
X9404400D01*
X7978822Y4478008D02*
Y4592271D01*
X8016910Y4554183D01*
X8054998Y4592271D01*
Y4478008D01*
X8093085D02*
Y4592271D01*
X8150217D01*
X8169261Y4573227D01*
Y4535139D01*
X8150217Y4516096D01*
X8093085D01*
X8207349Y4478008D02*
Y4592271D01*
X8264480D01*
X8283524Y4573227D01*
Y4535139D01*
X8264480Y4516096D01*
X8207349D01*
X8321612Y4592271D02*
X8397787D01*
X8359700D01*
Y4478008D01*
X8550138D02*
X8588226D01*
X8569182D01*
Y4592271D01*
X8550138Y4573227D01*
X8645357D02*
X8664401Y4592271D01*
X8702489D01*
X8721533Y4573227D01*
Y4497052D01*
X8702489Y4478008D01*
X8664401D01*
X8645357Y4497052D01*
Y4573227D01*
X8759621Y4592271D02*
Y4478008D01*
X8797708Y4516096D01*
X8835796Y4478008D01*
Y4592271D01*
X9064322Y4573227D02*
X9045278Y4592271D01*
X9007191D01*
X8988147Y4573227D01*
Y4497052D01*
X9007191Y4478008D01*
X9045278D01*
X9064322Y4497052D01*
Y4535139D01*
X9026235D01*
X9102410Y4554183D02*
Y4478008D01*
Y4516096D01*
X9121454Y4535139D01*
X9140498Y4554183D01*
X9159541D01*
X9216673D02*
Y4497052D01*
X9235717Y4478008D01*
X9292849D01*
Y4554183D01*
X9330936Y4439920D02*
Y4554183D01*
X9388068D01*
X9407112Y4535139D01*
Y4497052D01*
X9388068Y4478008D01*
X9330936D01*
X9464243D02*
X9502331D01*
X9521375Y4497052D01*
Y4535139D01*
X9502331Y4554183D01*
X9464243D01*
X9445200Y4535139D01*
Y4497052D01*
X9464243Y4478008D01*
X9749901D02*
X9673726D01*
X9749901Y4554183D01*
Y4573227D01*
X9730857Y4592271D01*
X9692770D01*
X9673726Y4573227D01*
X8026432Y4782783D02*
X7950257D01*
Y4668520D01*
X8026432D01*
X7950257Y4725651D02*
X7988344D01*
X8064520Y4668520D02*
X8102608D01*
X8083564D01*
Y4782783D01*
X8064520D01*
X8216871Y4668520D02*
X8178783D01*
X8159739Y4687564D01*
Y4725651D01*
X8178783Y4744695D01*
X8216871D01*
X8235914Y4725651D01*
Y4706608D01*
X8159739D01*
X8350178Y4744695D02*
X8293046D01*
X8274002Y4725651D01*
Y4687564D01*
X8293046Y4668520D01*
X8350178D01*
X8388265D02*
Y4687564D01*
X8407309D01*
Y4668520D01*
X8388265D01*
X8673923Y4782783D02*
Y4668520D01*
X8616792D01*
X8597748Y4687564D01*
Y4725651D01*
X8616792Y4744695D01*
X8673923D01*
X8769142Y4668520D02*
X8731055D01*
X8712011Y4687564D01*
Y4725651D01*
X8731055Y4744695D01*
X8769142D01*
X8788186Y4725651D01*
Y4706608D01*
X8712011D01*
X8940537Y4668520D02*
Y4782783D01*
X8997669D01*
X9016713Y4763739D01*
Y4725651D01*
X8997669Y4706608D01*
X8940537D01*
X9073844Y4668520D02*
X9111932D01*
X9130976Y4687564D01*
Y4725651D01*
X9111932Y4744695D01*
X9073844D01*
X9054801Y4725651D01*
Y4687564D01*
X9073844Y4668520D01*
X9188108Y4763739D02*
Y4744695D01*
X9169064D01*
X9207152D01*
X9188108D01*
Y4687564D01*
X9207152Y4668520D01*
X9321414D02*
X9283327D01*
X9264283Y4687564D01*
Y4725651D01*
X9283327Y4744695D01*
X9321414D01*
X9340458Y4725651D01*
Y4706608D01*
X9264283D01*
X9378546Y4668520D02*
Y4744695D01*
X9435678D01*
X9454722Y4725651D01*
Y4668520D01*
X9568985Y4744695D02*
X9511853D01*
X9492809Y4725651D01*
Y4687564D01*
X9511853Y4668520D01*
X9568985D01*
X9607072D02*
X9645160D01*
X9626116D01*
Y4744695D01*
X9607072D01*
X9721336D02*
X9759423D01*
X9778467Y4725651D01*
Y4668520D01*
X9721336D01*
X9702292Y4687564D01*
X9721336Y4706608D01*
X9778467D01*
X5503361Y6438879D02*
Y6417720D01*
X5545681Y6375400D01*
X5588000Y6417720D01*
Y6438879D01*
X5545681Y6375400D02*
Y6311921D01*
X5630320D02*
X5672639D01*
X5651479D01*
Y6438879D01*
X5630320Y6417720D01*
X3989618Y6443120D02*
X4010778Y6464279D01*
X4053097D01*
X4074257Y6443120D01*
Y6421960D01*
X4053097Y6400800D01*
X4031938D01*
X4053097D01*
X4074257Y6379640D01*
Y6358480D01*
X4053097Y6337321D01*
X4010778D01*
X3989618Y6358480D01*
X4116577Y6464279D02*
Y6379640D01*
X4158896Y6337321D01*
X4201216Y6379640D01*
Y6464279D01*
X4243536Y6443120D02*
X4264695Y6464279D01*
X4307015D01*
X4328175Y6443120D01*
Y6421960D01*
X4307015Y6400800D01*
X4285855D01*
X4307015D01*
X4328175Y6379640D01*
Y6358480D01*
X4307015Y6337321D01*
X4264695D01*
X4243536Y6358480D01*
X3026840Y4914879D02*
X2942201D01*
Y4851400D01*
X2984521Y4872560D01*
X3005680D01*
X3026840Y4851400D01*
Y4809080D01*
X3005680Y4787921D01*
X2963361D01*
X2942201Y4809080D01*
X3069160Y4914879D02*
Y4830240D01*
X3111479Y4787921D01*
X3153799Y4830240D01*
Y4914879D01*
X3831242Y3695721D02*
Y3822679D01*
X3894721D01*
X3915881Y3801520D01*
Y3759200D01*
X3894721Y3738040D01*
X3831242D01*
X3958201Y3822679D02*
Y3695721D01*
X4000521Y3738040D01*
X4042840Y3695721D01*
Y3822679D01*
X4085160Y3695721D02*
Y3822679D01*
X4127479Y3780360D01*
X4169799Y3822679D01*
Y3695721D01*
X4296758D02*
X4212119D01*
X4296758Y3780360D01*
Y3801520D01*
X4275598Y3822679D01*
X4233278D01*
X4212119Y3801520D01*
X3344402Y3695721D02*
Y3822679D01*
X3407881D01*
X3429041Y3801520D01*
Y3759200D01*
X3407881Y3738040D01*
X3344402D01*
X3471361Y3822679D02*
Y3695721D01*
X3513681Y3738040D01*
X3556000Y3695721D01*
Y3822679D01*
X3598320Y3695721D02*
Y3822679D01*
X3640639Y3780360D01*
X3682959Y3822679D01*
Y3695721D01*
X3725279D02*
X3767598D01*
X3746438D01*
Y3822679D01*
X3725279Y3801520D01*
X9023422Y3975079D02*
X9065742D01*
X9044582D01*
Y3848121D01*
X9023422D01*
X9065742D01*
X9192700Y3975079D02*
X9150381D01*
X9129221Y3953920D01*
Y3869280D01*
X9150381Y3848121D01*
X9192700D01*
X9213860Y3869280D01*
Y3953920D01*
X9192700Y3975079D01*
X9256180D02*
Y3869280D01*
X9277340Y3848121D01*
X9319659D01*
X9340819Y3869280D01*
Y3975079D01*
X9383139D02*
X9467778D01*
X9425458D01*
Y3848121D01*
X5365822Y3144418D02*
Y3059778D01*
X5408142Y3017459D01*
X5450461Y3059778D01*
Y3144418D01*
X5492781D02*
X5535100D01*
X5513940D01*
Y3017459D01*
X5492781D01*
X5535100D01*
X5598580D02*
Y3144418D01*
X5683219Y3017459D01*
Y3144418D01*
X5725539D02*
X5810178D01*
X5767858D01*
Y3017459D01*
X8403242Y3975079D02*
Y3890440D01*
X8445562Y3848121D01*
X8487881Y3890440D01*
Y3975079D01*
X8593680D02*
X8551361D01*
X8530201Y3953920D01*
Y3869280D01*
X8551361Y3848121D01*
X8593680D01*
X8614840Y3869280D01*
Y3953920D01*
X8593680Y3975079D01*
X8657160D02*
Y3869280D01*
X8678319Y3848121D01*
X8720639D01*
X8741799Y3869280D01*
Y3975079D01*
X8784119D02*
X8868758D01*
X8826438D01*
Y3848121D01*
X1517701Y842876D02*
Y758237D01*
X1560021Y715917D01*
X1602341Y758237D01*
Y842876D01*
X1644660D02*
X1686980D01*
X1665820D01*
Y715917D01*
X1644660D01*
X1686980D01*
X1750459D02*
Y842876D01*
X1835099Y715917D01*
Y842876D01*
X1604481Y2628879D02*
X1646801D01*
X1625641D01*
Y2501921D01*
X1604481D01*
X1646801D01*
X1710280Y2628879D02*
X1752600D01*
X1731440D01*
Y2501921D01*
X1710280D01*
X1752600D01*
X1816079D02*
Y2628879D01*
X1900719Y2501921D01*
Y2628879D01*
X2150520Y2730479D02*
X2108200D01*
X2129360D01*
Y2624680D01*
X2108200Y2603521D01*
X2087040D01*
X2065880Y2624680D01*
X2277479Y2603521D02*
X2192839D01*
X2277479Y2688160D01*
Y2709320D01*
X2256319Y2730479D01*
X2213999D01*
X2192839Y2709320D01*
X5232400Y2349479D02*
X5190081D01*
X5211240D01*
Y2243680D01*
X5190081Y2222521D01*
X5168921D01*
X5147761Y2243680D01*
X5274720Y2222521D02*
X5317039D01*
X5295879D01*
Y2349479D01*
X5274720Y2328320D01*
X834001Y1460479D02*
Y1333521D01*
X897480D01*
X918640Y1354680D01*
Y1439320D01*
X897480Y1460479D01*
X834001D01*
X1045599D02*
X960960D01*
Y1397000D01*
X1003279Y1418160D01*
X1024439D01*
X1045599Y1397000D01*
Y1354680D01*
X1024439Y1333521D01*
X982119D01*
X960960Y1354680D01*
X2739001Y5499079D02*
Y5393280D01*
X2760161Y5372121D01*
X2802480D01*
X2823640Y5393280D01*
Y5499079D01*
X2865960D02*
X2950599D01*
Y5477920D01*
X2865960Y5393280D01*
Y5372121D01*
X1692355Y5016479D02*
Y4910680D01*
X1713515Y4889521D01*
X1755835D01*
X1776995Y4910680D01*
Y5016479D01*
X1903954D02*
X1861634Y4995320D01*
X1819314Y4953000D01*
Y4910680D01*
X1840474Y4889521D01*
X1882794D01*
X1903954Y4910680D01*
Y4931840D01*
X1882794Y4953000D01*
X1819314D01*
X5482201Y5600679D02*
Y5494880D01*
X5503361Y5473721D01*
X5545680D01*
X5566840Y5494880D01*
Y5600679D01*
X5693799D02*
X5609160D01*
Y5537200D01*
X5651479Y5558360D01*
X5672639D01*
X5693799Y5537200D01*
Y5494880D01*
X5672639Y5473721D01*
X5630319D01*
X5609160Y5494880D01*
X9546201Y2984479D02*
Y2878680D01*
X9567361Y2857521D01*
X9609680D01*
X9630840Y2878680D01*
Y2984479D01*
X9736639Y2857521D02*
Y2984479D01*
X9673160Y2921000D01*
X9757799D01*
X3043801Y2730479D02*
Y2624680D01*
X3064961Y2603521D01*
X3107280D01*
X3128440Y2624680D01*
Y2730479D01*
X3170760Y2709320D02*
X3191919Y2730479D01*
X3234239D01*
X3255399Y2709320D01*
Y2688160D01*
X3234239Y2667000D01*
X3213079D01*
X3234239D01*
X3255399Y2645840D01*
Y2624680D01*
X3234239Y2603521D01*
X3191919D01*
X3170760Y2624680D01*
X7920601Y2730479D02*
Y2624680D01*
X7941761Y2603521D01*
X7984080D01*
X8005240Y2624680D01*
Y2730479D01*
X8132199Y2603521D02*
X8047560D01*
X8132199Y2688160D01*
Y2709320D01*
X8111039Y2730479D01*
X8068719D01*
X8047560Y2709320D01*
X1591761Y2044679D02*
Y1938880D01*
X1612921Y1917721D01*
X1655240D01*
X1676400Y1938880D01*
Y2044679D01*
X1718720Y1917721D02*
X1761039D01*
X1739879D01*
Y2044679D01*
X1718720Y2023520D01*
X4281801Y4128479D02*
X4366440D01*
X4324121D01*
Y4001521D01*
X4493399D02*
X4408760D01*
X4493399Y4086160D01*
Y4107320D01*
X4472239Y4128479D01*
X4429920D01*
X4408760Y4107320D01*
X3166561Y4127479D02*
X3251200D01*
X3208881D01*
Y4000521D01*
X3293520D02*
X3335839D01*
X3314679D01*
Y4127479D01*
X3293520Y4106320D01*
X1938921Y3111521D02*
Y3238479D01*
X2002401D01*
X2023561Y3217320D01*
Y3175000D01*
X2002401Y3153840D01*
X1938921D01*
X1981241D02*
X2023561Y3111521D01*
X2150520D02*
X2065880D01*
X2150520Y3196160D01*
Y3217320D01*
X2129360Y3238479D01*
X2087040D01*
X2065880Y3217320D01*
X2277479Y3238479D02*
X2192839D01*
Y3175000D01*
X2235159Y3196160D01*
X2256319D01*
X2277479Y3175000D01*
Y3132680D01*
X2256319Y3111521D01*
X2213999D01*
X2192839Y3132680D01*
X1938921Y2857521D02*
Y2984479D01*
X2002401D01*
X2023561Y2963320D01*
Y2921000D01*
X2002401Y2899840D01*
X1938921D01*
X1981241D02*
X2023561Y2857521D01*
X2150520D02*
X2065880D01*
X2150520Y2942160D01*
Y2963320D01*
X2129360Y2984479D01*
X2087040D01*
X2065880Y2963320D01*
X2256319Y2857521D02*
Y2984479D01*
X2192839Y2921000D01*
X2277479D01*
X3970921Y5143521D02*
Y5270479D01*
X4034401D01*
X4055561Y5249320D01*
Y5207000D01*
X4034401Y5185840D01*
X3970921D01*
X4013241D02*
X4055561Y5143521D01*
X4182520D02*
X4097880D01*
X4182520Y5228160D01*
Y5249320D01*
X4161360Y5270479D01*
X4119040D01*
X4097880Y5249320D01*
X4224839D02*
X4245999Y5270479D01*
X4288319D01*
X4309479Y5249320D01*
Y5228160D01*
X4288319Y5207000D01*
X4267159D01*
X4288319D01*
X4309479Y5185840D01*
Y5164680D01*
X4288319Y5143521D01*
X4245999D01*
X4224839Y5164680D01*
X3970921Y5397521D02*
Y5524479D01*
X4034401D01*
X4055561Y5503320D01*
Y5461000D01*
X4034401Y5439840D01*
X3970921D01*
X4013241D02*
X4055561Y5397521D01*
X4182520D02*
X4097880D01*
X4182520Y5482160D01*
Y5503320D01*
X4161360Y5524479D01*
X4119040D01*
X4097880Y5503320D01*
X4309479Y5397521D02*
X4224839D01*
X4309479Y5482160D01*
Y5503320D01*
X4288319Y5524479D01*
X4245999D01*
X4224839Y5503320D01*
X4013241Y4635521D02*
Y4762479D01*
X4076721D01*
X4097881Y4741320D01*
Y4699000D01*
X4076721Y4677840D01*
X4013241D01*
X4055561D02*
X4097881Y4635521D01*
X4224839D02*
X4140200D01*
X4224839Y4720160D01*
Y4741320D01*
X4203679Y4762479D01*
X4161360D01*
X4140200Y4741320D01*
X4267159Y4635521D02*
X4309479D01*
X4288319D01*
Y4762479D01*
X4267159Y4741320D01*
X3970921Y4889521D02*
Y5016479D01*
X4034401D01*
X4055561Y4995320D01*
Y4953000D01*
X4034401Y4931840D01*
X3970921D01*
X4013241D02*
X4055561Y4889521D01*
X4182520D02*
X4097880D01*
X4182520Y4974160D01*
Y4995320D01*
X4161360Y5016479D01*
X4119040D01*
X4097880Y4995320D01*
X4224839D02*
X4245999Y5016479D01*
X4288319D01*
X4309479Y4995320D01*
Y4910680D01*
X4288319Y4889521D01*
X4245999D01*
X4224839Y4910680D01*
Y4995320D01*
X3992081Y4381521D02*
Y4508479D01*
X4055561D01*
X4076721Y4487320D01*
Y4445000D01*
X4055561Y4423840D01*
X3992081D01*
X4034401D02*
X4076721Y4381521D01*
X4119040D02*
X4161360D01*
X4140200D01*
Y4508479D01*
X4119040Y4487320D01*
X4224839Y4402680D02*
X4245999Y4381521D01*
X4288319D01*
X4309479Y4402680D01*
Y4487320D01*
X4288319Y4508479D01*
X4245999D01*
X4224839Y4487320D01*
Y4466160D01*
X4245999Y4445000D01*
X4309479D01*
X6853801Y4889521D02*
Y5016479D01*
X6917280D01*
X6938440Y4995320D01*
Y4953000D01*
X6917280Y4931840D01*
X6853801D01*
X6896121D02*
X6938440Y4889521D01*
X6980760D02*
X7023079D01*
X7001919D01*
Y5016479D01*
X6980760Y4995320D01*
X7086559D02*
X7107719Y5016479D01*
X7150038D01*
X7171198Y4995320D01*
Y4974160D01*
X7150038Y4953000D01*
X7171198Y4931840D01*
Y4910680D01*
X7150038Y4889521D01*
X7107719D01*
X7086559Y4910680D01*
Y4931840D01*
X7107719Y4953000D01*
X7086559Y4974160D01*
Y4995320D01*
X7107719Y4953000D02*
X7150038D01*
X6853801Y5905521D02*
Y6032479D01*
X6917280D01*
X6938440Y6011320D01*
Y5969000D01*
X6917280Y5947840D01*
X6853801D01*
X6896121D02*
X6938440Y5905521D01*
X6980760D02*
X7023079D01*
X7001919D01*
Y6032479D01*
X6980760Y6011320D01*
X7086559Y6032479D02*
X7171198D01*
Y6011320D01*
X7086559Y5926680D01*
Y5905521D01*
X7874451Y4129415D02*
Y4256374D01*
X7937930D01*
X7959090Y4235215D01*
Y4192895D01*
X7937930Y4171735D01*
X7874451D01*
X7916770D02*
X7959090Y4129415D01*
X8001409D02*
X8043729D01*
X8022569D01*
Y4256374D01*
X8001409Y4235215D01*
X8191848Y4256374D02*
X8149528Y4235215D01*
X8107209Y4192895D01*
Y4150575D01*
X8128368Y4129415D01*
X8170688D01*
X8191848Y4150575D01*
Y4171735D01*
X8170688Y4192895D01*
X8107209D01*
X7874451Y3875415D02*
Y4002374D01*
X7937930D01*
X7959090Y3981215D01*
Y3938895D01*
X7937930Y3917735D01*
X7874451D01*
X7916770D02*
X7959090Y3875415D01*
X8001409D02*
X8043729D01*
X8022569D01*
Y4002374D01*
X8001409Y3981215D01*
X8191848Y4002374D02*
X8107209D01*
Y3938895D01*
X8149528Y3960055D01*
X8170688D01*
X8191848Y3938895D01*
Y3896575D01*
X8170688Y3875415D01*
X8128368D01*
X8107209Y3896575D01*
X6872851Y2984521D02*
Y3111479D01*
X6936330D01*
X6957490Y3090320D01*
Y3048000D01*
X6936330Y3026840D01*
X6872851D01*
X6915171D02*
X6957490Y2984521D01*
X6999810D02*
X7042129D01*
X7020969D01*
Y3111479D01*
X6999810Y3090320D01*
X7169088Y2984521D02*
Y3111479D01*
X7105609Y3048000D01*
X7190248D01*
X6872851Y2730521D02*
Y2857479D01*
X6936330D01*
X6957490Y2836320D01*
Y2794000D01*
X6936330Y2772840D01*
X6872851D01*
X6915171D02*
X6957490Y2730521D01*
X6999810D02*
X7042129D01*
X7020969D01*
Y2857479D01*
X6999810Y2836320D01*
X7105609D02*
X7126769Y2857479D01*
X7169088D01*
X7190248Y2836320D01*
Y2815160D01*
X7169088Y2794000D01*
X7147929D01*
X7169088D01*
X7190248Y2772840D01*
Y2751680D01*
X7169088Y2730521D01*
X7126769D01*
X7105609Y2751680D01*
X5001742Y3619521D02*
Y3746479D01*
X5065221D01*
X5086381Y3725320D01*
Y3683000D01*
X5065221Y3661840D01*
X5001742D01*
X5044061D02*
X5086381Y3619521D01*
X5128700D02*
X5171020D01*
X5149860D01*
Y3746479D01*
X5128700Y3725320D01*
X5319139Y3619521D02*
X5234500D01*
X5319139Y3704160D01*
Y3725320D01*
X5297979Y3746479D01*
X5255659D01*
X5234500Y3725320D01*
X5044061Y3365521D02*
Y3492479D01*
X5107541D01*
X5128701Y3471320D01*
Y3429000D01*
X5107541Y3407840D01*
X5044061D01*
X5086381D02*
X5128701Y3365521D01*
X5171020D02*
X5213340D01*
X5192180D01*
Y3492479D01*
X5171020Y3471320D01*
X5276819Y3365521D02*
X5319139D01*
X5297979D01*
Y3492479D01*
X5276819Y3471320D01*
X6872851Y3746521D02*
Y3873479D01*
X6936330D01*
X6957490Y3852320D01*
Y3810000D01*
X6936330Y3788840D01*
X6872851D01*
X6915171D02*
X6957490Y3746521D01*
X6999810D02*
X7042129D01*
X7020969D01*
Y3873479D01*
X6999810Y3852320D01*
X7105609D02*
X7126769Y3873479D01*
X7169088D01*
X7190248Y3852320D01*
Y3767680D01*
X7169088Y3746521D01*
X7126769D01*
X7105609Y3767680D01*
Y3852320D01*
X6872851Y3492521D02*
Y3619479D01*
X6936330D01*
X6957490Y3598320D01*
Y3556000D01*
X6936330Y3534840D01*
X6872851D01*
X6915171D02*
X6957490Y3492521D01*
X6999810Y3513680D02*
X7020969Y3492521D01*
X7063289D01*
X7084449Y3513680D01*
Y3598320D01*
X7063289Y3619479D01*
X7020969D01*
X6999810Y3598320D01*
Y3577160D01*
X7020969Y3556000D01*
X7084449D01*
X3253704Y5397521D02*
Y5524479D01*
X3317184D01*
X3338344Y5503320D01*
Y5461000D01*
X3317184Y5439840D01*
X3253704D01*
X3296024D02*
X3338344Y5397521D01*
X3380663Y5503320D02*
X3401823Y5524479D01*
X3444143D01*
X3465303Y5503320D01*
Y5482160D01*
X3444143Y5461000D01*
X3465303Y5439840D01*
Y5418680D01*
X3444143Y5397521D01*
X3401823D01*
X3380663Y5418680D01*
Y5439840D01*
X3401823Y5461000D01*
X3380663Y5482160D01*
Y5503320D01*
X3401823Y5461000D02*
X3444143D01*
X3253704Y5651521D02*
Y5778479D01*
X3317184D01*
X3338344Y5757320D01*
Y5715000D01*
X3317184Y5693840D01*
X3253704D01*
X3296024D02*
X3338344Y5651521D01*
X3380663Y5778479D02*
X3465303D01*
Y5757320D01*
X3380663Y5672680D01*
Y5651521D01*
X4034401Y2222521D02*
Y2349479D01*
X4097880D01*
X4119040Y2328320D01*
Y2286000D01*
X4097880Y2264840D01*
X4034401D01*
X4076721D02*
X4119040Y2222521D01*
X4245999Y2349479D02*
X4203679Y2328320D01*
X4161360Y2286000D01*
Y2243680D01*
X4182519Y2222521D01*
X4224839D01*
X4245999Y2243680D01*
Y2264840D01*
X4224839Y2286000D01*
X4161360D01*
X8098401Y2984521D02*
Y3111479D01*
X8161880D01*
X8183040Y3090320D01*
Y3048000D01*
X8161880Y3026840D01*
X8098401D01*
X8140721D02*
X8183040Y2984521D01*
X8309999Y3111479D02*
X8225360D01*
Y3048000D01*
X8267679Y3069160D01*
X8288839D01*
X8309999Y3048000D01*
Y3005680D01*
X8288839Y2984521D01*
X8246519D01*
X8225360Y3005680D01*
X3043801Y1841521D02*
Y1968479D01*
X3107280D01*
X3128440Y1947320D01*
Y1905000D01*
X3107280Y1883840D01*
X3043801D01*
X3086121D02*
X3128440Y1841521D01*
X3234239D02*
Y1968479D01*
X3170760Y1905000D01*
X3255399D01*
X2065880Y2095521D02*
Y2222479D01*
X2129360D01*
X2150520Y2201320D01*
Y2159000D01*
X2129360Y2137840D01*
X2065880D01*
X2108200D02*
X2150520Y2095521D01*
X2192839Y2201320D02*
X2213999Y2222479D01*
X2256319D01*
X2277479Y2201320D01*
Y2180160D01*
X2256319Y2159000D01*
X2235159D01*
X2256319D01*
X2277479Y2137840D01*
Y2116680D01*
X2256319Y2095521D01*
X2213999D01*
X2192839Y2116680D01*
X7869801Y1841521D02*
Y1968479D01*
X7933280D01*
X7954440Y1947320D01*
Y1905000D01*
X7933280Y1883840D01*
X7869801D01*
X7912121D02*
X7954440Y1841521D01*
X8081399D02*
X7996760D01*
X8081399Y1926160D01*
Y1947320D01*
X8060239Y1968479D01*
X8017919D01*
X7996760Y1947320D01*
X6872851Y2222521D02*
Y2349479D01*
X6936330D01*
X6957490Y2328320D01*
Y2286000D01*
X6936330Y2264840D01*
X6872851D01*
X6915171D02*
X6957490Y2222521D01*
X6999810D02*
X7042129D01*
X7020969D01*
Y2349479D01*
X6999810Y2328320D01*
X4119040Y973680D02*
Y1058320D01*
X4097880Y1079479D01*
X4055561D01*
X4034401Y1058320D01*
Y973680D01*
X4055561Y952521D01*
X4097880D01*
X4076721Y994840D02*
X4119040Y952521D01*
X4097880D02*
X4119040Y973680D01*
X4224839Y952521D02*
Y1079479D01*
X4161360Y1016000D01*
X4245999D01*
X1934640Y973680D02*
Y1058320D01*
X1913480Y1079479D01*
X1871161D01*
X1850001Y1058320D01*
Y973680D01*
X1871161Y952521D01*
X1913480D01*
X1892321Y994840D02*
X1934640Y952521D01*
X1913480D02*
X1934640Y973680D01*
X1976960Y1058320D02*
X1998119Y1079479D01*
X2040439D01*
X2061599Y1058320D01*
Y1037160D01*
X2040439Y1016000D01*
X2019279D01*
X2040439D01*
X2061599Y994840D01*
Y973680D01*
X2040439Y952521D01*
X1998119D01*
X1976960Y973680D01*
X8183040D02*
Y1058320D01*
X8161880Y1079479D01*
X8119561D01*
X8098401Y1058320D01*
Y973680D01*
X8119561Y952521D01*
X8161880D01*
X8140721Y994840D02*
X8183040Y952521D01*
X8161880D02*
X8183040Y973680D01*
X8309999Y952521D02*
X8225360D01*
X8309999Y1037160D01*
Y1058320D01*
X8288839Y1079479D01*
X8246519D01*
X8225360Y1058320D01*
X6045200Y973680D02*
Y1058320D01*
X6024040Y1079479D01*
X5981721D01*
X5960561Y1058320D01*
Y973680D01*
X5981721Y952521D01*
X6024040D01*
X6002881Y994840D02*
X6045200Y952521D01*
X6024040D02*
X6045200Y973680D01*
X6087520Y952521D02*
X6129839D01*
X6108679D01*
Y1079479D01*
X6087520Y1058320D01*
X4980950Y1605197D02*
Y1478238D01*
X5065590D01*
X5192548D02*
X5107909D01*
X5192548Y1562878D01*
Y1584037D01*
X5171388Y1605197D01*
X5129069D01*
X5107909Y1584037D01*
X8171088Y2166002D02*
Y2039043D01*
X8255728D01*
X8298047D02*
X8340367D01*
X8319207D01*
Y2166002D01*
X8298047Y2144842D01*
X3304504Y4762479D02*
Y4635521D01*
X3367984D01*
X3389144Y4656680D01*
Y4741320D01*
X3367984Y4762479D01*
X3304504D01*
X3494943Y4635521D02*
Y4762479D01*
X3431463Y4699000D01*
X3516103D01*
X3305173Y5016479D02*
Y4889521D01*
X3368653D01*
X3389813Y4910680D01*
Y4995320D01*
X3368653Y5016479D01*
X3305173D01*
X3432132Y4995320D02*
X3453292Y5016479D01*
X3495612D01*
X3516772Y4995320D01*
Y4974160D01*
X3495612Y4953000D01*
X3474452D01*
X3495612D01*
X3516772Y4931840D01*
Y4910680D01*
X3495612Y4889521D01*
X3453292D01*
X3432132Y4910680D01*
X4034401Y1968479D02*
Y1841521D01*
X4097880D01*
X4119040Y1862680D01*
Y1947320D01*
X4097880Y1968479D01*
X4034401D01*
X4245999Y1841521D02*
X4161360D01*
X4245999Y1926160D01*
Y1947320D01*
X4224839Y1968479D01*
X4182519D01*
X4161360Y1947320D01*
X8140721Y3366730D02*
Y3239771D01*
X8204200D01*
X8225360Y3260930D01*
Y3345570D01*
X8204200Y3366730D01*
X8140721D01*
X8267679Y3239771D02*
X8309999D01*
X8288839D01*
Y3366730D01*
X8267679Y3345570D01*
X8921474Y5753079D02*
Y5647280D01*
X8942634Y5626121D01*
X8984954D01*
X9006114Y5647280D01*
Y5753079D01*
X9048433Y5626121D02*
Y5710760D01*
X9090753Y5753079D01*
X9133072Y5710760D01*
Y5626121D01*
Y5689600D01*
X9048433D01*
X9175392Y5626121D02*
Y5753079D01*
X9238871D01*
X9260031Y5731920D01*
Y5689600D01*
X9238871Y5668440D01*
X9175392D01*
X9217712D02*
X9260031Y5626121D01*
X9302351Y5753079D02*
X9386990D01*
X9344670D01*
Y5626121D01*
X7540856Y5753079D02*
Y5626121D01*
X7604336D01*
X7625496Y5647280D01*
Y5731920D01*
X7604336Y5753079D01*
X7540856D01*
X7752455D02*
X7667815D01*
Y5626121D01*
X7752455D01*
X7667815Y5689600D02*
X7710135D01*
X7794774Y5753079D02*
Y5626121D01*
X7858254D01*
X7879414Y5647280D01*
Y5668440D01*
X7858254Y5689600D01*
X7794774D01*
X7858254D01*
X7879414Y5710760D01*
Y5731920D01*
X7858254Y5753079D01*
X7794774D01*
X7921733D02*
Y5647280D01*
X7942893Y5626121D01*
X7985212D01*
X8006372Y5647280D01*
Y5753079D01*
X8133331Y5731920D02*
X8112171Y5753079D01*
X8069852D01*
X8048692Y5731920D01*
Y5647280D01*
X8069852Y5626121D01*
X8112171D01*
X8133331Y5647280D01*
Y5689600D01*
X8091012D01*
X8941278Y1115244D02*
Y1000981D01*
X8998409D01*
X9017453Y1020025D01*
Y1039069D01*
X8998409Y1058113D01*
X8941278D01*
X8998409D01*
X9017453Y1077157D01*
Y1096200D01*
X8998409Y1115244D01*
X8941278D01*
X9055541Y1000981D02*
Y1077157D01*
X9093628Y1115244D01*
X9131716Y1077157D01*
Y1000981D01*
Y1058113D01*
X9055541D01*
X9169804Y1115244D02*
X9245979D01*
X9207892D01*
Y1000981D01*
X9360242Y1115244D02*
X9284067D01*
Y1000981D01*
X9360242D01*
X9284067Y1058113D02*
X9322155D01*
X9398330Y1000981D02*
Y1115244D01*
X9455462D01*
X9474506Y1096200D01*
Y1058113D01*
X9455462Y1039069D01*
X9398330D01*
X9436418D02*
X9474506Y1000981D01*
X9512593Y1115244D02*
X9550681D01*
X9531637D01*
Y1000981D01*
X9512593D01*
X9550681D01*
X9607813D02*
Y1077157D01*
X9645900Y1115244D01*
X9683988Y1077157D01*
Y1000981D01*
Y1058113D01*
X9607813D01*
X465763Y1028721D02*
Y1155679D01*
X529242D01*
X550402Y1134520D01*
Y1092200D01*
X529242Y1071040D01*
X465763D01*
X592721Y1028721D02*
Y1113360D01*
X635041Y1155679D01*
X677361Y1113360D01*
Y1028721D01*
Y1092200D01*
X592721D01*
X719680Y1028721D02*
Y1155679D01*
X804320Y1028721D01*
Y1155679D01*
X931279D02*
X846639D01*
Y1028721D01*
X931279D01*
X846639Y1092200D02*
X888959D01*
X973598Y1155679D02*
Y1028721D01*
X1058237D01*
X2027801Y6138320D02*
X2006641Y6159479D01*
X1964321D01*
X1943162Y6138320D01*
Y6053680D01*
X1964321Y6032521D01*
X2006641D01*
X2027801Y6053680D01*
X2070121Y6138320D02*
X2091280Y6159479D01*
X2133600D01*
X2154760Y6138320D01*
Y6117160D01*
X2133600Y6096000D01*
X2112440D01*
X2133600D01*
X2154760Y6074840D01*
Y6053680D01*
X2133600Y6032521D01*
X2091280D01*
X2070121Y6053680D01*
X2281719Y6032521D02*
X2197079D01*
X2281719Y6117160D01*
Y6138320D01*
X2260559Y6159479D01*
X2218239D01*
X2197079Y6138320D01*
X2070121Y5757320D02*
X2048961Y5778479D01*
X2006641D01*
X1985481Y5757320D01*
Y5672680D01*
X2006641Y5651521D01*
X2048961D01*
X2070121Y5672680D01*
X2112440Y5757320D02*
X2133600Y5778479D01*
X2175920D01*
X2197080Y5757320D01*
Y5736160D01*
X2175920Y5715000D01*
X2154760D01*
X2175920D01*
X2197080Y5693840D01*
Y5672680D01*
X2175920Y5651521D01*
X2133600D01*
X2112440Y5672680D01*
X2239399Y5651521D02*
X2281719D01*
X2260559D01*
Y5778479D01*
X2239399Y5757320D01*
X1439361Y5554120D02*
X1418201Y5575279D01*
X1375881D01*
X1354721Y5554120D01*
Y5469480D01*
X1375881Y5448321D01*
X1418201D01*
X1439361Y5469480D01*
X1481680Y5554120D02*
X1502840Y5575279D01*
X1545160D01*
X1566320Y5554120D01*
Y5532960D01*
X1545160Y5511800D01*
X1524000D01*
X1545160D01*
X1566320Y5490640D01*
Y5469480D01*
X1545160Y5448321D01*
X1502840D01*
X1481680Y5469480D01*
X1608639Y5554120D02*
X1629799Y5575279D01*
X1672119D01*
X1693279Y5554120D01*
Y5469480D01*
X1672119Y5448321D01*
X1629799D01*
X1608639Y5469480D01*
Y5554120D01*
X1439361Y6417720D02*
X1418201Y6438879D01*
X1375881D01*
X1354721Y6417720D01*
Y6333080D01*
X1375881Y6311921D01*
X1418201D01*
X1439361Y6333080D01*
X1566320Y6311921D02*
X1481680D01*
X1566320Y6396560D01*
Y6417720D01*
X1545160Y6438879D01*
X1502840D01*
X1481680Y6417720D01*
X1608639Y6333080D02*
X1629799Y6311921D01*
X1672119D01*
X1693279Y6333080D01*
Y6417720D01*
X1672119Y6438879D01*
X1629799D01*
X1608639Y6417720D01*
Y6396560D01*
X1629799Y6375400D01*
X1693279D01*
X677361Y6417720D02*
X656201Y6438879D01*
X613881D01*
X592721Y6417720D01*
Y6333080D01*
X613881Y6311921D01*
X656201D01*
X677361Y6333080D01*
X804320Y6311921D02*
X719680D01*
X804320Y6396560D01*
Y6417720D01*
X783160Y6438879D01*
X740840D01*
X719680Y6417720D01*
X846639D02*
X867799Y6438879D01*
X910119D01*
X931279Y6417720D01*
Y6396560D01*
X910119Y6375400D01*
X931279Y6354240D01*
Y6333080D01*
X910119Y6311921D01*
X867799D01*
X846639Y6333080D01*
Y6354240D01*
X867799Y6375400D01*
X846639Y6396560D01*
Y6417720D01*
X867799Y6375400D02*
X910119D01*
X677361Y5554120D02*
X656201Y5575279D01*
X613881D01*
X592721Y5554120D01*
Y5469480D01*
X613881Y5448321D01*
X656201D01*
X677361Y5469480D01*
X804320Y5448321D02*
X719680D01*
X804320Y5532960D01*
Y5554120D01*
X783160Y5575279D01*
X740840D01*
X719680Y5554120D01*
X846639Y5575279D02*
X931279D01*
Y5554120D01*
X846639Y5469480D01*
Y5448321D01*
X2027801Y4614320D02*
X2006641Y4635479D01*
X1964321D01*
X1943162Y4614320D01*
Y4529680D01*
X1964321Y4508521D01*
X2006641D01*
X2027801Y4529680D01*
X2154760Y4508521D02*
X2070121D01*
X2154760Y4593160D01*
Y4614320D01*
X2133600Y4635479D01*
X2091280D01*
X2070121Y4614320D01*
X2281719Y4635479D02*
X2239399Y4614320D01*
X2197079Y4572000D01*
Y4529680D01*
X2218239Y4508521D01*
X2260559D01*
X2281719Y4529680D01*
Y4550840D01*
X2260559Y4572000D01*
X2197079D01*
X2455361Y4385720D02*
X2434201Y4406879D01*
X2391881D01*
X2370721Y4385720D01*
Y4301080D01*
X2391881Y4279921D01*
X2434201D01*
X2455361Y4301080D01*
X2582320Y4279921D02*
X2497680D01*
X2582320Y4364560D01*
Y4385720D01*
X2561160Y4406879D01*
X2518840D01*
X2497680Y4385720D01*
X2709279Y4406879D02*
X2624639D01*
Y4343400D01*
X2666959Y4364560D01*
X2688119D01*
X2709279Y4343400D01*
Y4301080D01*
X2688119Y4279921D01*
X2645799D01*
X2624639Y4301080D01*
X6938440Y4487320D02*
X6917280Y4508479D01*
X6874961D01*
X6853801Y4487320D01*
Y4402680D01*
X6874961Y4381521D01*
X6917280D01*
X6938440Y4402680D01*
X7065399Y4381521D02*
X6980760D01*
X7065399Y4466160D01*
Y4487320D01*
X7044239Y4508479D01*
X7001919D01*
X6980760Y4487320D01*
X7171198Y4381521D02*
Y4508479D01*
X7107719Y4445000D01*
X7192358D01*
X6938440Y5249320D02*
X6917280Y5270479D01*
X6874961D01*
X6853801Y5249320D01*
Y5164680D01*
X6874961Y5143521D01*
X6917280D01*
X6938440Y5164680D01*
X7065399Y5143521D02*
X6980760D01*
X7065399Y5228160D01*
Y5249320D01*
X7044239Y5270479D01*
X7001919D01*
X6980760Y5249320D01*
X7107719D02*
X7128878Y5270479D01*
X7171198D01*
X7192358Y5249320D01*
Y5228160D01*
X7171198Y5207000D01*
X7150038D01*
X7171198D01*
X7192358Y5185840D01*
Y5164680D01*
X7171198Y5143521D01*
X7128878D01*
X7107719Y5164680D01*
X6938440Y5503320D02*
X6917280Y5524479D01*
X6874961D01*
X6853801Y5503320D01*
Y5418680D01*
X6874961Y5397521D01*
X6917280D01*
X6938440Y5418680D01*
X7065399Y5397521D02*
X6980760D01*
X7065399Y5482160D01*
Y5503320D01*
X7044239Y5524479D01*
X7001919D01*
X6980760Y5503320D01*
X7192358Y5397521D02*
X7107719D01*
X7192358Y5482160D01*
Y5503320D01*
X7171198Y5524479D01*
X7128878D01*
X7107719Y5503320D01*
X4737121Y6265320D02*
X4715961Y6286479D01*
X4673641D01*
X4652481Y6265320D01*
Y6180680D01*
X4673641Y6159521D01*
X4715961D01*
X4737121Y6180680D01*
X4864080Y6159521D02*
X4779440D01*
X4864080Y6244160D01*
Y6265320D01*
X4842920Y6286479D01*
X4800600D01*
X4779440Y6265320D01*
X4906399Y6159521D02*
X4948719D01*
X4927559D01*
Y6286479D01*
X4906399Y6265320D01*
X6316161D02*
X6295001Y6286479D01*
X6252681D01*
X6231521Y6265320D01*
Y6180680D01*
X6252681Y6159521D01*
X6295001D01*
X6316161Y6180680D01*
X6443120Y6159521D02*
X6358480D01*
X6443120Y6244160D01*
Y6265320D01*
X6421960Y6286479D01*
X6379640D01*
X6358480Y6265320D01*
X6485439D02*
X6506599Y6286479D01*
X6548919D01*
X6570079Y6265320D01*
Y6180680D01*
X6548919Y6159521D01*
X6506599D01*
X6485439Y6180680D01*
Y6265320D01*
X4076721Y5757320D02*
X4055561Y5778479D01*
X4013241D01*
X3992081Y5757320D01*
Y5672680D01*
X4013241Y5651521D01*
X4055561D01*
X4076721Y5672680D01*
X4119040Y5651521D02*
X4161360D01*
X4140200D01*
Y5778479D01*
X4119040Y5757320D01*
X4224839Y5672680D02*
X4245999Y5651521D01*
X4288319D01*
X4309479Y5672680D01*
Y5757320D01*
X4288319Y5778479D01*
X4245999D01*
X4224839Y5757320D01*
Y5736160D01*
X4245999Y5715000D01*
X4309479D01*
X6938440Y5741599D02*
X6917280Y5762758D01*
X6874961D01*
X6853801Y5741599D01*
Y5656959D01*
X6874961Y5635799D01*
X6917280D01*
X6938440Y5656959D01*
X6980760Y5635799D02*
X7023079D01*
X7001919D01*
Y5762758D01*
X6980760Y5741599D01*
X7086559D02*
X7107719Y5762758D01*
X7150038D01*
X7171198Y5741599D01*
Y5720439D01*
X7150038Y5699279D01*
X7171198Y5678119D01*
Y5656959D01*
X7150038Y5635799D01*
X7107719D01*
X7086559Y5656959D01*
Y5678119D01*
X7107719Y5699279D01*
X7086559Y5720439D01*
Y5741599D01*
X7107719Y5699279D02*
X7150038D01*
X7545941Y4690520D02*
X7524781Y4711679D01*
X7482461D01*
X7461301Y4690520D01*
Y4605880D01*
X7482461Y4584721D01*
X7524781D01*
X7545941Y4605880D01*
X7588260Y4584721D02*
X7630580D01*
X7609420D01*
Y4711679D01*
X7588260Y4690520D01*
X7694059Y4711679D02*
X7778699D01*
Y4690520D01*
X7694059Y4605880D01*
Y4584721D01*
X6957490Y3344320D02*
X6936330Y3365479D01*
X6894011D01*
X6872851Y3344320D01*
Y3259680D01*
X6894011Y3238521D01*
X6936330D01*
X6957490Y3259680D01*
X6999810Y3238521D02*
X7042129D01*
X7020969D01*
Y3365479D01*
X6999810Y3344320D01*
X7190248Y3365479D02*
X7147929Y3344320D01*
X7105609Y3302000D01*
Y3259680D01*
X7126769Y3238521D01*
X7169088D01*
X7190248Y3259680D01*
Y3280840D01*
X7169088Y3302000D01*
X7105609D01*
X5086381Y3979320D02*
X5065221Y4000479D01*
X5022901D01*
X5001742Y3979320D01*
Y3894680D01*
X5022901Y3873521D01*
X5065221D01*
X5086381Y3894680D01*
X5128700Y3873521D02*
X5171020D01*
X5149860D01*
Y4000479D01*
X5128700Y3979320D01*
X5319139Y4000479D02*
X5234500D01*
Y3937000D01*
X5276819Y3958160D01*
X5297979D01*
X5319139Y3937000D01*
Y3894680D01*
X5297979Y3873521D01*
X5255659D01*
X5234500Y3894680D01*
X701686Y3317200D02*
X680526Y3338359D01*
X638207D01*
X617047Y3317200D01*
Y3232560D01*
X638207Y3211400D01*
X680526D01*
X701686Y3232560D01*
X744006Y3211400D02*
X786326D01*
X765166D01*
Y3338359D01*
X744006Y3317200D01*
X913284Y3211400D02*
Y3338359D01*
X849805Y3274880D01*
X934444D01*
X6957490Y4106320D02*
X6936330Y4127479D01*
X6894011D01*
X6872851Y4106320D01*
Y4021680D01*
X6894011Y4000521D01*
X6936330D01*
X6957490Y4021680D01*
X6999810Y4000521D02*
X7042129D01*
X7020969D01*
Y4127479D01*
X6999810Y4106320D01*
X7105609D02*
X7126769Y4127479D01*
X7169088D01*
X7190248Y4106320D01*
Y4085160D01*
X7169088Y4064000D01*
X7147929D01*
X7169088D01*
X7190248Y4042840D01*
Y4021680D01*
X7169088Y4000521D01*
X7126769D01*
X7105609Y4021680D01*
X3232545Y5249320D02*
X3211385Y5270479D01*
X3169065D01*
X3147905Y5249320D01*
Y5164680D01*
X3169065Y5143521D01*
X3211385D01*
X3232545Y5164680D01*
X3274864Y5143521D02*
X3317184D01*
X3296024D01*
Y5270479D01*
X3274864Y5249320D01*
X3465303Y5143521D02*
X3380663D01*
X3465303Y5228160D01*
Y5249320D01*
X3444143Y5270479D01*
X3401823D01*
X3380663Y5249320D01*
X709101Y4385720D02*
X687941Y4406879D01*
X645621D01*
X624461Y4385720D01*
Y4301080D01*
X645621Y4279921D01*
X687941D01*
X709101Y4301080D01*
X751420Y4279921D02*
X793740D01*
X772580D01*
Y4406879D01*
X751420Y4385720D01*
X857219Y4279921D02*
X899539D01*
X878379D01*
Y4406879D01*
X857219Y4385720D01*
X5084281Y1947320D02*
X5063121Y1968479D01*
X5020802D01*
X4999642Y1947320D01*
Y1862680D01*
X5020802Y1841521D01*
X5063121D01*
X5084281Y1862680D01*
X5126601Y1841521D02*
X5168921D01*
X5147761D01*
Y1968479D01*
X5126601Y1947320D01*
X5232400D02*
X5253560Y1968479D01*
X5295879D01*
X5317039Y1947320D01*
Y1862680D01*
X5295879Y1841521D01*
X5253560D01*
X5232400Y1862680D01*
Y1947320D01*
X9580040Y3598320D02*
X9558880Y3619479D01*
X9516561D01*
X9495401Y3598320D01*
Y3513680D01*
X9516561Y3492521D01*
X9558880D01*
X9580040Y3513680D01*
X9622360D02*
X9643519Y3492521D01*
X9685839D01*
X9706999Y3513680D01*
Y3598320D01*
X9685839Y3619479D01*
X9643519D01*
X9622360Y3598320D01*
Y3577160D01*
X9643519Y3556000D01*
X9706999D01*
X4119040Y2709320D02*
X4097880Y2730479D01*
X4055561D01*
X4034401Y2709320D01*
Y2624680D01*
X4055561Y2603521D01*
X4097880D01*
X4119040Y2624680D01*
X4161360Y2709320D02*
X4182519Y2730479D01*
X4224839D01*
X4245999Y2709320D01*
Y2688160D01*
X4224839Y2667000D01*
X4245999Y2645840D01*
Y2624680D01*
X4224839Y2603521D01*
X4182519D01*
X4161360Y2624680D01*
Y2645840D01*
X4182519Y2667000D01*
X4161360Y2688160D01*
Y2709320D01*
X4182519Y2667000D02*
X4224839D01*
X8995840Y2455320D02*
X8974680Y2476479D01*
X8932361D01*
X8911201Y2455320D01*
Y2370680D01*
X8932361Y2349521D01*
X8974680D01*
X8995840Y2370680D01*
X9038160Y2476479D02*
X9122799D01*
Y2455320D01*
X9038160Y2370680D01*
Y2349521D01*
X8183040Y3598320D02*
X8161880Y3619479D01*
X8119561D01*
X8098401Y3598320D01*
Y3513680D01*
X8119561Y3492521D01*
X8161880D01*
X8183040Y3513680D01*
X8309999Y3619479D02*
X8267679Y3598320D01*
X8225360Y3556000D01*
Y3513680D01*
X8246519Y3492521D01*
X8288839D01*
X8309999Y3513680D01*
Y3534840D01*
X8288839Y3556000D01*
X8225360D01*
X2150520Y2455320D02*
X2129360Y2476479D01*
X2087040D01*
X2065880Y2455320D01*
Y2370680D01*
X2087040Y2349521D01*
X2129360D01*
X2150520Y2370680D01*
X2277479Y2476479D02*
X2192839D01*
Y2413000D01*
X2235159Y2434160D01*
X2256319D01*
X2277479Y2413000D01*
Y2370680D01*
X2256319Y2349521D01*
X2213999D01*
X2192839Y2370680D01*
X2150520Y1947320D02*
X2129360Y1968479D01*
X2087040D01*
X2065880Y1947320D01*
Y1862680D01*
X2087040Y1841521D01*
X2129360D01*
X2150520Y1862680D01*
X2256319Y1841521D02*
Y1968479D01*
X2192839Y1905000D01*
X2277479D01*
X6957490Y2582320D02*
X6936330Y2603479D01*
X6894011D01*
X6872851Y2582320D01*
Y2497680D01*
X6894011Y2476521D01*
X6936330D01*
X6957490Y2497680D01*
X6999810Y2582320D02*
X7020969Y2603479D01*
X7063289D01*
X7084449Y2582320D01*
Y2561160D01*
X7063289Y2540000D01*
X7042129D01*
X7063289D01*
X7084449Y2518840D01*
Y2497680D01*
X7063289Y2476521D01*
X7020969D01*
X6999810Y2497680D01*
X6957490Y1947320D02*
X6936330Y1968479D01*
X6894011D01*
X6872851Y1947320D01*
Y1862680D01*
X6894011Y1841521D01*
X6936330D01*
X6957490Y1862680D01*
X7084449Y1841521D02*
X6999810D01*
X7084449Y1926160D01*
Y1947320D01*
X7063289Y1968479D01*
X7020969D01*
X6999810Y1947320D01*
X1207442Y1911510D02*
X1186282Y1932670D01*
X1143962D01*
X1122802Y1911510D01*
Y1826871D01*
X1143962Y1805711D01*
X1186282D01*
X1207442Y1826871D01*
X1249761Y1805711D02*
X1292081D01*
X1270921D01*
Y1932670D01*
X1249761Y1911510D01*
D16*
X5383000Y6256000D02*
X5793000D01*
X5383000Y5936020D02*
X5793000Y5935980D01*
D17*
X8128000Y5008831D02*
Y4881872D01*
X8153392Y4856480D01*
X8204175D01*
X8229567Y4881872D01*
Y5008831D01*
X8280351D02*
X8381918D01*
X8331134D01*
Y4856480D01*
X8432701D02*
Y5008831D01*
X8534269Y4856480D01*
Y5008831D01*
X8737403Y4932655D02*
X8838970D01*
X9143672Y5008831D02*
X9042104D01*
Y4932655D01*
X9092888D01*
X9042104D01*
Y4856480D01*
X9194455D02*
Y5008831D01*
X9270630D01*
X9296022Y4983439D01*
Y4932655D01*
X9270630Y4907263D01*
X9194455D01*
X9245239D02*
X9296022Y4856480D01*
X9346806Y5008831D02*
Y4856480D01*
X9422981D01*
X9448373Y4881872D01*
Y4907263D01*
X9422981Y4932655D01*
X9346806D01*
X9422981D01*
X9448373Y4958047D01*
Y4983439D01*
X9422981Y5008831D01*
X9346806D01*
X9499157Y4856480D02*
Y4958047D01*
X9549940Y5008831D01*
X9600724Y4958047D01*
Y4856480D01*
Y4932655D01*
X9499157D01*
D18*
X8890000Y6400800D02*
D03*
X9398000D02*
D03*
X7620000D02*
D03*
X8128000D02*
D03*
M02*
