G04*
G04 #@! TF.GenerationSoftware,Altium Limited,Altium Designer,23.3.1 (30)*
G04*
G04 Layer_Physical_Order=1*
G04 Layer_Color=255*
%FSLAX45Y45*%
%MOMM*%
G71*
G04*
G04 #@! TF.SameCoordinates,551D5C09-00C5-4FD8-83AD-956C1D01ED91*
G04*
G04*
G04 #@! TF.FilePolarity,Positive*
G04*
G01*
G75*
%ADD10C,0.25400*%
%ADD19R,0.60000X2.15000*%
%ADD20R,1.52400X1.42240*%
%ADD21R,1.42240X1.52400*%
%ADD22R,4.00000X6.00000*%
%ADD23R,1.10000X1.95000*%
%ADD24R,1.19380X0.30480*%
%ADD25R,0.30480X1.19380*%
%ADD26R,1.00000X1.30000*%
%ADD27R,1.62560X1.62560*%
%ADD28R,0.60000X0.95000*%
%ADD29R,1.90000X2.40000*%
%ADD30R,1.95000X2.30000*%
%ADD31R,2.40000X1.00000*%
%ADD32R,2.40000X3.30000*%
%ADD33R,6.69999X6.70000*%
%ADD34R,3.00000X1.60000*%
%ADD35R,1.40000X1.95000*%
%ADD36R,4.20000X2.35000*%
%ADD37R,1.60000X3.00000*%
%ADD38R,6.70000X6.69999*%
%ADD62C,0.63500*%
%ADD63C,0.38100*%
%ADD64C,1.27000*%
%ADD65C,6.00000*%
%ADD66O,3.00000X3.50000*%
%ADD67C,3.00000*%
%ADD68C,1.50000*%
%ADD69R,1.50000X1.50000*%
%ADD70C,0.81280*%
G36*
X4286940Y6187082D02*
X4314530Y6163642D01*
X4327902Y6154120D01*
X4340991Y6146062D01*
X4353798Y6139470D01*
X4366322Y6134343D01*
X4378564Y6130680D01*
X4390524Y6128483D01*
X4402201Y6127750D01*
Y6064250D01*
X4390524Y6063517D01*
X4378564Y6061320D01*
X4366322Y6057657D01*
X4353798Y6052530D01*
X4340991Y6045938D01*
X4327902Y6037880D01*
X4314530Y6028358D01*
X4300876Y6017370D01*
X4272721Y5991000D01*
Y6201000D01*
X4286940Y6187082D01*
D02*
G37*
G36*
X4058479Y5991000D02*
X4044260Y6004918D01*
X4016670Y6028358D01*
X4003298Y6037880D01*
X3990209Y6045938D01*
X3977402Y6052530D01*
X3964878Y6057657D01*
X3952636Y6061320D01*
X3940676Y6063517D01*
X3928999Y6064250D01*
Y6127750D01*
X3940676Y6128483D01*
X3952636Y6130680D01*
X3964878Y6134343D01*
X3977402Y6139470D01*
X3990209Y6146062D01*
X4003298Y6154120D01*
X4016670Y6163642D01*
X4030324Y6174630D01*
X4058479Y6201000D01*
Y5991000D01*
D02*
G37*
G36*
X2911842Y4727020D02*
X2919850Y4721716D01*
X2928606Y4717469D01*
X2938107Y4714278D01*
X2948356Y4712143D01*
X2959351Y4711064D01*
X2971093Y4711042D01*
X2983582Y4712076D01*
X2996817Y4714167D01*
X3010799Y4717314D01*
X2902686Y4609201D01*
X2905833Y4623183D01*
X2907924Y4636418D01*
X2908958Y4648907D01*
X2908936Y4660649D01*
X2907857Y4671644D01*
X2905722Y4681893D01*
X2902531Y4691394D01*
X2898284Y4700150D01*
X2892980Y4708158D01*
X2886620Y4715420D01*
X2904580Y4733380D01*
X2911842Y4727020D01*
D02*
G37*
G36*
X4077623Y3725782D02*
X4080392Y3715950D01*
X4085007Y3705147D01*
X4091468Y3693371D01*
X4099775Y3680623D01*
X4109928Y3666902D01*
X4135772Y3636546D01*
X4169000Y3602302D01*
X3959000D01*
X3976537Y3619910D01*
X4018072Y3666902D01*
X4028225Y3680623D01*
X4036532Y3693371D01*
X4042993Y3705147D01*
X4047608Y3715950D01*
X4050377Y3725782D01*
X4051300Y3734642D01*
X4076700D01*
X4077623Y3725782D01*
D02*
G37*
G36*
X3569631Y3725855D02*
X3572422Y3715959D01*
X3577075Y3705156D01*
X3583589Y3693448D01*
X3591964Y3680834D01*
X3602200Y3667314D01*
X3628255Y3637556D01*
X3644074Y3621318D01*
X3661755Y3604174D01*
X3451789Y3600394D01*
X3469176Y3618471D01*
X3510356Y3666467D01*
X3520422Y3680386D01*
X3528658Y3693265D01*
X3535064Y3705105D01*
X3539640Y3715905D01*
X3542385Y3725666D01*
X3543300Y3734387D01*
X3568700Y3734846D01*
X3569631Y3725855D01*
D02*
G37*
G36*
X762000Y5461000D02*
X1193800D01*
Y4394200D01*
X762000D01*
Y2362200D01*
X50800Y2362200D01*
Y6553200D01*
X762000D01*
Y5461000D01*
D02*
G37*
G36*
X1805226Y2144732D02*
X1796837Y2139595D01*
X1789436Y2134022D01*
X1783021Y2128014D01*
X1777593Y2121571D01*
X1773152Y2114691D01*
X1769698Y2107377D01*
X1767231Y2099626D01*
X1765750Y2091440D01*
X1765257Y2082819D01*
X1739857D01*
X1739363Y2091440D01*
X1737883Y2099626D01*
X1735416Y2107377D01*
X1731962Y2114691D01*
X1727521Y2121571D01*
X1722093Y2128014D01*
X1715678Y2134022D01*
X1708276Y2139595D01*
X1699888Y2144732D01*
X1690512Y2149433D01*
X1814602D01*
X1805226Y2144732D01*
D02*
G37*
G36*
X1639834Y1425301D02*
X1623157D01*
Y1292401D01*
Y1159501D01*
X1639834D01*
Y1041400D01*
X1295400D01*
Y1168400D01*
X1371600D01*
Y1498600D01*
X1639834D01*
Y1425301D01*
D02*
G37*
G36*
X4546600Y1498600D02*
X5054600D01*
Y50800D01*
X3068718D01*
Y1244600D01*
X3200400Y1244600D01*
X4216400D01*
Y2463800D01*
X4546600D01*
Y1498600D01*
D02*
G37*
G36*
X2159000Y1244600D02*
X3048000D01*
Y50800D01*
X1295400D01*
Y1020357D01*
X1371600D01*
X1374071Y1020682D01*
X1639834D01*
X1647763Y1022259D01*
X1654484Y1026750D01*
X1658975Y1033472D01*
X1660552Y1041400D01*
X1661172D01*
Y1498600D01*
X2159000D01*
Y1244600D01*
D02*
G37*
G36*
X5712730Y2889001D02*
X5759722Y2847466D01*
X5773442Y2837313D01*
X5786190Y2829006D01*
X5797966Y2822545D01*
X5808770Y2817930D01*
X5818602Y2815161D01*
X5827461Y2814238D01*
Y2788838D01*
X5818602Y2787915D01*
X5808770Y2785146D01*
X5797966Y2780531D01*
X5786190Y2774070D01*
X5773442Y2765763D01*
X5759722Y2755610D01*
X5729366Y2729766D01*
X5695121Y2696538D01*
Y2906538D01*
X5712730Y2889001D01*
D02*
G37*
G36*
X5480879Y2696538D02*
X5464397Y2712869D01*
X5419373Y2751546D01*
X5405839Y2761001D01*
X5393041Y2768736D01*
X5380979Y2774753D01*
X5369654Y2779050D01*
X5359066Y2781629D01*
X5349215Y2782488D01*
Y2820588D01*
X5359066Y2821448D01*
X5369654Y2824026D01*
X5380979Y2828324D01*
X5393041Y2834340D01*
X5405839Y2842076D01*
X5419373Y2851530D01*
X5433645Y2862704D01*
X5464397Y2890208D01*
X5480879Y2906538D01*
Y2696538D01*
D02*
G37*
G36*
X6070600Y2198220D02*
X6069721Y2197341D01*
X6060440Y2174936D01*
Y2150684D01*
X6069721Y2128279D01*
X6070600Y2127400D01*
Y1498600D01*
X6223000D01*
Y1244600D01*
X7103657D01*
Y1168400D01*
X7106537Y1146519D01*
X7112000Y1133331D01*
Y50800D01*
X5588000D01*
Y603620D01*
X5789520D01*
Y1244260D01*
X5653743D01*
Y1525805D01*
X5650863Y1547686D01*
X5646639Y1557882D01*
X5642417Y1568077D01*
X5628981Y1585586D01*
X5588000Y1626567D01*
Y2413000D01*
X6070600D01*
Y2198220D01*
D02*
G37*
G36*
X9855200Y2413000D02*
X9225407D01*
Y2545600D01*
X9224783Y2548734D01*
X9226381Y2550680D01*
X9226381D01*
Y2806320D01*
X9226381D01*
X9224783Y2808267D01*
X9225407Y2811400D01*
Y2870200D01*
X9855200D01*
Y2413000D01*
D02*
G37*
G36*
X9204689Y2811400D02*
X9188761D01*
Y2678500D01*
Y2545600D01*
X9204689D01*
Y2057400D01*
X9652000D01*
Y1270000D01*
X8915400D01*
Y2133600D01*
X8619643D01*
Y2870200D01*
X9204689D01*
Y2811400D01*
D02*
G37*
G36*
X8788400Y1270000D02*
X8610600D01*
Y689827D01*
X8599771Y683191D01*
X8572960Y696852D01*
X8525009Y712433D01*
X8475210Y720320D01*
X8424790D01*
X8374992Y712433D01*
X8327040Y696852D01*
X8282116Y673962D01*
X8241326Y644326D01*
X8205674Y608674D01*
X8176038Y567884D01*
X8153148Y522960D01*
X8137567Y475008D01*
X8129680Y425210D01*
Y374790D01*
X8137567Y324991D01*
X8153148Y277040D01*
X8176038Y232116D01*
X8205674Y191326D01*
X8241326Y155674D01*
X8282116Y126038D01*
X8327040Y103148D01*
X8374992Y87567D01*
X8424790Y79680D01*
X8475210D01*
X8525009Y87567D01*
X8572960Y103148D01*
X8599771Y116809D01*
X8610600Y110173D01*
Y50800D01*
X7132718D01*
Y1133331D01*
X7131141Y1141259D01*
X7126722Y1151927D01*
X7124375Y1169758D01*
Y1244600D01*
X8001000D01*
Y2057400D01*
X8788400D01*
Y1270000D01*
D02*
G37*
G36*
X9315938Y6085564D02*
X9303202Y6070972D01*
X9298028Y6064057D01*
X9293650Y6057394D01*
X9290068Y6050985D01*
X9287282Y6044830D01*
X9285292Y6038927D01*
X9284098Y6033279D01*
X9283700Y6027883D01*
X9258300D01*
X9257902Y6033279D01*
X9256708Y6038927D01*
X9254718Y6044830D01*
X9251932Y6050985D01*
X9248350Y6057394D01*
X9243972Y6064057D01*
X9238798Y6070972D01*
X9226062Y6085564D01*
X9218500Y6093239D01*
X9323500D01*
X9315938Y6085564D01*
D02*
G37*
G36*
X9061938D02*
X9049202Y6070972D01*
X9044028Y6064057D01*
X9039650Y6057394D01*
X9036068Y6050985D01*
X9033282Y6044830D01*
X9031292Y6038927D01*
X9030098Y6033279D01*
X9029700Y6027883D01*
X9004300D01*
X9003902Y6033279D01*
X9002708Y6038927D01*
X9000718Y6044830D01*
X8997932Y6050985D01*
X8994350Y6057394D01*
X8989972Y6064057D01*
X8984798Y6070972D01*
X8972062Y6085564D01*
X8964500Y6093239D01*
X9069500D01*
X9061938Y6085564D01*
D02*
G37*
G36*
X7791938D02*
X7779202Y6070972D01*
X7774028Y6064057D01*
X7769650Y6057394D01*
X7766068Y6050985D01*
X7763282Y6044830D01*
X7761292Y6038927D01*
X7760098Y6033279D01*
X7759700Y6027883D01*
X7734300D01*
X7733902Y6033279D01*
X7732708Y6038927D01*
X7730718Y6044830D01*
X7727932Y6050985D01*
X7724350Y6057394D01*
X7719972Y6064057D01*
X7714798Y6070972D01*
X7702062Y6085564D01*
X7694500Y6093239D01*
X7799500D01*
X7791938Y6085564D01*
D02*
G37*
G36*
X8053256Y6093002D02*
X8045676Y6085374D01*
X8032909Y6070860D01*
X8027723Y6063972D01*
X8023334Y6057331D01*
X8019743Y6050937D01*
X8016951Y6044789D01*
X8014956Y6038888D01*
X8013759Y6033233D01*
X8013360Y6027825D01*
X7987960Y6027942D01*
X7987563Y6033325D01*
X7986372Y6038969D01*
X7984387Y6044872D01*
X7981608Y6051035D01*
X7978034Y6057459D01*
X7973667Y6064142D01*
X7968506Y6071086D01*
X7955801Y6085754D01*
X7948258Y6093478D01*
X8053256Y6093002D01*
D02*
G37*
G36*
X8724669Y4067697D02*
X8662786Y3998679D01*
X8658488Y3991854D01*
X8655910Y3986366D01*
X8655050Y3982215D01*
X8616950D01*
X8616090Y3986366D01*
X8613512Y3991854D01*
X8609214Y3998679D01*
X8603198Y4006841D01*
X8586008Y4027173D01*
X8547331Y4067697D01*
X8531000Y4083879D01*
X8741000D01*
X8724669Y4067697D01*
D02*
G37*
%LPC*%
G36*
X747400Y6236400D02*
X637200D01*
Y6108700D01*
X747400D01*
Y6236400D01*
D02*
G37*
G36*
X611800D02*
X501600D01*
Y6108700D01*
X611800D01*
Y6236400D01*
D02*
G37*
G36*
X747400Y6083300D02*
X637200D01*
Y5955600D01*
X747400D01*
Y6083300D01*
D02*
G37*
G36*
X611800D02*
X501600D01*
Y5955600D01*
X611800D01*
Y6083300D01*
D02*
G37*
G36*
X749300Y5811520D02*
X660400D01*
Y5727700D01*
X749300D01*
Y5811520D01*
D02*
G37*
G36*
X635000D02*
X546100D01*
Y5727700D01*
X635000D01*
Y5811520D01*
D02*
G37*
G36*
X749300Y5702300D02*
X660400D01*
Y5618480D01*
X749300D01*
Y5702300D01*
D02*
G37*
G36*
X635000D02*
X546100D01*
Y5618480D01*
X635000D01*
Y5702300D01*
D02*
G37*
G36*
X1142554Y5313400D02*
X794854D01*
Y4965700D01*
X1142554D01*
Y5313400D01*
D02*
G37*
G36*
X769454D02*
X421755D01*
Y4965700D01*
X769454D01*
Y5313400D01*
D02*
G37*
G36*
X1142554Y4940300D02*
X794854D01*
Y4592600D01*
X1142554D01*
Y4940300D01*
D02*
G37*
G36*
X769454D02*
X421755D01*
Y4592600D01*
X769454D01*
Y4940300D01*
D02*
G37*
G36*
X680054Y3952900D02*
X457354D01*
Y3822700D01*
X680054D01*
Y3952900D01*
D02*
G37*
G36*
X431954D02*
X209255D01*
Y3822700D01*
X431954D01*
Y3952900D01*
D02*
G37*
G36*
X680054Y3797300D02*
X457354D01*
Y3667100D01*
X680054D01*
Y3797300D01*
D02*
G37*
G36*
X431954D02*
X209255D01*
Y3667100D01*
X431954D01*
Y3797300D01*
D02*
G37*
G36*
X668400Y2884380D02*
X445700D01*
Y2754180D01*
X668400D01*
Y2884380D01*
D02*
G37*
G36*
X420300D02*
X197600D01*
Y2754180D01*
X420300D01*
Y2884380D01*
D02*
G37*
G36*
X668400Y2728780D02*
X445700D01*
Y2598580D01*
X668400D01*
Y2728780D01*
D02*
G37*
G36*
X420300D02*
X197600D01*
Y2598580D01*
X420300D01*
Y2728780D01*
D02*
G37*
G36*
X1538856Y1425301D02*
X1496157D01*
Y1305101D01*
X1538856D01*
Y1425301D01*
D02*
G37*
G36*
X1470757D02*
X1428057D01*
Y1305101D01*
X1470757D01*
Y1425301D01*
D02*
G37*
G36*
X1597757D02*
X1555057D01*
Y1305101D01*
X1597757D01*
Y1425301D01*
D02*
G37*
G36*
Y1279701D02*
X1555057D01*
Y1159501D01*
X1597757D01*
Y1279701D01*
D02*
G37*
G36*
X1538856D02*
X1496157D01*
Y1159501D01*
X1538856D01*
Y1279701D01*
D02*
G37*
G36*
X1470757D02*
X1428057D01*
Y1159501D01*
X1470757D01*
Y1279701D01*
D02*
G37*
G36*
X4508500Y2392680D02*
X4414520D01*
Y2298700D01*
X4508500D01*
Y2392680D01*
D02*
G37*
G36*
X4389120D02*
X4295140D01*
Y2298700D01*
X4389120D01*
Y2392680D01*
D02*
G37*
G36*
X4508500Y2273300D02*
X4414520D01*
Y2179320D01*
X4508500D01*
Y2273300D01*
D02*
G37*
G36*
X4389120D02*
X4295140D01*
Y2179320D01*
X4389120D01*
Y2273300D01*
D02*
G37*
G36*
X4437400Y2027900D02*
X4369700D01*
Y1917700D01*
X4437400D01*
Y2027900D01*
D02*
G37*
G36*
X4344300D02*
X4276600D01*
Y1917700D01*
X4344300D01*
Y2027900D01*
D02*
G37*
G36*
X4437400Y1892300D02*
X4369700D01*
Y1782100D01*
X4437400D01*
Y1892300D01*
D02*
G37*
G36*
X4344300D02*
X4276600D01*
Y1782100D01*
X4344300D01*
Y1892300D01*
D02*
G37*
G36*
X4804600Y1249340D02*
X4591900D01*
Y936640D01*
X4804600D01*
Y1249340D01*
D02*
G37*
G36*
X4566500D02*
X4353800D01*
Y936640D01*
X4566500D01*
Y1249340D01*
D02*
G37*
G36*
X3916400Y1170899D02*
X3568700D01*
Y823200D01*
X3916400D01*
Y1170899D01*
D02*
G37*
G36*
X3543300D02*
X3195600D01*
Y823200D01*
X3543300D01*
Y1170899D01*
D02*
G37*
G36*
X4804600Y911240D02*
X4591900D01*
Y598540D01*
X4804600D01*
Y911240D01*
D02*
G37*
G36*
X4566500D02*
X4353800D01*
Y598540D01*
X4566500D01*
Y911240D01*
D02*
G37*
G36*
X3916400Y797800D02*
X3568700D01*
Y450101D01*
X3916400D01*
Y797800D01*
D02*
G37*
G36*
X3543300D02*
X3195600D01*
Y450101D01*
X3543300D01*
Y797800D01*
D02*
G37*
G36*
X1919856Y1425301D02*
X1877157D01*
Y1305101D01*
X1919856D01*
Y1425301D01*
D02*
G37*
G36*
X1792856D02*
X1750157D01*
Y1305101D01*
X1792856D01*
Y1425301D01*
D02*
G37*
G36*
X1851757D02*
X1809057D01*
Y1305101D01*
X1851757D01*
Y1425301D01*
D02*
G37*
G36*
X1724757D02*
X1682057D01*
Y1305101D01*
X1724757D01*
Y1425301D01*
D02*
G37*
G36*
X1919856Y1279701D02*
X1877157D01*
Y1159501D01*
X1919856D01*
Y1279701D01*
D02*
G37*
G36*
X1851757D02*
X1809057D01*
Y1159501D01*
X1851757D01*
Y1279701D01*
D02*
G37*
G36*
X1792856D02*
X1750157D01*
Y1159501D01*
X1792856D01*
Y1279701D01*
D02*
G37*
G36*
X1724757D02*
X1682057D01*
Y1159501D01*
X1724757D01*
Y1279701D01*
D02*
G37*
G36*
X2900400Y1170899D02*
X2552700D01*
Y823200D01*
X2900400D01*
Y1170899D01*
D02*
G37*
G36*
X2527300D02*
X2179600D01*
Y823200D01*
X2527300D01*
Y1170899D01*
D02*
G37*
G36*
X1691232Y677678D02*
X1686657D01*
Y514978D01*
X1849356D01*
Y519553D01*
X1842616Y553440D01*
X1829394Y585361D01*
X1810199Y614089D01*
X1785767Y638520D01*
X1757039Y657715D01*
X1725119Y670937D01*
X1691232Y677678D01*
D02*
G37*
G36*
X1661257D02*
X1656681D01*
X1622794Y670937D01*
X1590874Y657715D01*
X1562146Y638520D01*
X1537714Y614089D01*
X1518519Y585361D01*
X1505297Y553440D01*
X1498557Y519553D01*
Y514978D01*
X1661257D01*
Y677678D01*
D02*
G37*
G36*
X2900400Y797800D02*
X2552700D01*
Y450101D01*
X2900400D01*
Y797800D01*
D02*
G37*
G36*
X2527300D02*
X2179600D01*
Y450101D01*
X2527300D01*
Y797800D01*
D02*
G37*
G36*
X1849356Y489578D02*
X1686657D01*
Y326878D01*
X1691232D01*
X1725119Y333619D01*
X1757039Y346841D01*
X1785767Y366036D01*
X1810199Y390467D01*
X1829394Y419195D01*
X1842616Y451116D01*
X1849356Y485003D01*
Y489578D01*
D02*
G37*
G36*
X1661257D02*
X1498557D01*
Y485003D01*
X1505297Y451116D01*
X1518519Y419195D01*
X1537714Y390467D01*
X1562146Y366036D01*
X1590874Y346841D01*
X1622794Y333619D01*
X1656681Y326878D01*
X1661257D01*
Y489578D01*
D02*
G37*
G36*
X5803900Y2382520D02*
X5715000D01*
Y2298700D01*
X5803900D01*
Y2382520D01*
D02*
G37*
G36*
X5689600D02*
X5600700D01*
Y2298700D01*
X5689600D01*
Y2382520D01*
D02*
G37*
G36*
X5803900Y2273300D02*
X5715000D01*
Y2189480D01*
X5803900D01*
Y2273300D01*
D02*
G37*
G36*
X5689600D02*
X5600700D01*
Y2189480D01*
X5689600D01*
Y2273300D01*
D02*
G37*
G36*
X5843320Y2036339D02*
X5607680D01*
Y1765699D01*
X5640956D01*
Y1701800D01*
X5643837Y1679919D01*
X5652283Y1659528D01*
X5665719Y1642019D01*
X5683228Y1628583D01*
X5703619Y1620137D01*
X5725500Y1617257D01*
X5747381Y1620137D01*
X5767772Y1628583D01*
X5785281Y1642019D01*
X5798717Y1659528D01*
X5807162Y1679919D01*
X5810043Y1701800D01*
Y1765699D01*
X5843320D01*
Y1820457D01*
X5867400D01*
X5889281Y1823337D01*
X5909672Y1831783D01*
X5927181Y1845219D01*
X5940617Y1862728D01*
X5949063Y1883119D01*
X5951943Y1905000D01*
X5949063Y1926881D01*
X5940617Y1947272D01*
X5927181Y1964781D01*
X5909672Y1978217D01*
X5889281Y1986663D01*
X5867400Y1989543D01*
X5843320D01*
Y2036339D01*
D02*
G37*
G36*
X6964400Y1170899D02*
X6616700D01*
Y823200D01*
X6964400D01*
Y1170899D01*
D02*
G37*
G36*
X6591300D02*
X6243600D01*
Y823200D01*
X6591300D01*
Y1170899D01*
D02*
G37*
G36*
X6964400Y797800D02*
X6616700D01*
Y450101D01*
X6964400D01*
Y797800D01*
D02*
G37*
G36*
X6591300D02*
X6243600D01*
Y450101D01*
X6591300D01*
Y797800D01*
D02*
G37*
G36*
X9358461Y2811400D02*
X9315761D01*
Y2691200D01*
X9358461D01*
Y2811400D01*
D02*
G37*
G36*
X9485461D02*
X9442761D01*
Y2691200D01*
X9485461D01*
Y2811400D01*
D02*
G37*
G36*
X9290361D02*
X9247661D01*
Y2691200D01*
X9290361D01*
Y2811400D01*
D02*
G37*
G36*
X9417361D02*
X9374661D01*
Y2691200D01*
X9417361D01*
Y2811400D01*
D02*
G37*
G36*
X9485461Y2665800D02*
X9442761D01*
Y2545600D01*
X9485461D01*
Y2665800D01*
D02*
G37*
G36*
X9417361D02*
X9374661D01*
Y2545600D01*
X9417361D01*
Y2665800D01*
D02*
G37*
G36*
X9358461D02*
X9315761D01*
Y2545600D01*
X9358461D01*
Y2665800D01*
D02*
G37*
G36*
X9290361D02*
X9247661D01*
Y2545600D01*
X9290361D01*
Y2665800D01*
D02*
G37*
G36*
X9104461Y2811400D02*
X9061761D01*
Y2691200D01*
X9104461D01*
Y2811400D01*
D02*
G37*
G36*
X9163361D02*
X9120661D01*
Y2691200D01*
X9163361D01*
Y2811400D01*
D02*
G37*
G36*
X9036361D02*
X8993661D01*
Y2691200D01*
X9036361D01*
Y2811400D01*
D02*
G37*
G36*
X9163361Y2665800D02*
X9120661D01*
Y2545600D01*
X9163361D01*
Y2665800D01*
D02*
G37*
G36*
X9104461D02*
X9061761D01*
Y2545600D01*
X9104461D01*
Y2665800D01*
D02*
G37*
G36*
X9036361D02*
X8993661D01*
Y2545600D01*
X9036361D01*
Y2665800D01*
D02*
G37*
G36*
X8896400Y2553400D02*
X8786200D01*
Y2425700D01*
X8896400D01*
Y2553400D01*
D02*
G37*
G36*
X8760800D02*
X8650600D01*
Y2425700D01*
X8760800D01*
Y2553400D01*
D02*
G37*
G36*
X8896400Y2400300D02*
X8786200D01*
Y2272600D01*
X8896400D01*
Y2400300D01*
D02*
G37*
G36*
X8760800D02*
X8650600D01*
Y2272600D01*
X8760800D01*
Y2400300D01*
D02*
G37*
G36*
X9614800Y1989100D02*
X9402100D01*
Y1676400D01*
X9614800D01*
Y1989100D01*
D02*
G37*
G36*
X9376700D02*
X9164000D01*
Y1676400D01*
X9376700D01*
Y1989100D01*
D02*
G37*
G36*
X9614800Y1651000D02*
X9402100D01*
Y1338300D01*
X9614800D01*
Y1651000D01*
D02*
G37*
G36*
X9376700D02*
X9164000D01*
Y1338300D01*
X9376700D01*
Y1651000D01*
D02*
G37*
G36*
X8624800Y1989100D02*
X8412100D01*
Y1676400D01*
X8624800D01*
Y1989100D01*
D02*
G37*
G36*
X8386700D02*
X8174000D01*
Y1676400D01*
X8386700D01*
Y1989100D01*
D02*
G37*
G36*
X8624800Y1651000D02*
X8412100D01*
Y1338300D01*
X8624800D01*
Y1651000D01*
D02*
G37*
G36*
X8386700D02*
X8174000D01*
Y1338300D01*
X8386700D01*
Y1651000D01*
D02*
G37*
G36*
X7980400Y1170899D02*
X7632700D01*
Y823200D01*
X7980400D01*
Y1170899D01*
D02*
G37*
G36*
X7607300D02*
X7259600D01*
Y823200D01*
X7607300D01*
Y1170899D01*
D02*
G37*
G36*
X7980400Y797800D02*
X7632700D01*
Y450101D01*
X7980400D01*
Y797800D01*
D02*
G37*
G36*
X7607300D02*
X7259600D01*
Y450101D01*
X7607300D01*
Y797800D01*
D02*
G37*
%LPD*%
D10*
X8000660Y4698660D02*
Y6146460D01*
X7975260Y4673260D02*
X8000660Y4698660D01*
X6015880Y4673260D02*
X7975260D01*
X6015540Y4672920D02*
X6015880Y4673260D01*
X8000660Y6146460D02*
X8001000Y6146800D01*
X7721600Y4749800D02*
X7747000Y4775200D01*
X6146800Y4749800D02*
X7721600D01*
X7747000Y4775200D02*
Y6146800D01*
X6248400Y4826000D02*
X7315200D01*
X9017000Y4622800D02*
Y6146800D01*
X8991600Y4597400D02*
X9017000Y4622800D01*
X6248400Y4597400D02*
X8991600D01*
X9256121Y4546600D02*
X9271000Y4561479D01*
X6324600Y4546600D02*
X6397283D01*
X6399823Y4549140D01*
X7824177D01*
X9271000Y4561479D02*
Y6146800D01*
X7824177Y4549140D02*
X7826717Y4546600D01*
X9256121D01*
X5088504Y5223896D02*
X5164564D01*
X5165540Y5222920D01*
X5039892Y5272508D02*
X5088504Y5223896D01*
X5039892Y5272508D02*
Y5323308D01*
X4686300Y5207000D02*
X4887321D01*
X4686300Y5461000D02*
X4936863D01*
X4902200Y5037799D02*
Y5192121D01*
X4887321Y5207000D02*
X4902200Y5192121D01*
X5025432Y5172920D02*
X5165540D01*
X4936863Y5461000D02*
X4951742Y5446121D01*
X4902200Y5037799D02*
X4917079Y5022920D01*
X5025402Y5172951D02*
X5025432Y5172920D01*
X4951742Y5089057D02*
X4967879Y5072920D01*
X4951742Y5089057D02*
Y5446121D01*
X5029200Y5334000D02*
X5039892Y5323308D01*
X3364092Y2910908D02*
Y3092576D01*
X3362684Y3093984D02*
X3364092Y3092576D01*
Y2910908D02*
X3365500Y2909500D01*
X4064000Y3175000D02*
X6182721D01*
X6197600Y2935879D02*
Y3160121D01*
X3937000Y3175000D02*
X4064000D01*
X6182721D02*
X6197600Y3160121D01*
X3886200Y3225800D02*
X3937000Y3175000D01*
X3154740Y3225800D02*
X3886200D01*
X7734300Y3937000D02*
X7739009Y3932291D01*
X4159751Y4192751D02*
Y4314194D01*
X4159000Y4192000D02*
X4159751Y4192751D01*
Y4314194D02*
X4160502Y4314945D01*
X3460987Y4192013D02*
X3461000Y4192000D01*
X3460974Y4317326D02*
X3460987Y4317313D01*
Y4192013D02*
Y4317313D01*
X3969000Y4192000D02*
X3969572Y4192571D01*
Y4310629D02*
X3970143Y4311200D01*
X3969572Y4192571D02*
Y4310629D01*
X6718300Y5969000D02*
X7086600D01*
X6720125Y5700475D02*
X6902574D01*
X6718300Y5702300D02*
X6720125Y5700475D01*
X6718300Y5461000D02*
X6721601Y5457699D01*
X6718300Y5207000D02*
X6721601Y5203699D01*
X6903843D01*
X6908800Y5080000D02*
Y5198742D01*
X6903843Y5203699D02*
X6908800Y5198742D01*
X6721601Y5457699D02*
X6903843D01*
X6903273Y4445000D02*
X6904920Y4443354D01*
X6858000Y4445000D02*
X6903273D01*
X6299200Y4521200D02*
X6324600Y4546600D01*
X7429886Y3068877D02*
X7430272Y3069263D01*
X7429500Y2909500D02*
X7429886Y2909886D01*
Y3068877D01*
X6096000Y5882279D02*
Y5981700D01*
X5943600Y5882279D02*
Y6070600D01*
Y5882279D02*
X5958479Y5867400D01*
X6081121D01*
X6096000Y5882279D01*
X5080000D02*
X5094879Y5867400D01*
X5217521D01*
X5232400Y5882279D02*
Y6070600D01*
X5217521Y5867400D02*
X5232400Y5882279D01*
X5080000D02*
Y5981700D01*
X7315200Y3810000D02*
X9245600D01*
X7264400Y3759200D02*
X7315200Y3810000D01*
X7264400Y3581400D02*
Y3759200D01*
X7239000Y3556000D02*
X7264400Y3581400D01*
X6718300Y3556000D02*
X7239000D01*
X9175955Y3163606D02*
Y3329447D01*
Y3163606D02*
X9176061Y3163500D01*
X9175850Y3329552D02*
X9175955Y3329447D01*
X3200400Y5715000D02*
X3600804D01*
X2202500Y3461700D02*
Y3810000D01*
X2235200Y3429000D02*
X3302000D01*
X2202500Y3461700D02*
X2235200Y3429000D01*
X6858000Y4332879D02*
Y4445000D01*
X6883400Y3175000D02*
Y3287121D01*
Y3062879D02*
Y3175000D01*
X4851400Y5715000D02*
X5450661D01*
X4686300D02*
X4851400D01*
X4292600Y4445000D02*
X4457700D01*
X7683500Y2424500D02*
X7684662Y2423338D01*
Y2243832D02*
Y2423338D01*
Y2243832D02*
X7685824Y2242671D01*
X3175000Y3175000D02*
X3416676D01*
X3489276Y3102400D01*
X3149600Y3149600D02*
X3175000Y3175000D01*
X3149600Y2935879D02*
Y3149600D01*
X3490888Y2911112D02*
X3492500Y2909500D01*
X3490888Y2911112D02*
Y3100788D01*
X6197600Y2935879D02*
X6212479Y2921000D01*
X7249521D01*
X7264400Y3134721D02*
X7279279Y3149600D01*
X7541621D01*
X7556500Y3134721D01*
X7264400Y2935879D02*
Y3134721D01*
X7556500Y2909500D02*
Y3134721D01*
X7249521Y2921000D02*
X7264400Y2935879D01*
X6324600Y3048000D02*
Y3302000D01*
Y3048000D02*
X6489700D01*
X6324600Y3302000D02*
X6489700D01*
X4953000D02*
X6324600D01*
Y2794000D02*
X6489700D01*
X3429000Y3302000D02*
X4775200D01*
X4902200Y3429000D01*
X5473700D01*
X6113862Y2801538D02*
X6248400Y2667000D01*
X5588000Y2801538D02*
X6113862D01*
X6248400Y2667000D02*
X6843121D01*
X7390000Y1475500D02*
X7391400Y1476900D01*
X6843121Y2667000D02*
X6858000Y2681879D01*
X6843121Y2794000D02*
X6858000Y2779121D01*
X6718300Y2794000D02*
X6843121D01*
X6858000Y2681879D02*
Y2779121D01*
X6718300Y3048000D02*
X6868521D01*
X6883400Y3062879D01*
X6868521Y3302000D02*
X6883400Y3287121D01*
X6718300Y3302000D02*
X6868521D01*
X6324600Y2540000D02*
X6489700D01*
X3326000Y1475500D02*
X3327400Y1476900D01*
X1930400Y4739279D02*
Y4902200D01*
X2895600Y4724400D02*
X3048000Y4572000D01*
X1945279Y4724400D02*
X2895600D01*
X1930400Y4739279D02*
X1945279Y4724400D01*
X2654300Y3175000D02*
X3103940D01*
X3154740Y3225800D01*
X2654300Y2921000D02*
X3134721D01*
X3149600Y2935879D01*
X3302000Y3429000D02*
X3429000Y3302000D01*
X1828800Y3327400D02*
X3251200D01*
X4064000Y3495180D02*
Y3937000D01*
X6375400Y5588000D02*
X7086600D01*
X6248400Y4445000D02*
X6489700D01*
X5880419D02*
X6248400D01*
X6350000Y5334000D02*
X7086600D01*
X5842000Y4318000D02*
X6843121D01*
X5815540Y4344460D02*
Y4522920D01*
X6843121Y4318000D02*
X6858000Y4332879D01*
X5815540Y4344460D02*
X5842000Y4318000D01*
X6324600Y3581400D02*
X6350000Y3556000D01*
X6324600Y3581400D02*
Y3810000D01*
X6350000Y3556000D02*
X6489700D01*
X6483350Y3041650D02*
X6489700Y3048000D01*
X5029200Y4648200D02*
X5053920Y4672920D01*
X5029200Y4241800D02*
Y4648200D01*
X5410200Y4114800D02*
X6299200D01*
X6324600Y4064000D02*
Y4089400D01*
X6299200Y4114800D02*
X6324600Y4089400D01*
Y3810000D02*
X6512226D01*
X6324600D02*
Y4064000D01*
X6489700D01*
X5865540Y4459879D02*
Y4522920D01*
Y4459879D02*
X5880419Y4445000D01*
X5053920Y4672920D02*
X5165540D01*
X5163800Y4724660D02*
X5165540Y4722920D01*
X5044321Y4749800D02*
X5069461Y4724660D01*
X5163800D01*
X5029200Y4749800D02*
X5044321D01*
X4912721Y5867400D02*
X4927600Y5852521D01*
X4343400Y5867400D02*
X4912721D01*
X4942479Y5765800D02*
X5486400D01*
X4927600Y5780679D02*
Y5852521D01*
Y5780679D02*
X4942479Y5765800D01*
X3556000Y3497880D02*
X3558700Y3495180D01*
X3556000Y3497880D02*
Y3937000D01*
X3651000Y4192000D02*
Y4557121D01*
X3665879Y4572000D01*
X4089400D01*
X1610457Y1777401D02*
Y2042257D01*
X1727138Y2057400D02*
X1752557Y2082819D01*
X1610457Y2042257D02*
X1625600Y2057400D01*
X1727138D01*
X1803400Y1955800D02*
X1854200D01*
X3429000Y5334000D02*
Y5435600D01*
Y5232400D02*
Y5334000D01*
X1854200Y1955800D02*
X1864457Y1945543D01*
Y1777401D02*
Y1945543D01*
X1752600Y1955800D02*
X1803400D01*
X1737457Y1777401D02*
Y1940657D01*
X1752600Y1955800D01*
X1752557Y2082819D02*
Y2286000D01*
X3454400Y5461000D02*
X3600804D01*
X3429000Y5435600D02*
X3454400Y5461000D01*
X3429000Y5232400D02*
X3454400Y5207000D01*
X3600804D01*
X7899400Y4216400D02*
Y4318000D01*
X7734300Y4191000D02*
X7874000D01*
X7899400Y4216400D01*
Y4318000D02*
Y4419600D01*
X7874000Y4445000D02*
X7899400Y4419600D01*
X7734300Y4445000D02*
X7874000D01*
X6146800Y4521200D02*
X6299200D01*
X7315200Y4191000D02*
Y4445000D01*
X7505700D01*
X7315200Y3951879D02*
X7330079Y3937000D01*
X7315200Y3951879D02*
Y4191000D01*
X7330079Y3937000D02*
X7505700D01*
X7315200Y4191000D02*
X7505700D01*
X6290601Y5022920D02*
X6360521Y4953000D01*
X6489700D01*
X5308600D02*
X5315540Y4959940D01*
Y5372920D01*
X5365540Y5088981D02*
Y5372920D01*
Y5088981D02*
X5410200Y5044321D01*
Y5029200D02*
Y5044321D01*
X6868521Y3810000D02*
X6883400Y3824879D01*
Y3937000D01*
X6718300Y3810000D02*
X6868521D01*
X6880860Y3939540D02*
Y4041140D01*
X6718300Y4064000D02*
X6858000D01*
X6880860Y4041140D01*
Y3939540D02*
X6883400Y3937000D01*
X5565540Y5280260D02*
Y5372920D01*
Y5280260D02*
X5588000Y5257800D01*
X5836415D01*
X5334000Y3683000D02*
X5473700D01*
X5207000D02*
X5334000D01*
Y3911600D01*
X5359400Y3937000D01*
X5473700D01*
X5867400Y3683000D02*
Y3810000D01*
Y3454400D02*
Y3683000D01*
X5702300D02*
X5867400D01*
X5702300Y3429000D02*
X5842000D01*
X5867400Y3454400D01*
X5702300Y3937000D02*
X5842000D01*
X5867400Y3810000D02*
Y3911600D01*
X5842000Y3937000D02*
X5867400Y3911600D01*
X6908800Y4978400D02*
Y5080000D01*
X6883400Y4953000D02*
X6908800Y4978400D01*
X6718300Y4953000D02*
X6883400D01*
X5765670Y4825870D02*
X5765800Y4826000D01*
X5765670Y4523050D02*
Y4825870D01*
X5615540Y4620710D02*
X5664200Y4669370D01*
Y4749800D01*
X5615540Y4522920D02*
Y4620710D01*
X5564070Y4524390D02*
X5565540Y4522920D01*
X5564070Y4524390D02*
Y4672130D01*
X5562600Y4673600D02*
X5564070Y4672130D01*
X6718300Y4445000D02*
X6858000D01*
X5765540Y4522920D02*
X5765670Y4523050D01*
X3987800Y5588000D02*
Y5689600D01*
Y5461000D02*
Y5588000D01*
Y5232400D02*
Y5461000D01*
X3829404D02*
X3987800D01*
X3829404Y5207000D02*
X3962400D01*
X3987800Y5232400D01*
X3829404Y5715000D02*
X3962400D01*
X3987800Y5689600D01*
Y5588000D02*
X5384800D01*
X5415540Y5557260D01*
Y5372920D02*
Y5557260D01*
X4089400Y5461000D02*
X4457700D01*
X4216400Y5207000D02*
X4457700D01*
X3825104Y4699000D02*
X4457700D01*
X3825104Y4953000D02*
X4457700D01*
X3479800Y4724400D02*
X3505200Y4699000D01*
X3479800Y4724400D02*
Y4826000D01*
X3505200Y4699000D02*
X3605104D01*
X3479800Y4826000D02*
Y4927600D01*
X3505200Y4953000D01*
X3605104D01*
X4318000Y5715000D02*
Y5842000D01*
Y5715000D02*
X4457700D01*
X4191000D02*
X4318000D01*
Y5842000D02*
X4343400Y5867400D01*
X5486400Y5765800D02*
X5515540Y5736660D01*
Y5372920D02*
Y5736660D01*
X5465540Y5372920D02*
Y5700121D01*
X5450661Y5715000D02*
X5465540Y5700121D01*
X5615540Y5372920D02*
Y5789060D01*
X5665540Y5792540D02*
X5691400Y5818400D01*
X5665540Y5372920D02*
Y5792540D01*
X5691400Y5818400D02*
X5767600D01*
X5586200Y5818400D02*
X5615540Y5789060D01*
X6324600Y5222920D02*
X6334080D01*
X6015540D02*
X6324600D01*
Y5308600D01*
X6350000Y5334000D01*
Y5461000D02*
X6489700D01*
X5880419D02*
X6350000D01*
Y5562600D02*
X6375400Y5588000D01*
X6350000Y5461000D02*
Y5562600D01*
Y5689600D02*
X6477000D01*
X5842000D02*
X6350000D01*
Y5943600D01*
X6375400Y5969000D01*
X6489700D01*
X6477000Y5689600D02*
X6489700Y5702300D01*
X5836415Y5257800D02*
X5841273Y5252942D01*
X5865540Y5446121D02*
X5880419Y5461000D01*
X5865540Y5372920D02*
Y5446121D01*
X6350000Y5080000D02*
X6908800D01*
X6324600Y5105400D02*
X6350000Y5080000D01*
X6324600Y5105400D02*
Y5156200D01*
X6015540Y5172920D02*
X6307880D01*
X6324600Y5156200D01*
X6350000Y5207000D02*
X6489700D01*
X6334080Y5222920D02*
X6350000Y5207000D01*
X6015540Y5022920D02*
X6290601D01*
X4967879Y5072920D02*
X5165540D01*
X4917079Y5022920D02*
X5165540D01*
X4953000Y4459879D02*
Y4851400D01*
X4974520Y4872920D02*
X5165540D01*
X4953000Y4851400D02*
X4974520Y4872920D01*
X4686300Y4445000D02*
X4938121D01*
X4953000Y4459879D01*
X4902200Y4908041D02*
X4917079Y4922920D01*
X4902200Y4713879D02*
Y4908041D01*
X4851400Y4953000D02*
X4871320Y4972920D01*
X4917079Y4922920D02*
X5165540D01*
X4686300Y4953000D02*
X4851400D01*
X4871320Y4972920D02*
X5165540D01*
X4686300Y4699000D02*
X4887321D01*
X4902200Y4713879D01*
X5564070Y4521450D02*
X5565540Y4522920D01*
X5408400Y5818400D02*
X5586200D01*
X5383000Y5843800D02*
X5408400Y5818400D01*
X5383000Y5843800D02*
Y6096000D01*
X5793000Y5843800D02*
Y6096000D01*
X5767600Y5818400D02*
X5793000Y5843800D01*
X5257800Y6096000D02*
X5383000D01*
X5232400Y6070600D02*
X5257800Y6096000D01*
X5918200D02*
X5943600Y6070600D01*
X5793000Y6096000D02*
X5918200D01*
X5588000Y6400800D02*
X6070600D01*
X5105400D02*
X5588000D01*
X6096000Y6210300D02*
Y6375400D01*
X6070600Y6400800D02*
X6096000Y6375400D01*
X5080000D02*
X5105400Y6400800D01*
X5080000Y6210300D02*
Y6375400D01*
D19*
X3746500Y2909500D02*
D03*
X3619500D02*
D03*
X3492500D02*
D03*
X3365500D02*
D03*
X3746500Y2424500D02*
D03*
X3619500D02*
D03*
X3492500D02*
D03*
X3365500D02*
D03*
X9049061Y2678500D02*
D03*
X9176061D02*
D03*
X9303061D02*
D03*
X9430061D02*
D03*
X9049061Y3163500D02*
D03*
X9176061D02*
D03*
X9303061D02*
D03*
X9430061D02*
D03*
X1864457Y1777401D02*
D03*
X1737457D02*
D03*
X1610457D02*
D03*
X1483457D02*
D03*
X1864457Y1292401D02*
D03*
X1737457D02*
D03*
X1610457D02*
D03*
X1483457D02*
D03*
X7429500Y2424500D02*
D03*
X7556500D02*
D03*
X7683500D02*
D03*
X7810500D02*
D03*
X7429500Y2909500D02*
D03*
X7556500D02*
D03*
X7683500D02*
D03*
X7810500D02*
D03*
D20*
X6718300Y5969000D02*
D03*
X6489700D02*
D03*
Y4445000D02*
D03*
X6718300D02*
D03*
X7734300D02*
D03*
X7505700D02*
D03*
Y4191000D02*
D03*
X7734300D02*
D03*
Y3937000D02*
D03*
X7505700D02*
D03*
X5702300Y3429000D02*
D03*
X5473700D02*
D03*
Y3683000D02*
D03*
X5702300D02*
D03*
Y3937000D02*
D03*
X5473700D02*
D03*
X6489700Y3302000D02*
D03*
X6718300D02*
D03*
X6489700Y2794000D02*
D03*
X6718300D02*
D03*
Y3048000D02*
D03*
X6489700D02*
D03*
X9125261Y3556000D02*
D03*
X9353861D02*
D03*
X6489700D02*
D03*
X6718300D02*
D03*
X3829404Y5207000D02*
D03*
X3600804D02*
D03*
X3829404Y5715000D02*
D03*
X3600804D02*
D03*
Y5461000D02*
D03*
X3829404D02*
D03*
X6718300Y5702300D02*
D03*
X6489700D02*
D03*
X4457700Y2667000D02*
D03*
X4686300D02*
D03*
X2654300Y2921000D02*
D03*
X2425700D02*
D03*
X2654300Y3175000D02*
D03*
X2425700D02*
D03*
X4686300Y4953000D02*
D03*
X4457700D02*
D03*
X4686300Y4699000D02*
D03*
X4457700D02*
D03*
X4686300Y5461000D02*
D03*
X4457700D02*
D03*
X4686300Y5207000D02*
D03*
X4457700D02*
D03*
X6718300Y4953000D02*
D03*
X6489700D02*
D03*
X4686300Y4445000D02*
D03*
X4457700D02*
D03*
Y5715000D02*
D03*
X4686300D02*
D03*
X6718300Y5461000D02*
D03*
X6489700D02*
D03*
X6718300Y5207000D02*
D03*
X6489700D02*
D03*
X5473700Y2286000D02*
D03*
X5702300D02*
D03*
X2654300Y4572000D02*
D03*
X2425700D02*
D03*
X2654300Y5715000D02*
D03*
X2425700D02*
D03*
X1409700D02*
D03*
X1638300D02*
D03*
X647700D02*
D03*
X876300D02*
D03*
X2654300Y2667000D02*
D03*
X2425700D02*
D03*
Y2413000D02*
D03*
X2654300D02*
D03*
X2425700Y2159000D02*
D03*
X2654300D02*
D03*
X2425700Y1905000D02*
D03*
X2654300D02*
D03*
X3670300D02*
D03*
X3441700D02*
D03*
X6489700Y2286000D02*
D03*
X6718300D02*
D03*
X7734300Y1905000D02*
D03*
X7505700D02*
D03*
X8750300Y3556000D02*
D03*
X8521700D02*
D03*
X6489700Y1905000D02*
D03*
X6718300D02*
D03*
X6489700Y2540000D02*
D03*
X6718300D02*
D03*
X6489700Y4064000D02*
D03*
X6718300D02*
D03*
Y3810000D02*
D03*
X6489700D02*
D03*
D21*
X1212084Y1649201D02*
D03*
Y1420601D02*
D03*
X5080000Y5981700D02*
D03*
Y6210300D02*
D03*
X6096000Y5981700D02*
D03*
Y6210300D02*
D03*
D22*
X5569200Y923940D02*
D03*
X4579200D02*
D03*
X9389400Y1663700D02*
D03*
X8399400D02*
D03*
D23*
X8851000Y3303250D02*
D03*
X8421000D02*
D03*
X4357000Y1905000D02*
D03*
X4787000D02*
D03*
D24*
X6015540Y5222920D02*
D03*
Y5172920D02*
D03*
Y5122920D02*
D03*
Y5072920D02*
D03*
Y5022920D02*
D03*
Y4972920D02*
D03*
Y4922920D02*
D03*
Y4872920D02*
D03*
Y4822920D02*
D03*
Y4772920D02*
D03*
Y4722920D02*
D03*
Y4672920D02*
D03*
X5165540D02*
D03*
Y4722920D02*
D03*
Y4772920D02*
D03*
Y4822920D02*
D03*
Y4872920D02*
D03*
Y4922920D02*
D03*
Y4972920D02*
D03*
Y5022920D02*
D03*
Y5072920D02*
D03*
Y5122920D02*
D03*
Y5172920D02*
D03*
Y5222920D02*
D03*
D25*
X5865540Y4522920D02*
D03*
X5815540D02*
D03*
X5765540D02*
D03*
X5715540D02*
D03*
X5665540D02*
D03*
X5615540D02*
D03*
X5565540D02*
D03*
X5515540D02*
D03*
X5465540D02*
D03*
X5415540D02*
D03*
X5365540D02*
D03*
X5315540D02*
D03*
Y5372920D02*
D03*
X5365540D02*
D03*
X5415540D02*
D03*
X5465540D02*
D03*
X5515540D02*
D03*
X5565540D02*
D03*
X5615540D02*
D03*
X5665540D02*
D03*
X5715540D02*
D03*
X5765540D02*
D03*
X5815540D02*
D03*
X5865540D02*
D03*
D26*
X3605104Y4953000D02*
D03*
X3825104D02*
D03*
X3605104Y4699000D02*
D03*
X3825104D02*
D03*
D27*
X4401820Y2286000D02*
D03*
X4742180D02*
D03*
X8806180Y3048000D02*
D03*
X8465820D02*
D03*
D28*
X4159000Y4192000D02*
D03*
X3969000D02*
D03*
X4064000Y3937000D02*
D03*
X3651000Y4192000D02*
D03*
X3461000D02*
D03*
X3556000Y3937000D02*
D03*
D29*
X5383000Y6096000D02*
D03*
X5793000D02*
D03*
D30*
X8498500Y2413000D02*
D03*
X8773500D02*
D03*
X2677500Y6096000D02*
D03*
X2402500D02*
D03*
X624500D02*
D03*
X899500D02*
D03*
X1661500D02*
D03*
X1386500D02*
D03*
X5450500Y1901019D02*
D03*
X5725500D02*
D03*
D31*
X2250000Y5365991D02*
D03*
Y5135991D02*
D03*
Y4905991D02*
D03*
D32*
X2830000Y5135991D02*
D03*
D33*
X782154Y4953000D02*
D03*
D34*
X1447154Y4723000D02*
D03*
Y5183000D02*
D03*
D35*
X723000Y1397000D02*
D03*
X293000D02*
D03*
D36*
X2202500Y3810000D02*
D03*
X2877500D02*
D03*
X1108000Y2741480D02*
D03*
X433000D02*
D03*
X1119654Y3810000D02*
D03*
X444654D02*
D03*
D37*
X7390000Y1475500D02*
D03*
X7850000D02*
D03*
X6374000D02*
D03*
X6834000D02*
D03*
X3326000D02*
D03*
X3786000D02*
D03*
X2310000D02*
D03*
X2770000D02*
D03*
D38*
X7620000Y810500D02*
D03*
X6604000D02*
D03*
X3556000D02*
D03*
X2540000D02*
D03*
D62*
X8712200Y6324600D02*
X8756947Y6279853D01*
X7530198Y6324600D02*
X8712200D01*
X7493000Y5040998D02*
Y6287402D01*
X8756947Y6152853D02*
Y6279853D01*
Y6152853D02*
X8763000Y6146800D01*
X7493000Y6287402D02*
X7530198Y6324600D01*
X7455802Y5003800D02*
X7474401Y5022398D01*
X7086600Y5003800D02*
X7455802D01*
X7474401Y5022399D02*
X7493000Y5040998D01*
X2060470Y5368234D02*
X2247758D01*
X2250000Y5365991D01*
X2058228Y5370476D02*
X2060470Y5368234D01*
X1825398Y5889398D02*
X1828800Y5892800D01*
X1825398Y5782720D02*
Y5889398D01*
X1788201Y5745523D02*
X1825398Y5782720D01*
X1828800Y5892800D02*
Y6058802D01*
X1791602Y6096000D02*
X1828800Y6058802D01*
X1661500Y6096000D02*
X1791602D01*
X1668823Y5745523D02*
X1788201D01*
X1638300Y5715000D02*
X1668823Y5745523D01*
X1661500Y6078500D02*
X1727250Y6012750D01*
X1661500Y6078500D02*
Y6096000D01*
X1930400Y4902200D02*
Y6273800D01*
X2260600Y5892800D02*
Y6058802D01*
Y5752198D02*
Y5892800D01*
Y5752198D02*
X2297798Y5715000D01*
X2425700D01*
X2297798Y6096000D02*
X2402500D01*
X2260600Y6058802D02*
X2297798Y6096000D01*
X4947101Y1942198D02*
Y2286000D01*
X4787000Y1905000D02*
X4909904D01*
X4686300Y2667000D02*
X4902200D01*
X4742180Y2286000D02*
X4947101D01*
Y2622099D01*
X4902200Y2667000D02*
X4947101Y2622099D01*
X4909904Y1905000D02*
X4947101Y1942198D01*
X1212368Y1273296D02*
Y1420317D01*
X1212084Y1420601D02*
X1212368Y1420317D01*
Y1273296D02*
X1212652Y1273012D01*
X8356600Y3556000D02*
X8521700D01*
X8051800Y1427211D02*
Y2235200D01*
X4197704Y6096000D02*
X4851400D01*
X3810000D02*
X4146904D01*
X3771900Y5880100D02*
Y6057900D01*
X3733800Y5842000D02*
X3771900Y5880100D01*
X3098800Y5842000D02*
X3733800D01*
X3771900Y6057900D02*
X3810000Y6096000D01*
X2844800Y5715000D02*
X3048000D01*
X2654300D02*
X2844800D01*
Y6045200D01*
X2794000Y6096000D02*
X2844800Y6045200D01*
X2677500Y6096000D02*
X2794000D01*
X3048000Y5715000D02*
Y5791200D01*
X3098800Y5842000D01*
X1879600Y6324600D02*
X1930400Y6273800D01*
X1193800Y6324600D02*
X1879600D01*
X1143000Y6096000D02*
Y6273800D01*
X1193800Y6324600D01*
X4292600Y2667000D02*
X4457700D01*
X2248104Y4904096D02*
X2250000Y4905991D01*
X1930400Y4902200D02*
X1932296Y4904096D01*
X2248104D01*
X2819400Y4419600D02*
Y4546600D01*
X2794000Y4572000D02*
X2819400Y4546600D01*
X2654300Y4572000D02*
X2794000D01*
X2209800Y2667000D02*
X2425700D01*
X1945279D02*
X2209800D01*
X1930400Y2540000D02*
Y2652121D01*
X1945279Y2667000D01*
X6248400Y4241800D02*
X7086600D01*
X5029200D02*
X6248400D01*
X4851400D02*
X5029200D01*
X2250000Y5135991D02*
X2830000D01*
X2877500Y3810000D02*
X3149600D01*
X3048000Y5173189D02*
Y5715000D01*
X3010802Y5135991D02*
X3048000Y5173189D01*
X2830000Y5135991D02*
X3010802D01*
X2377100Y6121400D02*
X2402500Y6096000D01*
X1727200Y4572000D02*
Y4671198D01*
Y3810000D02*
Y4572000D01*
X2425700D01*
X1664602Y5183000D02*
X1701800Y5220198D01*
Y5500002D01*
X1447154Y5183000D02*
X1664602D01*
Y5537200D02*
X1701800Y5500002D01*
X1180198Y5537200D02*
X1664602D01*
X1143000Y5574398D02*
Y5715000D01*
Y5574398D02*
X1180198Y5537200D01*
X782154Y4952999D02*
Y4953000D01*
X1119654Y3810000D02*
X1727200D01*
X2202500D01*
X1461759Y4708396D02*
X1690002D01*
X1727200Y4671198D01*
X1447154Y4723000D02*
X1461759Y4708396D01*
X1143000Y5715000D02*
X1409700D01*
X1143000Y6096000D02*
X1386500D01*
X896454Y5715000D02*
X1143000D01*
X919654Y6096000D02*
X1143000D01*
Y5715000D02*
Y6096000D01*
D63*
X9731282Y3932291D02*
X9753600Y3909972D01*
Y2824914D02*
Y3909972D01*
X8636000Y3932291D02*
X9731282D01*
X2709050Y1574800D02*
X2770000Y1513850D01*
X2616200Y1574800D02*
X2709050D01*
X2770000Y1475500D02*
Y1513850D01*
X3619562Y2251474D02*
Y2424438D01*
X3619500Y2424500D02*
X3619562Y2424438D01*
Y2251474D02*
X3619624Y2251411D01*
X3619327Y2909673D02*
Y3096677D01*
Y2909673D02*
X3619500Y2909500D01*
X3619154Y3096850D02*
X3619327Y3096677D01*
X8636000Y3932291D02*
Y4191000D01*
X7739009Y3932291D02*
X8636000D01*
X8051800Y2997200D02*
X8102600Y3048000D01*
X8284210D01*
X6122748Y2161462D02*
X6923585D01*
X6924933Y2160114D01*
X7213519D01*
X7240033Y2133600D01*
X6121400Y2162810D02*
X6122748Y2161462D01*
X6718478Y2539822D02*
X6924188D01*
X6718300Y2540000D02*
X6718478Y2539822D01*
X2235200Y2794000D02*
Y2921000D01*
Y2692400D02*
Y2794000D01*
X6834000Y1475500D02*
Y1513850D01*
X6773050Y1574800D02*
X6834000Y1513850D01*
X6680200Y1574800D02*
X6773050D01*
X8991600Y3556000D02*
Y3683000D01*
Y3403600D02*
Y3556000D01*
X7899400Y3708400D02*
X8966200D01*
X8991600Y3683000D01*
X9303061Y3163500D02*
Y3355882D01*
X9325379Y3378200D02*
X9430061D01*
X9303061Y3355882D02*
X9325379Y3378200D01*
X9430061Y3163500D02*
Y3378200D01*
X9499600D01*
X9525000Y3556000D02*
Y3683000D01*
Y3403600D02*
Y3556000D01*
X9353861D02*
X9525000D01*
X9499600Y3378200D02*
X9525000Y3403600D01*
X8991600Y3556000D02*
X9125261D01*
X8991600Y3403600D02*
X9049061Y3346139D01*
Y3163500D02*
Y3346139D01*
X8806180Y3048000D02*
X8851410Y3093230D01*
Y3302840D01*
X8851000Y3303250D02*
X8851410Y3302840D01*
X8851000Y3303250D02*
X8851422Y3303673D01*
X8829104Y3556000D02*
X8851422Y3533682D01*
X8750300Y3556000D02*
X8829104D01*
X8851422Y3303673D02*
Y3533682D01*
X8284210Y3048000D02*
X8465820D01*
X8284210D02*
Y3280410D01*
X8307050Y3303250D01*
X8421000D01*
X8051800Y2235200D02*
Y2997200D01*
X7832818Y2235200D02*
X8051800D01*
X7810500Y2257518D02*
X7832818Y2235200D01*
X7810500Y2257518D02*
Y2424500D01*
X5232400Y2286000D02*
Y2727143D01*
X2260600Y2413000D02*
X2425700D01*
X6809105Y2080895D02*
X6832600Y2057400D01*
X7899400D01*
X6223000Y2080895D02*
X6809105D01*
X7240033Y2133600D02*
X7534182D01*
X7556500Y2155918D01*
Y2424500D01*
X3491811Y2162810D02*
X3492156Y2163154D01*
Y2424155D01*
X2819400Y2413000D02*
X2997200D01*
X2794000Y2667000D02*
X2819400Y2641600D01*
Y2413000D02*
Y2641600D01*
X2654300Y2413000D02*
X2819400D01*
X2654300Y2667000D02*
X2794000D01*
X2235200Y2794000D02*
X2895600D01*
X2209800Y2667000D02*
X2235200Y2692400D01*
X7428074Y2246704D02*
Y2423073D01*
X7429500Y2424500D01*
X7426647Y2245278D02*
X7428074Y2246704D01*
X7366000Y1905000D02*
X7505700D01*
X3492156Y2424155D02*
X3492500Y2424500D01*
X3746808Y2666220D02*
X3747116Y2665912D01*
X3746500Y2909500D02*
X3746808Y2909192D01*
Y2666220D02*
Y2909192D01*
X3098800Y2184400D02*
Y2667000D01*
X2654300Y2159000D02*
X3073400D01*
X3098800Y2184400D01*
X3200400Y1981200D02*
Y2870200D01*
X3124200Y1905000D02*
X3200400Y1981200D01*
X2654300Y1905000D02*
X3124200D01*
X3768818Y2276382D02*
X4241800D01*
X3746500Y2298700D02*
Y2424500D01*
Y2298700D02*
X3768818Y2276382D01*
X2260600Y2159000D02*
X2425700D01*
X3302000Y2184400D02*
X3365500Y2247900D01*
Y2424500D01*
X3302000Y1930400D02*
Y2184400D01*
Y1930400D02*
X3327400Y1905000D01*
X3441700D01*
X3670300D02*
X3759200D01*
X3786000Y1878200D01*
Y1475500D02*
Y1878200D01*
X7644130Y3201670D02*
X7683500Y3162300D01*
X7189470Y3201670D02*
X7644130D01*
X7188200Y3200400D02*
X7189470Y3201670D01*
X7683500Y2909500D02*
Y3162300D01*
X6718300Y1905000D02*
X7188200D01*
X7782921Y2667000D02*
X7810500Y2694579D01*
X7315200Y2667000D02*
X7782921D01*
X7810500Y2694579D02*
Y2909500D01*
X7289800Y2311400D02*
Y2641600D01*
X7315200Y2667000D01*
X6718300Y2286000D02*
X7264400D01*
X7289800Y2311400D01*
X7734300Y1905000D02*
X7823200D01*
X7850000Y1475500D02*
Y1878200D01*
X7823200Y1905000D02*
X7850000Y1878200D01*
X6324600Y2286000D02*
X6489700D01*
X6375400Y1882682D02*
X6397718Y1905000D01*
X6489700D01*
X6375400Y1727200D02*
Y1882682D01*
X2311400Y1727200D02*
Y1882682D01*
X2333718Y1905000D02*
X2425700D01*
X2311400Y1882682D02*
X2333718Y1905000D01*
X5232400Y2727143D02*
X5306795Y2801538D01*
X5588000D01*
X2235200Y2921000D02*
Y3149600D01*
Y2921000D02*
X2425700D01*
X2235200Y3149600D02*
X2260600Y3175000D01*
X2425700D01*
X1483457Y1777401D02*
Y2499457D01*
X1524000Y2540000D01*
X1930400D01*
X1244600Y1981200D02*
X1473200D01*
X1212084Y1649201D02*
Y1948684D01*
X1244600Y1981200D01*
D64*
X939800Y2057400D02*
X1117600Y2235200D01*
X939800Y1397000D02*
Y2057400D01*
X1117600Y2235200D02*
Y2664946D01*
X482600Y736600D02*
X508000Y762000D01*
X127000Y810995D02*
Y1346200D01*
Y810995D02*
X201395Y736600D01*
X482600D01*
X9571306Y765033D02*
Y1011506D01*
X9753600Y1193800D02*
Y2540000D01*
X9568273Y762000D02*
X9571306Y765033D01*
Y1011506D02*
X9753600Y1193800D01*
X5306795Y1600200D02*
X5494805D01*
X5569200Y1525805D01*
Y923940D02*
Y1525805D01*
X9728200Y2565400D02*
X9753600Y2540000D01*
X8229600Y2413000D02*
X8498500D01*
X5232400Y1905000D02*
X5473700D01*
X5232400Y2286000D02*
X5473700D01*
X5232400Y1905000D02*
Y2286000D01*
X1119654Y2667000D02*
Y3810000D01*
X939800Y1179295D02*
X1014195Y1104900D01*
X939800Y1179295D02*
Y1397000D01*
X1014195Y1104900D02*
X1371600D01*
X723000Y1397000D02*
X939800D01*
X5725500Y1701800D02*
Y1905000D01*
X5867400D01*
X177800Y1397000D02*
X279400D01*
X127000Y1346200D02*
X177800Y1397000D01*
X7391400Y1476900D02*
Y1727200D01*
X6375400D02*
X7113805D01*
X6375400Y1476900D02*
Y1727200D01*
X6374000Y1475500D02*
X6375400Y1476900D01*
X7188200Y1168400D02*
Y1652805D01*
X7113805Y1727200D02*
X7188200Y1652805D01*
X3134559Y1244600D02*
Y1652805D01*
X2311400Y1727200D02*
X3060164D01*
X3134559Y1652805D01*
X2311400Y1476900D02*
Y1727200D01*
X2310000Y1475500D02*
X2311400Y1476900D01*
X3327400D02*
Y1727200D01*
X5232400Y1674595D02*
Y1905000D01*
Y1674595D02*
X5306795Y1600200D01*
X1117600Y2664946D02*
X1119654Y2667000D01*
D65*
X8450000Y400000D02*
D03*
X400000Y1900000D02*
D03*
X3200000Y6200000D02*
D03*
X8500000Y5377800D02*
D03*
D66*
X9568273Y762000D02*
D03*
X9060273D02*
D03*
X508000D02*
D03*
X1016000D02*
D03*
D67*
X9239561Y4191000D02*
D03*
X4064000Y3495180D02*
D03*
X3558700Y3495180D02*
D03*
X1752557Y2286000D02*
D03*
X4165600Y6096000D02*
D03*
X3048000Y4572000D02*
D03*
X1673957Y502278D02*
D03*
X5588000Y2801538D02*
D03*
X8636000Y4191000D02*
D03*
D68*
X9525000Y6146800D02*
D03*
X9271000D02*
D03*
X9017000D02*
D03*
X8255000D02*
D03*
X8001000D02*
D03*
X7747000D02*
D03*
D69*
X8763000D02*
D03*
X7493000D02*
D03*
D70*
X6248400Y4826000D02*
D03*
X7315200D02*
D03*
X2616200Y1574800D02*
D03*
X5025402Y5172951D02*
D03*
X2058228Y5365991D02*
D03*
X1828800Y5892800D02*
D03*
X2260600D02*
D03*
X1212652Y1273012D02*
D03*
X3619500Y2251411D02*
D03*
Y3097142D02*
D03*
X3365500D02*
D03*
X4064000Y3175000D02*
D03*
X4160502Y4314945D02*
D03*
X3460974Y4317326D02*
D03*
X3970143Y4311200D02*
D03*
X7086600Y5969000D02*
D03*
X6902574Y5700475D02*
D03*
X6903843Y5203699D02*
D03*
Y5457699D02*
D03*
X6904920Y4443354D02*
D03*
X6924933Y2160114D02*
D03*
X6924188Y2539822D02*
D03*
X7429500Y3069263D02*
D03*
X6680200Y1574800D02*
D03*
X9245600Y3810000D02*
D03*
X9175850Y3329552D02*
D03*
X7899400Y3708400D02*
D03*
X9525000Y3683000D02*
D03*
X8356600Y3556000D02*
D03*
X8229600Y2413000D02*
D03*
X8331200D02*
D03*
X3200400Y5715000D02*
D03*
X5725500Y1701800D02*
D03*
X5867400Y1905000D02*
D03*
X7086600Y5003800D02*
D03*
X4292600Y4445000D02*
D03*
X508000Y4495800D02*
D03*
X660400D02*
D03*
X812800D02*
D03*
X965200D02*
D03*
X1117600D02*
D03*
X508000Y5410200D02*
D03*
X660400D02*
D03*
X812800D02*
D03*
X965200D02*
D03*
X1117600D02*
D03*
X2260600Y2413000D02*
D03*
X7899400Y2057400D02*
D03*
X6223000Y2080895D02*
D03*
X6121400Y2162810D02*
D03*
X3492500D02*
D03*
X2895600Y2794000D02*
D03*
X2997200Y2413000D02*
D03*
X7429500Y2242671D02*
D03*
X7683500D02*
D03*
X7366000Y1905000D02*
D03*
X3747116Y2665912D02*
D03*
X3098800Y2667000D02*
D03*
X3200400Y2870200D02*
D03*
X4292600Y2667000D02*
D03*
X2260600Y2159000D02*
D03*
X3492500Y3097142D02*
D03*
X6324600Y3048000D02*
D03*
Y2794000D02*
D03*
X4953000Y3302000D02*
D03*
X7188200Y3200400D02*
D03*
Y1905000D02*
D03*
X7391400Y1727200D02*
D03*
X6883400Y3175000D02*
D03*
X6324600Y2540000D02*
D03*
Y2286000D02*
D03*
X8051800Y1422400D02*
D03*
Y1295400D02*
D03*
X7188200Y1168400D02*
D03*
Y1016000D02*
D03*
Y863600D02*
D03*
Y711200D02*
D03*
Y558800D02*
D03*
Y406400D02*
D03*
X7289800Y355600D02*
D03*
X7416800D02*
D03*
X7543800D02*
D03*
X7696200D02*
D03*
X7823200D02*
D03*
X7950200D02*
D03*
X8051800Y406400D02*
D03*
Y558800D02*
D03*
Y711200D02*
D03*
Y863600D02*
D03*
Y1016000D02*
D03*
Y1168400D02*
D03*
X6172200Y1422400D02*
D03*
Y1295400D02*
D03*
Y1168400D02*
D03*
Y1016000D02*
D03*
Y863600D02*
D03*
Y711200D02*
D03*
Y558800D02*
D03*
Y406400D02*
D03*
X6273800Y355600D02*
D03*
X6400800D02*
D03*
X6527800D02*
D03*
X6680200D02*
D03*
X6807200D02*
D03*
X6934200D02*
D03*
X7035800Y406400D02*
D03*
Y558800D02*
D03*
Y711200D02*
D03*
Y863600D02*
D03*
Y1016000D02*
D03*
Y1168400D02*
D03*
X3987800D02*
D03*
Y1016000D02*
D03*
Y863600D02*
D03*
Y711200D02*
D03*
Y558800D02*
D03*
Y406400D02*
D03*
X3886200Y355600D02*
D03*
X3759200D02*
D03*
X3632200D02*
D03*
X3479800D02*
D03*
X3352800D02*
D03*
X3225800D02*
D03*
X3124200Y406400D02*
D03*
Y558800D02*
D03*
Y711200D02*
D03*
Y863600D02*
D03*
Y1016000D02*
D03*
Y1168400D02*
D03*
X3327400Y1727200D02*
D03*
X2971800Y1168400D02*
D03*
Y1016000D02*
D03*
Y863600D02*
D03*
Y711200D02*
D03*
Y558800D02*
D03*
Y406400D02*
D03*
X2870200Y355600D02*
D03*
X2743200D02*
D03*
X2616200D02*
D03*
X2463800D02*
D03*
X2336800D02*
D03*
X2209800D02*
D03*
X2108200Y406400D02*
D03*
Y558800D02*
D03*
Y711200D02*
D03*
Y863600D02*
D03*
Y1016000D02*
D03*
Y1168400D02*
D03*
Y1295400D02*
D03*
Y1422400D02*
D03*
X1930400Y4902200D02*
D03*
X2819400Y4419600D02*
D03*
X1828800Y3327400D02*
D03*
X1930400Y2540000D02*
D03*
X3251200Y3327400D02*
D03*
X7086600Y5588000D02*
D03*
X6248400Y4241800D02*
D03*
Y4445000D02*
D03*
X7086600Y5334000D02*
D03*
Y4241800D02*
D03*
X4851400D02*
D03*
X5410200Y4114800D02*
D03*
X5029200Y4749800D02*
D03*
X4851400Y5715000D02*
D03*
Y6096000D02*
D03*
X4089400Y4572000D02*
D03*
X1803400Y1955800D02*
D03*
X3429000Y5334000D02*
D03*
X3149600Y3810000D02*
D03*
X7899400Y4318000D02*
D03*
X6146800Y4749800D02*
D03*
X6248400Y4597400D02*
D03*
X6146800Y4521200D02*
D03*
X7315200Y4445000D02*
D03*
X5410200Y5029200D02*
D03*
X5308600Y4953000D02*
D03*
X6883400Y3937000D02*
D03*
X5029200Y5334000D02*
D03*
X5207000Y3683000D02*
D03*
X5867400Y3810000D02*
D03*
X5765800Y4826000D02*
D03*
X5664200Y4749800D02*
D03*
X5562600Y4673600D02*
D03*
X4089400Y5461000D02*
D03*
X4216400Y5207000D02*
D03*
X3479800Y4826000D02*
D03*
X4191000Y5715000D02*
D03*
X5842000Y5689600D02*
D03*
X5841273Y5252942D02*
D03*
X5588000Y6400800D02*
D03*
M02*
