M48
;Layer_Color=9474304
;FILE_FORMAT=4:4
METRIC,LZ
;TYPE=PLATED
T1F00S00C0.4064
T2F00S00C1.0160
T3F00S00C1.5000
T4F00S00C1.6000
;TYPE=NON_PLATED
T5F00S00C3.2500
%
T01
X00121265Y00127301
X0021082Y0012954
Y0011684
Y001016
Y0008636
Y0007112
Y0005588
Y0004064
X0022098Y0003556
X0023368
X0024638
X0026162
X0027432
X0028702
X0029718Y0004064
X0031242
X0032258Y0003556
X0033528
X0034798
X0036322
X0037592
X0038862
X0039878Y0004064
Y0005588
Y0007112
Y0008636
Y001016
Y0011684
X0031242
Y001016
Y0008636
Y0007112
Y0005588
X0029718
Y0007112
Y0008636
Y001016
Y0011684
X0061722
Y0012954
Y001016
Y0008636
Y0007112
Y0005588
Y0004064
X0062738Y0003556
X0064008
X0065278
X0066802
X0068072
X0069342
X0070358Y0004064
X0071882
Y0005588
Y0007112
Y0008636
Y001016
Y0011684
X0070358
Y001016
Y0008636
Y0007112
Y0005588
X0072898Y0003556
X0074168
X0075438
X0076962
X0078232
X0079502
X0080518Y0004064
Y0005588
Y0007112
Y0008636
Y001016
Y0011684
Y0012954
X00917585Y00332955
X0092456Y00381
X009525Y003683
X0083566Y003556
X0078994Y0037084
Y004318
X0073152Y004445
Y004826
X0070866Y0050038
X00690384Y0052037
X00690492Y00444335
X0070866Y0042418
X0068834Y003937
Y003175
X0071882Y0032004
X0074295Y00306926
Y00224267
X0076835
X0078994Y0020574
X0082296Y002413
X0083312
X0080518Y0014224
X0073914Y0017272
X007366Y001905
X0071882
X00692493Y00216011
X00692419Y00253982
X0063246Y00254
Y002794
Y003048
Y002286
X006223Y0020809
X0061214Y00216281
X0058674Y001905
X0057255Y0017018
X0061722Y0014224
X0066802Y0015748
X0058674Y00381
X0054102Y0041148
X005207Y003683
X004953Y003302
X0050292Y0047498
X0050254Y00517295
X0053086Y004953
X0054102Y0050292
X0055626Y0046736
X0056642Y0047498
X0057658Y004826
X0061468Y0047498
X0062484Y004826
Y0045974
Y004445
X0061468Y0045212
X0062484Y0042418
X00584127Y00525294
X0042164Y005207
X0040894Y004572
X0041605Y00431494
X00397014Y0043112
X0042926Y004445
X0048514Y0042418
X00346097Y00431733
X0034798Y004826
X0028194Y0044196
X0031496Y00381
X0032512Y0033274
X0033655Y00309714
X0034925
X0036195
X004064Y003175
X0042926Y002667
X00374712Y00266591
X0036195Y00225141
X0034925Y00216281
X0033274Y0017272
X0026162Y0015748
X0021082Y0014224
X0018034Y0019558
X0022606Y002159
Y002413
X0019304Y00254
X0018288Y0033274
X0028956Y002794
X0030988Y002667
X0032004Y0028702
X0029972Y002413
X0019304Y0049022
X0011176Y0044958
X0009652
X0008128
X0006604
X000508
Y0054102
X0006604
X0008128
X0009652
X0011176
X00205823Y00536599
X0022606Y0058928
X0018288
X0032004Y005715
X003429Y005334
X0040894Y005461
X004191Y005715
X0048514
Y006096
X0050292Y005334
X005842Y0056896
X005588Y0064008
X0070866Y005969
Y005588
Y005334
X00690384Y0054577
X00690257Y00570047
T02
X007493Y0061468
X007747
X008001
X008255
X008763
X009017
X009271
X009525
T03
X000508Y000762
X001016
X00906027
X00956827
T04
X00167396Y00050228
X00923956Y004191
X008636
X005588Y00280154
X004064Y00349518
X0035587Y00349518
X003048Y004572
X00175256Y002286
X0041656Y006096
T05
X00845Y0004
X0004Y0019
X0032Y0062
X0085Y0053778
M30
