G04*
G04 #@! TF.GenerationSoftware,Altium Limited,Altium Designer,23.3.1 (30)*
G04*
G04 Layer_Color=8388736*
%FSLAX45Y45*%
%MOMM*%
G71*
G04*
G04 #@! TF.SameCoordinates,784FB100-AB39-434A-9190-0E81AD2A1C3A*
G04*
G04*
G04 #@! TF.FilePolarity,Negative*
G04*
G01*
G75*
%ADD24R,1.19380X0.30480*%
%ADD25R,0.30480X1.19380*%
%ADD39R,0.80320X2.35320*%
%ADD40R,1.72720X1.62560*%
%ADD41R,1.62560X1.72720*%
%ADD42R,4.20320X6.20320*%
%ADD43R,1.30320X2.15320*%
%ADD44R,1.20320X1.50320*%
%ADD45R,1.82880X1.82880*%
%ADD46R,0.80320X1.15320*%
%ADD47R,2.10320X2.60320*%
%ADD48R,2.15320X2.50320*%
%ADD49R,2.60320X1.20320*%
%ADD50R,2.60320X3.50320*%
%ADD51R,6.90319X6.90320*%
%ADD52R,3.20320X1.80320*%
%ADD53R,1.60320X2.15320*%
%ADD54R,4.40320X2.55320*%
%ADD55R,1.80320X3.20320*%
%ADD56R,6.90320X6.90319*%
%ADD57C,6.20320*%
%ADD58O,3.20320X3.70320*%
%ADD59C,3.20320*%
%ADD60C,1.70320*%
%ADD61R,1.70320X1.70320*%
D24*
X6015540Y5222920D02*
D03*
Y5172920D02*
D03*
Y5122920D02*
D03*
Y5072920D02*
D03*
Y5022920D02*
D03*
Y4972920D02*
D03*
Y4922920D02*
D03*
Y4872920D02*
D03*
Y4822920D02*
D03*
Y4772920D02*
D03*
Y4722920D02*
D03*
Y4672920D02*
D03*
X5165540D02*
D03*
Y4722920D02*
D03*
Y4772920D02*
D03*
Y4822920D02*
D03*
Y4872920D02*
D03*
Y4922920D02*
D03*
Y4972920D02*
D03*
Y5022920D02*
D03*
Y5072920D02*
D03*
Y5122920D02*
D03*
Y5172920D02*
D03*
Y5222920D02*
D03*
D25*
X5865540Y4522920D02*
D03*
X5815540D02*
D03*
X5765540D02*
D03*
X5715540D02*
D03*
X5665540D02*
D03*
X5615540D02*
D03*
X5565540D02*
D03*
X5515540D02*
D03*
X5465540D02*
D03*
X5415540D02*
D03*
X5365540D02*
D03*
X5315540D02*
D03*
Y5372920D02*
D03*
X5365540D02*
D03*
X5415540D02*
D03*
X5465540D02*
D03*
X5515540D02*
D03*
X5565540D02*
D03*
X5615540D02*
D03*
X5665540D02*
D03*
X5715540D02*
D03*
X5765540D02*
D03*
X5815540D02*
D03*
X5865540D02*
D03*
D39*
X3746500Y2909500D02*
D03*
X3619500D02*
D03*
X3492500D02*
D03*
X3365500D02*
D03*
X3746500Y2424500D02*
D03*
X3619500D02*
D03*
X3492500D02*
D03*
X3365500D02*
D03*
X9049061Y2678500D02*
D03*
X9176061D02*
D03*
X9303061D02*
D03*
X9430061D02*
D03*
X9049061Y3163500D02*
D03*
X9176061D02*
D03*
X9303061D02*
D03*
X9430061D02*
D03*
X1864457Y1777401D02*
D03*
X1737457D02*
D03*
X1610457D02*
D03*
X1483457D02*
D03*
X1864457Y1292401D02*
D03*
X1737457D02*
D03*
X1610457D02*
D03*
X1483457D02*
D03*
X7429500Y2424500D02*
D03*
X7556500D02*
D03*
X7683500D02*
D03*
X7810500D02*
D03*
X7429500Y2909500D02*
D03*
X7556500D02*
D03*
X7683500D02*
D03*
X7810500D02*
D03*
D40*
X6718300Y5969000D02*
D03*
X6489700D02*
D03*
Y4445000D02*
D03*
X6718300D02*
D03*
X7734300D02*
D03*
X7505700D02*
D03*
Y4191000D02*
D03*
X7734300D02*
D03*
Y3937000D02*
D03*
X7505700D02*
D03*
X5702300Y3429000D02*
D03*
X5473700D02*
D03*
Y3683000D02*
D03*
X5702300D02*
D03*
Y3937000D02*
D03*
X5473700D02*
D03*
X6489700Y3302000D02*
D03*
X6718300D02*
D03*
X6489700Y2794000D02*
D03*
X6718300D02*
D03*
Y3048000D02*
D03*
X6489700D02*
D03*
X9125261Y3556000D02*
D03*
X9353861D02*
D03*
X6489700D02*
D03*
X6718300D02*
D03*
X3829404Y5207000D02*
D03*
X3600804D02*
D03*
X3829404Y5715000D02*
D03*
X3600804D02*
D03*
Y5461000D02*
D03*
X3829404D02*
D03*
X6718300Y5702300D02*
D03*
X6489700D02*
D03*
X4457700Y2667000D02*
D03*
X4686300D02*
D03*
X2654300Y2921000D02*
D03*
X2425700D02*
D03*
X2654300Y3175000D02*
D03*
X2425700D02*
D03*
X4686300Y4953000D02*
D03*
X4457700D02*
D03*
X4686300Y4699000D02*
D03*
X4457700D02*
D03*
X4686300Y5461000D02*
D03*
X4457700D02*
D03*
X4686300Y5207000D02*
D03*
X4457700D02*
D03*
X6718300Y4953000D02*
D03*
X6489700D02*
D03*
X4686300Y4445000D02*
D03*
X4457700D02*
D03*
Y5715000D02*
D03*
X4686300D02*
D03*
X6718300Y5461000D02*
D03*
X6489700D02*
D03*
X6718300Y5207000D02*
D03*
X6489700D02*
D03*
X5473700Y2286000D02*
D03*
X5702300D02*
D03*
X2654300Y4572000D02*
D03*
X2425700D02*
D03*
X2654300Y5715000D02*
D03*
X2425700D02*
D03*
X1409700D02*
D03*
X1638300D02*
D03*
X647700D02*
D03*
X876300D02*
D03*
X2654300Y2667000D02*
D03*
X2425700D02*
D03*
Y2413000D02*
D03*
X2654300D02*
D03*
X2425700Y2159000D02*
D03*
X2654300D02*
D03*
X2425700Y1905000D02*
D03*
X2654300D02*
D03*
X3670300D02*
D03*
X3441700D02*
D03*
X6489700Y2286000D02*
D03*
X6718300D02*
D03*
X7734300Y1905000D02*
D03*
X7505700D02*
D03*
X8750300Y3556000D02*
D03*
X8521700D02*
D03*
X6489700Y1905000D02*
D03*
X6718300D02*
D03*
X6489700Y2540000D02*
D03*
X6718300D02*
D03*
X6489700Y4064000D02*
D03*
X6718300D02*
D03*
Y3810000D02*
D03*
X6489700D02*
D03*
D41*
X1212084Y1649201D02*
D03*
Y1420601D02*
D03*
X5080000Y5981700D02*
D03*
Y6210300D02*
D03*
X6096000Y5981700D02*
D03*
Y6210300D02*
D03*
D42*
X5569200Y923940D02*
D03*
X4579200D02*
D03*
X9389400Y1663700D02*
D03*
X8399400D02*
D03*
D43*
X8851000Y3303250D02*
D03*
X8421000D02*
D03*
X4357000Y1905000D02*
D03*
X4787000D02*
D03*
D44*
X3605104Y4953000D02*
D03*
X3825104D02*
D03*
X3605104Y4699000D02*
D03*
X3825104D02*
D03*
D45*
X4401820Y2286000D02*
D03*
X4742180D02*
D03*
X8806180Y3048000D02*
D03*
X8465820D02*
D03*
D46*
X4159000Y4192000D02*
D03*
X3969000D02*
D03*
X4064000Y3937000D02*
D03*
X3651000Y4192000D02*
D03*
X3461000D02*
D03*
X3556000Y3937000D02*
D03*
D47*
X5383000Y6096000D02*
D03*
X5793000D02*
D03*
D48*
X8498500Y2413000D02*
D03*
X8773500D02*
D03*
X2677500Y6096000D02*
D03*
X2402500D02*
D03*
X624500D02*
D03*
X899500D02*
D03*
X1661500D02*
D03*
X1386500D02*
D03*
X5450500Y1901019D02*
D03*
X5725500D02*
D03*
D49*
X2250000Y5365991D02*
D03*
Y5135991D02*
D03*
Y4905991D02*
D03*
D50*
X2830000Y5135991D02*
D03*
D51*
X782154Y4953000D02*
D03*
D52*
X1447154Y4723000D02*
D03*
Y5183000D02*
D03*
D53*
X723000Y1397000D02*
D03*
X293000D02*
D03*
D54*
X2202500Y3810000D02*
D03*
X2877500D02*
D03*
X1108000Y2741480D02*
D03*
X433000D02*
D03*
X1119654Y3810000D02*
D03*
X444654D02*
D03*
D55*
X7390000Y1475500D02*
D03*
X7850000D02*
D03*
X6374000D02*
D03*
X6834000D02*
D03*
X3326000D02*
D03*
X3786000D02*
D03*
X2310000D02*
D03*
X2770000D02*
D03*
D56*
X7620000Y810500D02*
D03*
X6604000D02*
D03*
X3556000D02*
D03*
X2540000D02*
D03*
D57*
X8450000Y400000D02*
D03*
X400000Y1900000D02*
D03*
X3200000Y6200000D02*
D03*
X8500000Y5377800D02*
D03*
D58*
X9568273Y762000D02*
D03*
X9060273D02*
D03*
X508000D02*
D03*
X1016000D02*
D03*
D59*
X9239561Y4191000D02*
D03*
X4064000Y3495180D02*
D03*
X3558700Y3495180D02*
D03*
X1752557Y2286000D02*
D03*
X4165600Y6096000D02*
D03*
X3048000Y4572000D02*
D03*
X1673957Y502278D02*
D03*
X5588000Y2801538D02*
D03*
X8636000Y4191000D02*
D03*
D60*
X9525000Y6146800D02*
D03*
X9271000D02*
D03*
X9017000D02*
D03*
X8255000D02*
D03*
X8001000D02*
D03*
X7747000D02*
D03*
D61*
X8763000D02*
D03*
X7493000D02*
D03*
M02*
