G04*
G04 #@! TF.GenerationSoftware,Altium Limited,Altium Designer,23.3.1 (30)*
G04*
G04 Layer_Physical_Order=2*
G04 Layer_Color=16711680*
%FSLAX45Y45*%
%MOMM*%
G71*
G04*
G04 #@! TF.SameCoordinates,551D5C09-00C5-4FD8-83AD-956C1D01ED91*
G04*
G04*
G04 #@! TF.FilePolarity,Positive*
G04*
G01*
G75*
%ADD10C,0.25400*%
%ADD62C,0.63500*%
%ADD63C,0.38100*%
%ADD65C,6.00000*%
%ADD66O,3.00000X3.50000*%
%ADD67C,3.00000*%
%ADD68C,1.50000*%
%ADD69R,1.50000X1.50000*%
%ADD70C,0.81280*%
G36*
X8610600Y689827D02*
X8599771Y683191D01*
X8572960Y696852D01*
X8525009Y712433D01*
X8475210Y720320D01*
X8424790D01*
X8374992Y712433D01*
X8327040Y696852D01*
X8282116Y673962D01*
X8241326Y644326D01*
X8205674Y608674D01*
X8176038Y567884D01*
X8153148Y522960D01*
X8137567Y475008D01*
X8129680Y425210D01*
Y374790D01*
X8137567Y324991D01*
X8153148Y277040D01*
X8176038Y232116D01*
X8205674Y191326D01*
X8241326Y155674D01*
X8282116Y126038D01*
X8327040Y103148D01*
X8374992Y87567D01*
X8424790Y79680D01*
X8475210D01*
X8525009Y87567D01*
X8572960Y103148D01*
X8599771Y116809D01*
X8610600Y110173D01*
Y50800D01*
X7132718D01*
Y1244600D01*
X8001000D01*
Y1498600D01*
X8610600D01*
Y689827D01*
D02*
G37*
G36*
X9855200Y50800D02*
X8631318D01*
Y110173D01*
X8630842Y112566D01*
X8630746Y115009D01*
X8630060Y116497D01*
X8629741Y118101D01*
X8628384Y120131D01*
X8627361Y122350D01*
X8629193Y131833D01*
X8631494Y135925D01*
X8658675Y155674D01*
X8694327Y191326D01*
X8723962Y232116D01*
X8746852Y277040D01*
X8762433Y324991D01*
X8770320Y374790D01*
Y425210D01*
X8762433Y475008D01*
X8746852Y522960D01*
X8723962Y567884D01*
X8694327Y608674D01*
X8658675Y644326D01*
X8631494Y664075D01*
X8629193Y668166D01*
X8627361Y677650D01*
X8628384Y679868D01*
X8629741Y681899D01*
X8630060Y683504D01*
X8630746Y684991D01*
X8630842Y687432D01*
X8631318Y689827D01*
Y1498600D01*
X8629741Y1506528D01*
X8625250Y1513250D01*
X8618528Y1517741D01*
X8610600Y1519318D01*
X8001000D01*
X7993072Y1517741D01*
X7986350Y1513250D01*
X7981859Y1506528D01*
X7980282Y1498600D01*
Y1265318D01*
X7132718D01*
X7124790Y1263741D01*
X7122359Y1262117D01*
X7119928Y1263741D01*
X7112000Y1265318D01*
X6243718D01*
Y1498600D01*
X6242141Y1506528D01*
X6237650Y1513250D01*
X6230928Y1517741D01*
X6223000Y1519318D01*
X5588000D01*
X5580072Y1517741D01*
X5573350Y1513250D01*
X5568859Y1506528D01*
X5567282Y1498600D01*
Y50800D01*
X5075318D01*
Y1498600D01*
X5073741Y1506528D01*
X5069250Y1513250D01*
X5062528Y1517741D01*
X5054600Y1519318D01*
X4216400D01*
X4208472Y1517741D01*
X4201750Y1513250D01*
X4197259Y1506528D01*
X4195682Y1498600D01*
Y1265318D01*
X3068774D01*
X3060846Y1263741D01*
X3058387Y1262098D01*
X3055928Y1263741D01*
X3048000Y1265318D01*
X2179718D01*
Y1498600D01*
X2178141Y1506528D01*
X2173650Y1513250D01*
X2166928Y1517741D01*
X2159000Y1519318D01*
X1651000D01*
X1643072Y1517741D01*
X1636350Y1513250D01*
X1631859Y1506528D01*
X1630282Y1498600D01*
Y1036718D01*
X1295400D01*
X1287472Y1035141D01*
X1280750Y1030650D01*
X1276259Y1023928D01*
X1274682Y1016000D01*
Y50800D01*
X50800D01*
Y6553200D01*
X9855200D01*
Y50800D01*
D02*
G37*
G36*
X6223000Y1244600D02*
X7112000D01*
Y50800D01*
X5588000D01*
Y1498600D01*
X6223000D01*
Y1244600D01*
D02*
G37*
G36*
X5054600Y50800D02*
X3068774D01*
Y1244600D01*
X4216400D01*
Y1498600D01*
X5054600D01*
Y50800D01*
D02*
G37*
G36*
X2159000Y1244600D02*
X3048000D01*
Y50800D01*
X1295400D01*
Y1016000D01*
X1651000D01*
Y1498600D01*
X2159000D01*
Y1244600D01*
D02*
G37*
%LPC*%
G36*
X9538218Y6247200D02*
X9537700D01*
Y6159500D01*
X9625400D01*
Y6160018D01*
X9618558Y6185553D01*
X9605340Y6208447D01*
X9586647Y6227140D01*
X9563753Y6240358D01*
X9538218Y6247200D01*
D02*
G37*
G36*
X9512300D02*
X9511782D01*
X9486247Y6240358D01*
X9463353Y6227140D01*
X9444660Y6208447D01*
X9431442Y6185553D01*
X9424600Y6160018D01*
Y6159500D01*
X9512300D01*
Y6247200D01*
D02*
G37*
G36*
X8268218D02*
X8267700D01*
Y6159500D01*
X8355400D01*
Y6160018D01*
X8348558Y6185553D01*
X8335340Y6208447D01*
X8316647Y6227140D01*
X8293753Y6240358D01*
X8268218Y6247200D01*
D02*
G37*
G36*
X8242300D02*
X8241782D01*
X8216247Y6240358D01*
X8193353Y6227140D01*
X8174660Y6208447D01*
X8161442Y6185553D01*
X8154600Y6160018D01*
Y6159500D01*
X8242300D01*
Y6247200D01*
D02*
G37*
G36*
X9283549Y6242120D02*
X9258451D01*
X9234208Y6235624D01*
X9212472Y6223075D01*
X9194725Y6205328D01*
X9182176Y6183592D01*
X9175680Y6159349D01*
Y6134251D01*
X9182176Y6110008D01*
X9194725Y6088272D01*
X9212472Y6070525D01*
X9234208Y6057976D01*
X9258451Y6051480D01*
X9283549D01*
X9307792Y6057976D01*
X9329528Y6070525D01*
X9347275Y6088272D01*
X9359824Y6110008D01*
X9366320Y6134251D01*
Y6159349D01*
X9359824Y6183592D01*
X9347275Y6205328D01*
X9329528Y6223075D01*
X9307792Y6235624D01*
X9283549Y6242120D01*
D02*
G37*
G36*
X9029549D02*
X9004451D01*
X8980208Y6235624D01*
X8958472Y6223075D01*
X8940725Y6205328D01*
X8928176Y6183592D01*
X8921680Y6159349D01*
Y6134251D01*
X8928176Y6110008D01*
X8940725Y6088272D01*
X8958472Y6070525D01*
X8980208Y6057976D01*
X9004451Y6051480D01*
X9029549D01*
X9053792Y6057976D01*
X9075528Y6070525D01*
X9093275Y6088272D01*
X9105824Y6110008D01*
X9112320Y6134251D01*
Y6159349D01*
X9105824Y6183592D01*
X9093275Y6205328D01*
X9075528Y6223075D01*
X9053792Y6235624D01*
X9029549Y6242120D01*
D02*
G37*
G36*
X8858320D02*
X8667680D01*
Y6051480D01*
X8858320D01*
Y6242120D01*
D02*
G37*
G36*
X8013549D02*
X7988451D01*
X7964208Y6235624D01*
X7942472Y6223075D01*
X7924725Y6205328D01*
X7912176Y6183592D01*
X7905680Y6159349D01*
Y6134251D01*
X7912176Y6110008D01*
X7924725Y6088272D01*
X7942472Y6070525D01*
X7964208Y6057976D01*
X7988451Y6051480D01*
X8013549D01*
X8037792Y6057976D01*
X8059528Y6070525D01*
X8077275Y6088272D01*
X8089824Y6110008D01*
X8096320Y6134251D01*
Y6159349D01*
X8089824Y6183592D01*
X8077275Y6205328D01*
X8059528Y6223075D01*
X8037792Y6235624D01*
X8013549Y6242120D01*
D02*
G37*
G36*
X7759549D02*
X7734451D01*
X7710208Y6235624D01*
X7688472Y6223075D01*
X7670725Y6205328D01*
X7658176Y6183592D01*
X7651680Y6159349D01*
Y6134251D01*
X7658176Y6110008D01*
X7670725Y6088272D01*
X7688472Y6070525D01*
X7710208Y6057976D01*
X7734451Y6051480D01*
X7759549D01*
X7783792Y6057976D01*
X7805528Y6070525D01*
X7823275Y6088272D01*
X7835824Y6110008D01*
X7842320Y6134251D01*
Y6159349D01*
X7835824Y6183592D01*
X7823275Y6205328D01*
X7805528Y6223075D01*
X7783792Y6235624D01*
X7759549Y6242120D01*
D02*
G37*
G36*
X7588320D02*
X7397680D01*
Y6051480D01*
X7588320D01*
Y6242120D01*
D02*
G37*
G36*
X9625400Y6134100D02*
X9537700D01*
Y6046400D01*
X9538218D01*
X9563753Y6053242D01*
X9586647Y6066460D01*
X9605340Y6085153D01*
X9618558Y6108047D01*
X9625400Y6133582D01*
Y6134100D01*
D02*
G37*
G36*
X9512300D02*
X9424600D01*
Y6133582D01*
X9431442Y6108047D01*
X9444660Y6085153D01*
X9463353Y6066460D01*
X9486247Y6053242D01*
X9511782Y6046400D01*
X9512300D01*
Y6134100D01*
D02*
G37*
G36*
X8355400D02*
X8267700D01*
Y6046400D01*
X8268218D01*
X8293753Y6053242D01*
X8316647Y6066460D01*
X8335340Y6085153D01*
X8348558Y6108047D01*
X8355400Y6133582D01*
Y6134100D01*
D02*
G37*
G36*
X8242300D02*
X8154600D01*
Y6133582D01*
X8161442Y6108047D01*
X8174660Y6085153D01*
X8193353Y6066460D01*
X8216247Y6053242D01*
X8241782Y6046400D01*
X8242300D01*
Y6134100D01*
D02*
G37*
G36*
X4182375Y6266320D02*
X4148825D01*
X4115919Y6259775D01*
X4084923Y6246936D01*
X4057027Y6228296D01*
X4033304Y6204573D01*
X4014664Y6176677D01*
X4001825Y6145681D01*
X3995280Y6112775D01*
Y6079225D01*
X4001825Y6046319D01*
X4014664Y6015323D01*
X4033304Y5987427D01*
X4057027Y5963704D01*
X4084923Y5945064D01*
X4115919Y5932225D01*
X4148825Y5925680D01*
X4182375D01*
X4215281Y5932225D01*
X4246277Y5945064D01*
X4274173Y5963704D01*
X4297896Y5987427D01*
X4316536Y6015323D01*
X4329375Y6046319D01*
X4335920Y6079225D01*
Y6112775D01*
X4329375Y6145681D01*
X4316536Y6176677D01*
X4297896Y6204573D01*
X4274173Y6228296D01*
X4246277Y6246936D01*
X4215281Y6259775D01*
X4182375Y6266320D01*
D02*
G37*
G36*
X3225210Y6520320D02*
X3174790D01*
X3124991Y6512433D01*
X3077040Y6496852D01*
X3032116Y6473962D01*
X2991325Y6444326D01*
X2955674Y6408675D01*
X2926038Y6367884D01*
X2903148Y6322960D01*
X2887567Y6275009D01*
X2879680Y6225210D01*
Y6174790D01*
X2887567Y6124992D01*
X2903148Y6077040D01*
X2926038Y6032116D01*
X2955674Y5991326D01*
X2991325Y5955674D01*
X3032116Y5926038D01*
X3077040Y5903148D01*
X3124991Y5887567D01*
X3174790Y5879680D01*
X3225210D01*
X3275008Y5887567D01*
X3322960Y5903148D01*
X3367884Y5926038D01*
X3408674Y5955674D01*
X3444326Y5991326D01*
X3473962Y6032116D01*
X3496852Y6077040D01*
X3512433Y6124992D01*
X3520320Y6174790D01*
Y6225210D01*
X3512433Y6275009D01*
X3496852Y6322960D01*
X3473962Y6367884D01*
X3444326Y6408675D01*
X3408674Y6444326D01*
X3367884Y6473962D01*
X3322960Y6496852D01*
X3275008Y6512433D01*
X3225210Y6520320D01*
D02*
G37*
G36*
X8525210Y5698120D02*
X8474790D01*
X8424992Y5690233D01*
X8377040Y5674652D01*
X8332116Y5651762D01*
X8291326Y5622126D01*
X8255674Y5586474D01*
X8226038Y5545684D01*
X8203148Y5500760D01*
X8187567Y5452808D01*
X8179680Y5403010D01*
Y5352590D01*
X8187567Y5302792D01*
X8203148Y5254840D01*
X8226038Y5209916D01*
X8255674Y5169126D01*
X8291326Y5133474D01*
X8332116Y5103838D01*
X8377040Y5080948D01*
X8424992Y5065367D01*
X8474790Y5057480D01*
X8525210D01*
X8575009Y5065367D01*
X8622960Y5080948D01*
X8667884Y5103838D01*
X8708674Y5133474D01*
X8744326Y5169126D01*
X8773962Y5209916D01*
X8796852Y5254840D01*
X8812433Y5302792D01*
X8820320Y5352590D01*
Y5403010D01*
X8812433Y5452808D01*
X8796852Y5500760D01*
X8773962Y5545684D01*
X8744326Y5586474D01*
X8708674Y5622126D01*
X8667884Y5651762D01*
X8622960Y5674652D01*
X8575009Y5690233D01*
X8525210Y5698120D01*
D02*
G37*
G36*
X5422326Y5090160D02*
X5398074D01*
X5375669Y5080879D01*
X5358521Y5063731D01*
X5349240Y5041326D01*
Y5017074D01*
X5350353Y5014388D01*
X5349079Y5012676D01*
X5340109Y5005931D01*
X5320726Y5013960D01*
X5296474D01*
X5274069Y5004679D01*
X5256921Y4987531D01*
X5247640Y4965126D01*
Y4940874D01*
X5256921Y4918469D01*
X5274069Y4901321D01*
X5274933Y4900963D01*
Y3835400D01*
X5277496Y3822516D01*
X5284794Y3811594D01*
X5310194Y3786194D01*
X5321116Y3778896D01*
X5334000Y3776333D01*
X5815363D01*
X5815721Y3775469D01*
X5832869Y3758321D01*
X5855274Y3749040D01*
X5879526D01*
X5901931Y3758321D01*
X5919079Y3775469D01*
X5928360Y3797874D01*
Y3822126D01*
X5919079Y3844531D01*
X5901931Y3861679D01*
X5879526Y3870960D01*
X5855274D01*
X5832869Y3861679D01*
X5815721Y3844531D01*
X5815363Y3843667D01*
X5347945D01*
X5342267Y3849345D01*
Y4086322D01*
X5354967Y4088848D01*
X5358521Y4080269D01*
X5375669Y4063121D01*
X5398074Y4053840D01*
X5422326D01*
X5444731Y4063121D01*
X5461879Y4080269D01*
X5471160Y4102674D01*
Y4126926D01*
X5461879Y4149331D01*
X5444731Y4166479D01*
X5443867Y4166837D01*
Y4977163D01*
X5444731Y4977521D01*
X5461879Y4994669D01*
X5471160Y5017074D01*
Y5041326D01*
X5461879Y5063731D01*
X5444731Y5080879D01*
X5422326Y5090160D01*
D02*
G37*
G36*
X4863526Y6156960D02*
X4839274D01*
X4816869Y6147679D01*
X4799721Y6130531D01*
X4790440Y6108126D01*
Y6083874D01*
X4798310Y6064875D01*
Y5746125D01*
X4790440Y5727126D01*
Y5702874D01*
X4798310Y5683875D01*
Y4272925D01*
X4790440Y4253926D01*
Y4229674D01*
X4799721Y4207269D01*
X4816869Y4190121D01*
X4839274Y4180840D01*
X4863526D01*
X4885931Y4190121D01*
X4903079Y4207269D01*
X4906633Y4215848D01*
X4919333Y4213322D01*
Y3354037D01*
X4918469Y3353679D01*
X4901321Y3336531D01*
X4892040Y3314126D01*
Y3289874D01*
X4901321Y3267469D01*
X4918469Y3250321D01*
X4940874Y3241040D01*
X4965126D01*
X4987531Y3250321D01*
X5004679Y3267469D01*
X5013960Y3289874D01*
Y3314126D01*
X5004679Y3336531D01*
X4987531Y3353679D01*
X4986667Y3354037D01*
Y4265008D01*
X4985409Y4271334D01*
Y5110140D01*
X4998109Y5118273D01*
X5013276Y5111991D01*
X5037527D01*
X5059933Y5121271D01*
X5077081Y5138420D01*
X5077439Y5139284D01*
X5821825D01*
X5833733Y5127376D01*
Y4854478D01*
X5821033Y4851952D01*
X5817479Y4860531D01*
X5800331Y4877679D01*
X5777926Y4886960D01*
X5753674D01*
X5731269Y4877679D01*
X5714121Y4860531D01*
X5704840Y4838126D01*
Y4813874D01*
X5705953Y4811188D01*
X5704679Y4809476D01*
X5695709Y4802731D01*
X5676326Y4810760D01*
X5652074D01*
X5629669Y4801479D01*
X5612521Y4784331D01*
X5603240Y4761926D01*
Y4737674D01*
X5604353Y4734988D01*
X5603079Y4733276D01*
X5594109Y4726531D01*
X5574726Y4734560D01*
X5550474D01*
X5528069Y4725279D01*
X5510921Y4708131D01*
X5501640Y4685726D01*
Y4661474D01*
X5510921Y4639069D01*
X5528069Y4621921D01*
X5550474Y4612640D01*
X5574726D01*
X5575590Y4612998D01*
X5691194Y4497394D01*
X5702116Y4490096D01*
X5715000Y4487533D01*
X6094763D01*
X6095121Y4486669D01*
X6112269Y4469521D01*
X6134674Y4460240D01*
X6158926D01*
X6178309Y4468269D01*
X6187279Y4461524D01*
X6188553Y4459812D01*
X6187440Y4457126D01*
Y4432874D01*
X6196721Y4410469D01*
X6213869Y4393321D01*
X6214733Y4392963D01*
Y4293837D01*
X6213869Y4293479D01*
X6196721Y4276331D01*
X6187440Y4253926D01*
Y4229674D01*
X6196721Y4207269D01*
X6213869Y4190121D01*
X6236274Y4180840D01*
X6260526D01*
X6282931Y4190121D01*
X6300079Y4207269D01*
X6309360Y4229674D01*
Y4253926D01*
X6300079Y4276331D01*
X6282931Y4293479D01*
X6282067Y4293837D01*
Y4392963D01*
X6282931Y4393321D01*
X6300079Y4410469D01*
X6309360Y4432874D01*
Y4457126D01*
X6300079Y4479531D01*
X6282931Y4496679D01*
X6260526Y4505960D01*
X6236274D01*
X6216891Y4497931D01*
X6207921Y4504676D01*
X6206647Y4506388D01*
X6207760Y4509074D01*
Y4533326D01*
X6206647Y4536012D01*
X6207921Y4537724D01*
X6216891Y4544469D01*
X6236274Y4536440D01*
X6260526D01*
X6282931Y4545721D01*
X6300079Y4562869D01*
X6309360Y4585274D01*
Y4609526D01*
X6300079Y4631931D01*
X6282931Y4649079D01*
X6260526Y4658360D01*
X6236274D01*
X6213869Y4649079D01*
X6196721Y4631931D01*
X6196363Y4631067D01*
X5830545D01*
X5730160Y4731452D01*
X5730935Y4734564D01*
X5734249Y4736454D01*
X5744878Y4737989D01*
X5756873Y4725994D01*
X5767795Y4718696D01*
X5780679Y4716133D01*
X6094763D01*
X6095121Y4715269D01*
X6112269Y4698121D01*
X6134674Y4688840D01*
X6158926D01*
X6181331Y4698121D01*
X6198479Y4715269D01*
X6207760Y4737674D01*
Y4761926D01*
X6206647Y4764612D01*
X6207921Y4766324D01*
X6216891Y4773069D01*
X6236274Y4765040D01*
X6260526D01*
X6282931Y4774321D01*
X6300079Y4791469D01*
X6309360Y4813874D01*
Y4838126D01*
X6300079Y4860531D01*
X6282931Y4877679D01*
X6260526Y4886960D01*
X6236274D01*
X6213869Y4877679D01*
X6196721Y4860531D01*
X6196363Y4859667D01*
X5906745D01*
X5901067Y4865345D01*
Y5141321D01*
X5898504Y5154205D01*
X5891206Y5165127D01*
X5869225Y5187108D01*
X5871703Y5199564D01*
X5875804Y5201263D01*
X5892952Y5218411D01*
X5902233Y5240816D01*
Y5265068D01*
X5892952Y5287473D01*
X5875804Y5304621D01*
X5875303Y5304829D01*
Y5637412D01*
X5876531Y5637921D01*
X5893679Y5655069D01*
X5902960Y5677474D01*
Y5701726D01*
X5893679Y5724131D01*
X5876531Y5741279D01*
X5854126Y5750560D01*
X5829874D01*
X5807469Y5741279D01*
X5790321Y5724131D01*
X5781040Y5701726D01*
Y5677474D01*
X5790321Y5655069D01*
X5807469Y5637921D01*
X5807969Y5637713D01*
Y5305130D01*
X5806741Y5304621D01*
X5789593Y5287473D01*
X5780313Y5265068D01*
Y5240816D01*
X5789593Y5218411D01*
X5789653Y5218351D01*
X5784793Y5206618D01*
X5077439D01*
X5077081Y5207482D01*
X5059933Y5224630D01*
X5037527Y5233911D01*
X5013276D01*
X5002393Y5229403D01*
X4990588Y5236701D01*
X4989722Y5246910D01*
X5016210Y5273398D01*
X5017074Y5273040D01*
X5041326D01*
X5063731Y5282321D01*
X5080879Y5299469D01*
X5090160Y5321874D01*
Y5346126D01*
X5080879Y5368531D01*
X5063731Y5385679D01*
X5041326Y5394960D01*
X5017074D01*
X4994669Y5385679D01*
X4977521Y5368531D01*
X4968240Y5346126D01*
Y5321874D01*
X4968598Y5321010D01*
X4927936Y5280348D01*
X4920638Y5269426D01*
X4918075Y5256542D01*
Y4288843D01*
X4905375Y4282837D01*
X4904490Y4283563D01*
Y5683875D01*
X4912360Y5702874D01*
Y5727126D01*
X4904490Y5746125D01*
Y6064875D01*
X4912360Y6083874D01*
Y6108126D01*
X4903079Y6130531D01*
X4885931Y6147679D01*
X4863526Y6156960D01*
D02*
G37*
G36*
X3212526Y5775960D02*
X3188274D01*
X3165869Y5766679D01*
X3148721Y5749531D01*
X3139440Y5727126D01*
Y5702874D01*
X3148721Y5680469D01*
X3165869Y5663321D01*
X3166733Y5662963D01*
Y4775200D01*
X3169296Y4762316D01*
X3176594Y4751394D01*
X3217533Y4710455D01*
Y4640966D01*
X3204833Y4638440D01*
X3198936Y4652677D01*
X3180296Y4680573D01*
X3156573Y4704296D01*
X3128677Y4722936D01*
X3097681Y4735775D01*
X3064775Y4742320D01*
X3031225D01*
X2998319Y4735775D01*
X2967323Y4722936D01*
X2939427Y4704296D01*
X2915704Y4680573D01*
X2897064Y4652677D01*
X2884225Y4621681D01*
X2877680Y4588775D01*
Y4555225D01*
X2884225Y4522319D01*
X2897064Y4491323D01*
X2915704Y4463427D01*
X2939427Y4439704D01*
X2967323Y4421064D01*
X2998319Y4408225D01*
X3031225Y4401680D01*
X3064775D01*
X3097681Y4408225D01*
X3128677Y4421064D01*
X3156573Y4439704D01*
X3180296Y4463427D01*
X3198936Y4491323D01*
X3204833Y4505560D01*
X3217533Y4503034D01*
Y3379437D01*
X3216669Y3379079D01*
X3199521Y3361931D01*
X3190240Y3339526D01*
Y3315274D01*
X3199521Y3292869D01*
X3216669Y3275721D01*
X3239074Y3266440D01*
X3263326D01*
X3285731Y3275721D01*
X3302879Y3292869D01*
X3312160Y3315274D01*
Y3339526D01*
X3302879Y3361931D01*
X3285731Y3379079D01*
X3284867Y3379437D01*
Y4724400D01*
X3282304Y4737284D01*
X3275006Y4748206D01*
X3234067Y4789145D01*
Y5662963D01*
X3234931Y5663321D01*
X3252079Y5680469D01*
X3261360Y5702874D01*
Y5727126D01*
X3252079Y5749531D01*
X3234931Y5766679D01*
X3212526Y5775960D01*
D02*
G37*
G36*
X4101526Y5521960D02*
X4077274D01*
X4054869Y5512679D01*
X4037721Y5495531D01*
X4028440Y5473126D01*
Y5448874D01*
X4037721Y5426469D01*
X4054869Y5409321D01*
X4055733Y5408963D01*
Y4624037D01*
X4054869Y4623679D01*
X4037721Y4606531D01*
X4028440Y4584126D01*
Y4559874D01*
X4037721Y4537469D01*
X4054869Y4520321D01*
X4077274Y4511040D01*
X4101526D01*
X4123931Y4520321D01*
X4141079Y4537469D01*
X4150360Y4559874D01*
Y4584126D01*
X4141079Y4606531D01*
X4123931Y4623679D01*
X4123067Y4624037D01*
Y5408963D01*
X4123931Y5409321D01*
X4141079Y5426469D01*
X4150360Y5448874D01*
Y5473126D01*
X4141079Y5495531D01*
X4123931Y5512679D01*
X4101526Y5521960D01*
D02*
G37*
G36*
X7327326Y4886960D02*
X7303074D01*
X7280669Y4877679D01*
X7263521Y4860531D01*
X7254240Y4838126D01*
Y4813874D01*
X7263521Y4791469D01*
X7280669Y4774321D01*
X7281533Y4773963D01*
Y4497037D01*
X7280669Y4496679D01*
X7263521Y4479531D01*
X7254240Y4457126D01*
Y4432874D01*
X7263521Y4410469D01*
X7280669Y4393321D01*
X7303074Y4384040D01*
X7327326D01*
X7349731Y4393321D01*
X7366879Y4410469D01*
X7376160Y4432874D01*
Y4457126D01*
X7366879Y4479531D01*
X7349731Y4496679D01*
X7348867Y4497037D01*
Y4773963D01*
X7349731Y4774321D01*
X7366879Y4791469D01*
X7376160Y4813874D01*
Y4838126D01*
X7366879Y4860531D01*
X7349731Y4877679D01*
X7327326Y4886960D01*
D02*
G37*
G36*
X4228526Y5267960D02*
X4204274D01*
X4181869Y5258679D01*
X4164721Y5241531D01*
X4155440Y5219126D01*
Y5194874D01*
X4164721Y5172469D01*
X4181869Y5155321D01*
X4182733Y5154963D01*
Y4384788D01*
X4173492Y4375547D01*
X4172628Y4375905D01*
X4148377D01*
X4125971Y4366624D01*
X4108823Y4349476D01*
X4099542Y4327071D01*
Y4302819D01*
X4108823Y4280414D01*
X4125971Y4263266D01*
X4148377Y4253985D01*
X4172628D01*
X4195033Y4263266D01*
X4212182Y4280414D01*
X4221462Y4302819D01*
Y4327071D01*
X4221104Y4327935D01*
X4240206Y4347037D01*
X4247504Y4357959D01*
X4250067Y4370843D01*
Y5154963D01*
X4250931Y5155321D01*
X4268079Y5172469D01*
X4277360Y5194874D01*
Y5219126D01*
X4268079Y5241531D01*
X4250931Y5258679D01*
X4228526Y5267960D01*
D02*
G37*
G36*
X7098726Y6029960D02*
X7074474D01*
X7052069Y6020679D01*
X7034921Y6003531D01*
X7025640Y5981126D01*
Y5956874D01*
X7033510Y5937875D01*
Y5619125D01*
X7025640Y5600126D01*
Y5575874D01*
X7033510Y5556875D01*
Y5365125D01*
X7025640Y5346126D01*
Y5321874D01*
X7033510Y5302875D01*
Y5034925D01*
X7025640Y5015926D01*
Y4991674D01*
X7033510Y4972675D01*
Y4272925D01*
X7025640Y4253926D01*
Y4229674D01*
X7034921Y4207269D01*
X7052069Y4190121D01*
X7074474Y4180840D01*
X7098726D01*
X7121131Y4190121D01*
X7138279Y4207269D01*
X7147560Y4229674D01*
Y4253926D01*
X7139690Y4272925D01*
Y4972675D01*
X7147560Y4991674D01*
Y5015926D01*
X7139690Y5034925D01*
Y5302875D01*
X7147560Y5321874D01*
Y5346126D01*
X7139690Y5365125D01*
Y5556875D01*
X7147560Y5575874D01*
Y5600126D01*
X7139690Y5619125D01*
Y5937875D01*
X7147560Y5956874D01*
Y5981126D01*
X7138279Y6003531D01*
X7121131Y6020679D01*
X7098726Y6029960D01*
D02*
G37*
G36*
X8652775Y4361320D02*
X8619225D01*
X8586319Y4354775D01*
X8555323Y4341936D01*
X8527427Y4323296D01*
X8503704Y4299573D01*
X8485064Y4271677D01*
X8472225Y4240681D01*
X8465680Y4207775D01*
Y4174225D01*
X8472225Y4141319D01*
X8485064Y4110323D01*
X8503704Y4082427D01*
X8527427Y4058704D01*
X8555323Y4040064D01*
X8586319Y4027225D01*
X8619225Y4020680D01*
X8652775D01*
X8685681Y4027225D01*
X8716677Y4040064D01*
X8744573Y4058704D01*
X8768296Y4082427D01*
X8786936Y4110323D01*
X8799775Y4141319D01*
X8806320Y4174225D01*
Y4207775D01*
X8799775Y4240681D01*
X8786936Y4271677D01*
X8768296Y4299573D01*
X8744573Y4323296D01*
X8716677Y4341936D01*
X8685681Y4354775D01*
X8652775Y4361320D01*
D02*
G37*
G36*
X9256336D02*
X9222786D01*
X9189880Y4354775D01*
X9158884Y4341936D01*
X9130988Y4323296D01*
X9107265Y4299573D01*
X9088625Y4271677D01*
X9075786Y4240681D01*
X9069241Y4207775D01*
Y4174225D01*
X9075786Y4141319D01*
X9088625Y4110323D01*
X9107265Y4082427D01*
X9121301Y4068391D01*
X9122347Y4066883D01*
X9139828Y4050002D01*
X9155069Y4034418D01*
X9180296Y4005701D01*
X9189704Y3993308D01*
X9197277Y3981927D01*
X9202888Y3971857D01*
X9206587Y3963278D01*
X9208525Y3956411D01*
X9208914Y3952651D01*
Y3859524D01*
X9193921Y3844531D01*
X9184640Y3822126D01*
Y3797874D01*
X9193921Y3775469D01*
X9211069Y3758321D01*
X9211933Y3757963D01*
Y3413248D01*
X9188839Y3390155D01*
X9187975Y3390512D01*
X9163724D01*
X9141319Y3381232D01*
X9124170Y3364083D01*
X9114890Y3341678D01*
Y3317427D01*
X9124170Y3295021D01*
X9141319Y3277873D01*
X9163724Y3268592D01*
X9187975D01*
X9210381Y3277873D01*
X9227529Y3295021D01*
X9236810Y3317427D01*
Y3341678D01*
X9236452Y3342542D01*
X9269406Y3375497D01*
X9276704Y3386419D01*
X9279267Y3399303D01*
Y3757963D01*
X9280131Y3758321D01*
X9297279Y3775469D01*
X9306560Y3797874D01*
Y3822126D01*
X9297279Y3844531D01*
X9280131Y3861679D01*
X9276247Y3863288D01*
Y3953111D01*
X9276615Y3956616D01*
X9278527Y3963413D01*
X9282204Y3972101D01*
X9287778Y3982421D01*
X9295284Y3994184D01*
X9304493Y4006953D01*
X9344692Y4053970D01*
X9361658Y4071683D01*
X9362617Y4073187D01*
X9371857Y4082427D01*
X9390497Y4110323D01*
X9403336Y4141319D01*
X9409881Y4174225D01*
Y4207775D01*
X9403336Y4240681D01*
X9390497Y4271677D01*
X9371857Y4299573D01*
X9348134Y4323296D01*
X9320238Y4341936D01*
X9289242Y4354775D01*
X9256336Y4361320D01*
D02*
G37*
G36*
X1942526Y4963160D02*
X1918274D01*
X1895869Y4953879D01*
X1878721Y4936731D01*
X1869440Y4914326D01*
Y4890074D01*
X1877310Y4871075D01*
Y3381694D01*
X1865577Y3376834D01*
X1863331Y3379079D01*
X1840926Y3388360D01*
X1816674D01*
X1794269Y3379079D01*
X1777121Y3361931D01*
X1767840Y3339526D01*
Y3315274D01*
X1768198Y3314410D01*
X1728751Y3274963D01*
X1721453Y3264041D01*
X1718890Y3251157D01*
Y2524149D01*
X1718511Y2520512D01*
X1716586Y2513677D01*
X1712898Y2505042D01*
X1707303Y2494844D01*
X1699759Y2483267D01*
X1690510Y2470770D01*
X1649980Y2424914D01*
X1632877Y2407742D01*
X1631780Y2406092D01*
X1620261Y2394573D01*
X1601621Y2366677D01*
X1588782Y2335681D01*
X1582237Y2302775D01*
Y2269225D01*
X1588782Y2236319D01*
X1601621Y2205323D01*
X1620261Y2177427D01*
X1643984Y2153704D01*
X1671880Y2135064D01*
X1702876Y2122225D01*
X1735782Y2115680D01*
X1769332D01*
X1802237Y2122225D01*
X1833234Y2135064D01*
X1861130Y2153704D01*
X1884853Y2177427D01*
X1903493Y2205323D01*
X1916332Y2236319D01*
X1922877Y2269225D01*
Y2302775D01*
X1916332Y2335681D01*
X1903493Y2366677D01*
X1884853Y2394573D01*
X1873430Y2405996D01*
X1872426Y2407549D01*
X1839667Y2441310D01*
X1814716Y2470618D01*
X1805355Y2483267D01*
X1797811Y2494844D01*
X1792216Y2505041D01*
X1788528Y2513675D01*
X1786603Y2520512D01*
X1786224Y2524149D01*
Y3237211D01*
X1815810Y3266798D01*
X1816674Y3266440D01*
X1840926D01*
X1863331Y3275721D01*
X1865577Y3277966D01*
X1877310Y3273106D01*
Y2571125D01*
X1869440Y2552126D01*
Y2527874D01*
X1878721Y2505469D01*
X1895869Y2488321D01*
X1918274Y2479040D01*
X1942526D01*
X1964931Y2488321D01*
X1982079Y2505469D01*
X1991360Y2527874D01*
Y2552126D01*
X1983490Y2571125D01*
Y4871075D01*
X1991360Y4890074D01*
Y4914326D01*
X1982079Y4936731D01*
X1964931Y4953879D01*
X1942526Y4963160D01*
D02*
G37*
G36*
X4080775Y3665500D02*
X4047225D01*
X4014319Y3658955D01*
X3983323Y3646116D01*
X3955427Y3627476D01*
X3931704Y3603753D01*
X3913064Y3575857D01*
X3900225Y3544861D01*
X3893680Y3511955D01*
Y3478405D01*
X3900225Y3445500D01*
X3913064Y3414503D01*
X3931704Y3386607D01*
X3943127Y3375185D01*
X3944131Y3373631D01*
X3976890Y3339871D01*
X4001841Y3310562D01*
X4011202Y3297913D01*
X4018746Y3286336D01*
X4024340Y3276139D01*
X4028029Y3267505D01*
X4029954Y3260669D01*
X4030333Y3257032D01*
Y3227037D01*
X4029469Y3226679D01*
X4012321Y3209531D01*
X4003040Y3187126D01*
Y3162874D01*
X4012321Y3140469D01*
X4029469Y3123321D01*
X4051874Y3114040D01*
X4076126D01*
X4098531Y3123321D01*
X4115679Y3140469D01*
X4124960Y3162874D01*
Y3187126D01*
X4115679Y3209531D01*
X4098531Y3226679D01*
X4097667Y3227037D01*
Y3257031D01*
X4098046Y3260669D01*
X4099971Y3267503D01*
X4103659Y3276138D01*
X4109254Y3286336D01*
X4116798Y3297913D01*
X4126047Y3310411D01*
X4166576Y3356266D01*
X4183679Y3373439D01*
X4184777Y3375088D01*
X4196296Y3386607D01*
X4214936Y3414503D01*
X4227775Y3445500D01*
X4234320Y3478405D01*
Y3511955D01*
X4227775Y3544861D01*
X4214936Y3575857D01*
X4196296Y3603753D01*
X4172573Y3627476D01*
X4144677Y3646116D01*
X4113681Y3658955D01*
X4080775Y3665500D01*
D02*
G37*
G36*
X3575475Y3665500D02*
X3541925D01*
X3509019Y3658955D01*
X3478023Y3646115D01*
X3450127Y3627476D01*
X3426404Y3603753D01*
X3407764Y3575856D01*
X3394925Y3544860D01*
X3388380Y3511955D01*
Y3478405D01*
X3394925Y3445499D01*
X3407764Y3414503D01*
X3426404Y3386607D01*
X3435785Y3377225D01*
X3436679Y3375791D01*
X3469184Y3341143D01*
X3493965Y3311203D01*
X3503286Y3298314D01*
X3510796Y3286570D01*
X3516372Y3276264D01*
X3520051Y3267581D01*
X3521963Y3260780D01*
X3522333Y3257259D01*
Y3178938D01*
X3501498Y3158102D01*
X3480374D01*
X3457969Y3148822D01*
X3440821Y3131673D01*
X3431540Y3109268D01*
Y3085017D01*
X3440821Y3062611D01*
X3457969Y3045463D01*
X3480374Y3036182D01*
X3504626D01*
X3527031Y3045463D01*
X3544179Y3062611D01*
X3549127Y3074555D01*
X3562873D01*
X3567821Y3062611D01*
X3579012Y3051420D01*
Y2924581D01*
X3564773Y2910341D01*
X3246469D01*
X3234931Y2921879D01*
X3212526Y2931160D01*
X3188274D01*
X3165869Y2921879D01*
X3148721Y2904731D01*
X3139440Y2882326D01*
Y2858074D01*
X3148721Y2835669D01*
X3165869Y2818521D01*
X3188274Y2809240D01*
X3212526D01*
X3234931Y2818521D01*
X3246469Y2830059D01*
X3581400D01*
X3596761Y2833114D01*
X3609784Y2841816D01*
X3647538Y2879569D01*
X3656239Y2892592D01*
X3659295Y2907954D01*
Y3050727D01*
X3671179Y3062611D01*
X3680460Y3085017D01*
Y3109268D01*
X3671179Y3131673D01*
X3654031Y3148822D01*
X3631626Y3158102D01*
X3607374D01*
X3600695Y3155336D01*
X3589563Y3164471D01*
X3589667Y3164992D01*
Y3256850D01*
X3590055Y3260596D01*
X3591991Y3267460D01*
X3595689Y3276046D01*
X3601299Y3286129D01*
X3608869Y3297531D01*
X3618150Y3309790D01*
X3658962Y3354619D01*
X3676137Y3371274D01*
X3676139Y3371274D01*
X3676139Y3371276D01*
X3676177Y3371312D01*
X3677240Y3372850D01*
X3690996Y3386607D01*
X3709636Y3414503D01*
X3722475Y3445499D01*
X3729020Y3478405D01*
Y3511955D01*
X3722475Y3544860D01*
X3709636Y3575856D01*
X3690996Y3603753D01*
X3667273Y3627476D01*
X3639377Y3646115D01*
X3608381Y3658955D01*
X3575475Y3665500D01*
D02*
G37*
G36*
X6336726Y3108960D02*
X6312474D01*
X6290069Y3099679D01*
X6272921Y3082531D01*
X6263640Y3060126D01*
Y3035874D01*
X6272921Y3013469D01*
X6290069Y2996321D01*
X6290933Y2995963D01*
Y2846037D01*
X6290069Y2845679D01*
X6272921Y2828531D01*
X6263640Y2806126D01*
Y2781874D01*
X6272921Y2759469D01*
X6290069Y2742321D01*
X6312474Y2733040D01*
X6336726D01*
X6359131Y2742321D01*
X6376279Y2759469D01*
X6385560Y2781874D01*
Y2806126D01*
X6376279Y2828531D01*
X6359131Y2845679D01*
X6358267Y2846037D01*
Y2995963D01*
X6359131Y2996321D01*
X6376279Y3013469D01*
X6385560Y3035874D01*
Y3060126D01*
X6376279Y3082531D01*
X6359131Y3099679D01*
X6336726Y3108960D01*
D02*
G37*
G36*
X5604775Y2971858D02*
X5571225D01*
X5538319Y2965313D01*
X5507323Y2952474D01*
X5479427Y2933834D01*
X5455704Y2910111D01*
X5437064Y2882215D01*
X5424225Y2851219D01*
X5417680Y2818313D01*
Y2784763D01*
X5424225Y2751858D01*
X5437064Y2720861D01*
X5455704Y2692965D01*
X5479427Y2669242D01*
X5507323Y2650603D01*
X5538319Y2637763D01*
X5571225Y2631218D01*
X5604775D01*
X5637681Y2637763D01*
X5668677Y2650603D01*
X5696573Y2669242D01*
X5720296Y2692965D01*
X5738936Y2720861D01*
X5751775Y2751858D01*
X5758320Y2784763D01*
Y2818313D01*
X5751775Y2851219D01*
X5738936Y2882215D01*
X5720296Y2910111D01*
X5696573Y2933834D01*
X5668677Y2952474D01*
X5637681Y2965313D01*
X5604775Y2971858D01*
D02*
G37*
G36*
X3110926Y2727960D02*
X3086674D01*
X3064269Y2718679D01*
X3047121Y2701531D01*
X3037840Y2679126D01*
Y2654874D01*
X3047121Y2632469D01*
X3064269Y2615321D01*
X3086674Y2606040D01*
X3110926D01*
X3133331Y2615321D01*
X3144325Y2626315D01*
X3700503D01*
X3712585Y2614233D01*
X3734990Y2604952D01*
X3759242D01*
X3781647Y2614233D01*
X3798796Y2631381D01*
X3808076Y2653787D01*
Y2678038D01*
X3798796Y2700443D01*
X3781647Y2717592D01*
X3759242Y2726872D01*
X3734990D01*
X3712585Y2717592D01*
X3701591Y2706598D01*
X3145413D01*
X3133331Y2718679D01*
X3110926Y2727960D01*
D02*
G37*
G36*
X6936314Y2600782D02*
X6912063D01*
X6889657Y2591502D01*
X6872509Y2574353D01*
X6863228Y2551948D01*
Y2527696D01*
X6872509Y2505291D01*
X6884419Y2493381D01*
Y2205811D01*
X6873254Y2194645D01*
X6863973Y2172240D01*
Y2147988D01*
X6873254Y2125583D01*
X6890402Y2108435D01*
X6912807Y2099154D01*
X6937059D01*
X6959464Y2108435D01*
X6976612Y2125583D01*
X6985893Y2147988D01*
Y2172240D01*
X6976612Y2194645D01*
X6964702Y2206555D01*
Y2494126D01*
X6975868Y2505291D01*
X6985148Y2527696D01*
Y2551948D01*
X6975868Y2574353D01*
X6958719Y2591502D01*
X6936314Y2600782D01*
D02*
G37*
G36*
X2907726Y2854960D02*
X2883474D01*
X2861069Y2845679D01*
X2843921Y2828531D01*
X2834640Y2806126D01*
Y2781874D01*
X2843921Y2759469D01*
X2855459Y2747931D01*
Y2105118D01*
X2858514Y2089757D01*
X2867216Y2076734D01*
X2891439Y2052511D01*
X2904462Y2043809D01*
X2919823Y2040754D01*
X6176931D01*
X6188469Y2029216D01*
X6210874Y2019935D01*
X6235126D01*
X6257531Y2029216D01*
X6274679Y2046364D01*
X6283960Y2068769D01*
Y2093021D01*
X6274679Y2115426D01*
X6257531Y2132574D01*
X6235126Y2141855D01*
X6210874D01*
X6188633Y2132642D01*
X6187963Y2132931D01*
X6177935Y2140001D01*
X6182360Y2150684D01*
Y2174936D01*
X6173079Y2197341D01*
X6155931Y2214489D01*
X6133526Y2223770D01*
X6109274D01*
X6086869Y2214489D01*
X6075331Y2202951D01*
X3538569D01*
X3531953Y2209568D01*
Y2375589D01*
X3528897Y2390950D01*
X3520195Y2403973D01*
X3482784Y2441384D01*
X3469761Y2450086D01*
X3454400Y2453141D01*
X3043269D01*
X3031731Y2464679D01*
X3009326Y2473960D01*
X2985074D01*
X2962669Y2464679D01*
X2948441Y2450452D01*
X2935741Y2454583D01*
Y2747931D01*
X2947279Y2759469D01*
X2956560Y2781874D01*
Y2806126D01*
X2947279Y2828531D01*
X2930131Y2845679D01*
X2907726Y2854960D01*
D02*
G37*
G36*
X7911526Y3769360D02*
X7887274D01*
X7864869Y3760079D01*
X7847721Y3742931D01*
X7838440Y3720526D01*
Y3696274D01*
X7847721Y3673869D01*
X7859259Y3662331D01*
Y2103469D01*
X7847721Y2091931D01*
X7838440Y2069526D01*
Y2045274D01*
X7847721Y2022869D01*
X7864869Y2005721D01*
X7887274Y1996440D01*
X7911526D01*
X7933931Y2005721D01*
X7951079Y2022869D01*
X7960360Y2045274D01*
Y2069526D01*
X7951079Y2091931D01*
X7939541Y2103469D01*
Y3662331D01*
X7951079Y3673869D01*
X7960360Y3696274D01*
Y3720526D01*
X7951079Y3742931D01*
X7933931Y3760079D01*
X7911526Y3769360D01*
D02*
G37*
G36*
X7441626Y2303631D02*
X7417374D01*
X7394969Y2294350D01*
X7377821Y2277202D01*
X7368540Y2254796D01*
Y2232255D01*
X7337616Y2201330D01*
X7328914Y2188308D01*
X7325859Y2172946D01*
Y1951069D01*
X7314321Y1939531D01*
X7305040Y1917126D01*
Y1892874D01*
X7314321Y1870469D01*
X7331469Y1853321D01*
X7353874Y1844040D01*
X7378126D01*
X7400531Y1853321D01*
X7417679Y1870469D01*
X7426960Y1892874D01*
Y1917126D01*
X7417679Y1939531D01*
X7406141Y1951069D01*
Y2156319D01*
X7431533Y2181711D01*
X7441626D01*
X7464031Y2190991D01*
X7481179Y2208140D01*
X7490460Y2230545D01*
Y2254796D01*
X7481179Y2277202D01*
X7464031Y2294350D01*
X7441626Y2303631D01*
D02*
G37*
G36*
X7200326Y3261360D02*
X7176074D01*
X7153669Y3252079D01*
X7136521Y3234931D01*
X7127240Y3212526D01*
Y3188274D01*
X7136521Y3165869D01*
X7148059Y3154331D01*
Y1951069D01*
X7136521Y1939531D01*
X7127240Y1917126D01*
Y1892874D01*
X7136521Y1870469D01*
X7153669Y1853321D01*
X7176074Y1844040D01*
X7200326D01*
X7222731Y1853321D01*
X7239879Y1870469D01*
X7249160Y1892874D01*
Y1917126D01*
X7239879Y1939531D01*
X7228341Y1951069D01*
Y3154331D01*
X7239879Y3165869D01*
X7249160Y3188274D01*
Y3212526D01*
X7239879Y3234931D01*
X7222731Y3252079D01*
X7200326Y3261360D01*
D02*
G37*
G36*
X425210Y2220320D02*
X374790D01*
X324991Y2212433D01*
X277040Y2196852D01*
X232116Y2173962D01*
X191326Y2144326D01*
X155674Y2108674D01*
X126038Y2067884D01*
X103148Y2022960D01*
X87567Y1975008D01*
X79680Y1925210D01*
Y1874790D01*
X87567Y1824992D01*
X103148Y1777040D01*
X126038Y1732116D01*
X155674Y1691326D01*
X191326Y1655674D01*
X232116Y1626038D01*
X277040Y1603148D01*
X324991Y1587567D01*
X374790Y1579680D01*
X425210D01*
X475008Y1587567D01*
X522960Y1603148D01*
X567884Y1626038D01*
X608674Y1655674D01*
X644326Y1691326D01*
X673962Y1732116D01*
X696852Y1777040D01*
X712433Y1824992D01*
X720320Y1874790D01*
Y1925210D01*
X712433Y1975008D01*
X696852Y2022960D01*
X673962Y2067884D01*
X644326Y2108674D01*
X608674Y2144326D01*
X567884Y2173962D01*
X522960Y2196852D01*
X475008Y2212433D01*
X425210Y2220320D01*
D02*
G37*
G36*
X6336726Y2346960D02*
X6312474D01*
X6290069Y2337679D01*
X6272921Y2320531D01*
X6263640Y2298126D01*
Y2273874D01*
X6272921Y2251469D01*
X6290069Y2234321D01*
X6312474Y2225040D01*
X6336726D01*
X6359131Y2234321D01*
X6370669Y2245859D01*
X6612773D01*
X6640059Y2218573D01*
Y1620869D01*
X6628521Y1609331D01*
X6619240Y1586926D01*
Y1562674D01*
X6628521Y1540269D01*
X6645669Y1523121D01*
X6668074Y1513840D01*
X6692326D01*
X6714731Y1523121D01*
X6731879Y1540269D01*
X6741160Y1562674D01*
Y1586926D01*
X6731879Y1609331D01*
X6720341Y1620869D01*
Y2235200D01*
X6717286Y2250561D01*
X6708584Y2263584D01*
X6657784Y2314384D01*
X6644761Y2323086D01*
X6629400Y2326141D01*
X6370669D01*
X6359131Y2337679D01*
X6336726Y2346960D01*
D02*
G37*
G36*
X2272726Y2219960D02*
X2248474D01*
X2226069Y2210679D01*
X2208921Y2193531D01*
X2199640Y2171126D01*
Y2146874D01*
X2208921Y2124469D01*
X2226069Y2107321D01*
X2248474Y2098040D01*
X2272726D01*
X2295131Y2107321D01*
X2306669Y2118859D01*
X2548773D01*
X2576059Y2091573D01*
Y1620869D01*
X2564521Y1609331D01*
X2555240Y1586926D01*
Y1562674D01*
X2564521Y1540269D01*
X2581669Y1523121D01*
X2604074Y1513840D01*
X2628326D01*
X2650731Y1523121D01*
X2667879Y1540269D01*
X2677160Y1562674D01*
Y1586926D01*
X2667879Y1609331D01*
X2656341Y1620869D01*
Y2108200D01*
X2653286Y2123561D01*
X2644584Y2136584D01*
X2593784Y2187384D01*
X2580761Y2196086D01*
X2565400Y2199141D01*
X2306669D01*
X2295131Y2210679D01*
X2272726Y2219960D01*
D02*
G37*
G36*
X9072973Y961998D02*
Y774700D01*
X9236522D01*
Y787000D01*
X9233135Y821384D01*
X9223106Y854447D01*
X9206819Y884918D01*
X9184900Y911627D01*
X9158192Y933545D01*
X9127721Y949832D01*
X9094658Y959862D01*
X9072973Y961998D01*
D02*
G37*
G36*
X9047573D02*
X9025889Y959862D01*
X8992826Y949832D01*
X8962355Y933545D01*
X8935647Y911627D01*
X8913728Y884918D01*
X8897441Y854447D01*
X8887411Y821384D01*
X8884025Y787000D01*
Y774700D01*
X9047573D01*
Y961998D01*
D02*
G37*
G36*
X1028700D02*
Y774700D01*
X1192249D01*
Y787000D01*
X1188862Y821384D01*
X1178833Y854447D01*
X1162545Y884918D01*
X1140627Y911627D01*
X1113919Y933545D01*
X1083447Y949832D01*
X1050384Y959862D01*
X1028700Y961998D01*
D02*
G37*
G36*
X1003300D02*
X981616Y959862D01*
X948553Y949832D01*
X918081Y933545D01*
X891373Y911627D01*
X869455Y884918D01*
X853167Y854447D01*
X843138Y821384D01*
X839751Y787000D01*
Y774700D01*
X1003300D01*
Y961998D01*
D02*
G37*
G36*
X9568273Y958144D02*
X9534885Y954856D01*
X9502779Y945116D01*
X9473191Y929301D01*
X9447256Y908017D01*
X9425972Y882083D01*
X9410157Y852494D01*
X9400418Y820389D01*
X9397129Y787000D01*
Y737000D01*
X9400418Y703611D01*
X9410157Y671506D01*
X9425972Y641917D01*
X9447256Y615983D01*
X9473191Y594699D01*
X9502779Y578884D01*
X9534885Y569144D01*
X9568273Y565856D01*
X9601662Y569144D01*
X9633768Y578884D01*
X9663356Y594699D01*
X9689291Y615983D01*
X9710575Y641917D01*
X9726390Y671506D01*
X9736129Y703611D01*
X9739418Y737000D01*
Y787000D01*
X9736129Y820389D01*
X9726390Y852494D01*
X9710575Y882083D01*
X9689291Y908017D01*
X9663356Y929301D01*
X9633768Y945116D01*
X9601662Y954856D01*
X9568273Y958144D01*
D02*
G37*
G36*
X508000D02*
X474611Y954856D01*
X442506Y945116D01*
X412917Y929301D01*
X386983Y908017D01*
X365699Y882083D01*
X349883Y852494D01*
X340144Y820389D01*
X336856Y787000D01*
Y737000D01*
X340144Y703611D01*
X349883Y671506D01*
X365699Y641917D01*
X386983Y615983D01*
X412917Y594699D01*
X442506Y578884D01*
X474611Y569144D01*
X508000Y565856D01*
X541389Y569144D01*
X573494Y578884D01*
X603083Y594699D01*
X629017Y615983D01*
X650301Y641917D01*
X666117Y671506D01*
X675856Y703611D01*
X679144Y737000D01*
Y787000D01*
X675856Y820389D01*
X666117Y852494D01*
X650301Y882083D01*
X629017Y908017D01*
X603083Y929301D01*
X573494Y945116D01*
X541389Y954856D01*
X508000Y958144D01*
D02*
G37*
G36*
X9236522Y749300D02*
X9072973D01*
Y562002D01*
X9094658Y564138D01*
X9127721Y574168D01*
X9158192Y590455D01*
X9184900Y612373D01*
X9206819Y639082D01*
X9223106Y669553D01*
X9233135Y702616D01*
X9236522Y737000D01*
Y749300D01*
D02*
G37*
G36*
X9047573D02*
X8884025D01*
Y737000D01*
X8887411Y702616D01*
X8897441Y669553D01*
X8913728Y639082D01*
X8935647Y612373D01*
X8962355Y590455D01*
X8992826Y574168D01*
X9025889Y564138D01*
X9047573Y562002D01*
Y749300D01*
D02*
G37*
G36*
X1192249D02*
X1028700D01*
Y562002D01*
X1050384Y564138D01*
X1083447Y574168D01*
X1113919Y590455D01*
X1140627Y612373D01*
X1162545Y639082D01*
X1178833Y669553D01*
X1188862Y702616D01*
X1192249Y737000D01*
Y749300D01*
D02*
G37*
G36*
X1003300D02*
X839751D01*
Y737000D01*
X843138Y702616D01*
X853167Y669553D01*
X869455Y639082D01*
X891373Y612373D01*
X918081Y590455D01*
X948553Y574168D01*
X981616Y564138D01*
X1003300Y562002D01*
Y749300D01*
D02*
G37*
%LPD*%
G36*
X5376533Y4924522D02*
Y4166837D01*
X5375669Y4166479D01*
X5358521Y4149331D01*
X5354967Y4140752D01*
X5342267Y4143278D01*
Y4900963D01*
X5343131Y4901321D01*
X5360279Y4918469D01*
X5363833Y4927048D01*
X5376533Y4924522D01*
D02*
G37*
G36*
X9329327Y4067881D02*
X9288190Y4019766D01*
X9278134Y4005824D01*
X9269907Y3992929D01*
X9263508Y3981081D01*
X9258937Y3970282D01*
X9256195Y3960530D01*
X9255280Y3951826D01*
X9229880Y3951313D01*
X9228949Y3960318D01*
X9226155Y3970222D01*
X9221498Y3981024D01*
X9214978Y3992724D01*
X9206595Y4005322D01*
X9196349Y4018819D01*
X9170270Y4048507D01*
X9154436Y4064697D01*
X9136739Y4081787D01*
X9346696Y4086014D01*
X9329327Y4067881D01*
D02*
G37*
G36*
X1766180Y2516602D02*
X1768949Y2506770D01*
X1773564Y2495966D01*
X1780025Y2484190D01*
X1788332Y2471442D01*
X1798485Y2457722D01*
X1824329Y2427366D01*
X1857557Y2393121D01*
X1647557D01*
X1665094Y2410730D01*
X1706629Y2457722D01*
X1716782Y2471442D01*
X1725089Y2484190D01*
X1731550Y2495966D01*
X1736165Y2506770D01*
X1738934Y2516602D01*
X1739857Y2525461D01*
X1765257D01*
X1766180Y2516602D01*
D02*
G37*
G36*
X4151463Y3370450D02*
X4109928Y3323458D01*
X4099775Y3309738D01*
X4091468Y3296990D01*
X4085007Y3285214D01*
X4080392Y3274410D01*
X4077623Y3264578D01*
X4076700Y3255719D01*
X4051300D01*
X4050377Y3264578D01*
X4047608Y3274410D01*
X4042993Y3285214D01*
X4036532Y3296990D01*
X4028225Y3309738D01*
X4018072Y3323458D01*
X3992228Y3353814D01*
X3959000Y3388059D01*
X4169000D01*
X4151463Y3370450D01*
D02*
G37*
G36*
X3661755Y3386186D02*
X3644074Y3369042D01*
X3602200Y3323046D01*
X3591964Y3309526D01*
X3583589Y3296911D01*
X3577075Y3285203D01*
X3572422Y3274401D01*
X3569631Y3264504D01*
X3568700Y3255513D01*
X3543300Y3255972D01*
X3542385Y3264693D01*
X3539640Y3274454D01*
X3535064Y3285254D01*
X3528658Y3297094D01*
X3520422Y3309974D01*
X3510356Y3323893D01*
X3484733Y3354850D01*
X3451789Y3389966D01*
X3661755Y3386186D01*
D02*
G37*
G36*
X2962669Y2361321D02*
X2985074Y2352040D01*
X3009326D01*
X3031731Y2361321D01*
X3043269Y2372859D01*
X3437773D01*
X3451670Y2358962D01*
Y2208190D01*
X3440821Y2197341D01*
X3431540Y2174936D01*
Y2150684D01*
X3438560Y2133737D01*
X3431470Y2121036D01*
X2936451D01*
X2935741Y2121746D01*
Y2371417D01*
X2948441Y2375548D01*
X2962669Y2361321D01*
D02*
G37*
%LPC*%
G36*
X1691232Y677678D02*
X1686657D01*
Y514978D01*
X1849356D01*
Y519553D01*
X1842616Y553440D01*
X1829394Y585361D01*
X1810199Y614089D01*
X1785767Y638520D01*
X1757039Y657715D01*
X1725119Y670937D01*
X1691232Y677678D01*
D02*
G37*
G36*
X1661257D02*
X1656681D01*
X1622794Y670937D01*
X1590874Y657715D01*
X1562146Y638520D01*
X1537714Y614089D01*
X1518519Y585361D01*
X1505297Y553440D01*
X1498557Y519553D01*
Y514978D01*
X1661257D01*
Y677678D01*
D02*
G37*
G36*
X1849356Y489578D02*
X1686657D01*
Y326878D01*
X1691232D01*
X1725119Y333619D01*
X1757039Y346841D01*
X1785767Y366036D01*
X1810199Y390467D01*
X1829394Y419195D01*
X1842616Y451116D01*
X1849356Y485003D01*
Y489578D01*
D02*
G37*
G36*
X1661257D02*
X1498557D01*
Y485003D01*
X1505297Y451116D01*
X1518519Y419195D01*
X1537714Y390467D01*
X1562146Y366036D01*
X1590874Y346841D01*
X1622794Y333619D01*
X1656681Y326878D01*
X1661257D01*
Y489578D01*
D02*
G37*
%LPD*%
D10*
X6248399Y4826001D02*
X6248400Y4826000D01*
X7315200Y4445000D02*
Y4826000D01*
X5892799Y4826001D02*
X6248399D01*
X4951742Y4266267D02*
Y5256542D01*
X5025402Y5172951D02*
X5835770D01*
X4951742Y4266267D02*
X4953000Y4265008D01*
Y3302000D02*
Y4265008D01*
X4951742Y5256542D02*
X5029200Y5334000D01*
X5835770Y5172951D02*
X5867400Y5141321D01*
X4064000Y3175000D02*
Y3495180D01*
X4160502Y4314945D02*
X4216400Y4370843D01*
Y5207000D01*
X9242580Y3813020D02*
Y4187980D01*
X9175850Y3329552D02*
X9245600Y3399303D01*
Y3810000D01*
X9239561Y4191000D02*
X9242580Y4187980D01*
Y3813020D02*
X9245600Y3810000D01*
X7479106Y6146800D02*
X7493000Y6132906D01*
X3200400Y4775200D02*
Y5715000D01*
X3489276Y3097142D02*
X3493408D01*
Y3102400D02*
X3556000Y3164992D01*
Y3492480D01*
X6324600Y2794000D02*
Y3048000D01*
X3200400Y4775200D02*
X3251200Y4724400D01*
Y3327400D02*
Y4724400D01*
X3556000Y3492480D02*
X3558700Y3495180D01*
X1752557Y2286000D02*
Y3251157D01*
X1828800Y3327400D01*
X6248400Y4241800D02*
Y4445000D01*
X5410200Y4114800D02*
Y5029200D01*
X4089400Y4572000D02*
Y5461000D01*
X5867400Y4851400D02*
X5892799Y4826001D01*
X5867400Y4851400D02*
Y5141321D01*
X5780679Y4749800D02*
X6146800D01*
X5765800Y4764679D02*
Y4826000D01*
Y4764679D02*
X5780679Y4749800D01*
X5816600Y4597400D02*
X6248400D01*
X5664200Y4749800D02*
X5816600Y4597400D01*
X5562600Y4673600D02*
X5715000Y4521200D01*
X6146800D01*
X5308600Y3835400D02*
Y4953000D01*
Y3835400D02*
X5334000Y3810000D01*
X5867400D01*
X5841273Y5252942D02*
X5841636Y5253306D01*
Y5689236D01*
X5842000Y5689600D01*
D62*
X7086600Y5334000D02*
Y5588000D01*
Y5003800D02*
Y5334000D01*
Y4241800D02*
Y5003800D01*
X4851400Y5715000D02*
Y6096000D01*
Y4241800D02*
Y5715000D01*
X1930400Y2540000D02*
Y4902200D01*
X7086600Y5588000D02*
Y5969000D01*
D63*
X2616200Y1574800D02*
Y2108200D01*
X3619154Y2907954D02*
Y3096850D01*
X3581400Y2870200D02*
X3619154Y2907954D01*
X6924188Y2539822D02*
X6924561Y2539450D01*
Y2160486D02*
Y2539450D01*
Y2160486D02*
X6924933Y2160114D01*
X6680200Y1574800D02*
Y2235200D01*
X6629400Y2286000D02*
X6680200Y2235200D01*
X7899400Y2057400D02*
Y3708400D01*
X2919823Y2080895D02*
X6223000D01*
X2895600Y2105118D02*
X2919823Y2080895D01*
X3495479Y2162810D02*
X6121400D01*
X2895600Y2105118D02*
Y2794000D01*
X3491811Y2159142D02*
X3495479Y2162810D01*
X3491811Y2159142D02*
Y2375589D01*
X3454400Y2413000D02*
X3491811Y2375589D01*
X2997200Y2413000D02*
X3454400D01*
X7366000Y2172946D02*
X7426647Y2233593D01*
Y2245278D01*
X7366000Y1905000D02*
Y2172946D01*
X3098800Y2667000D02*
X3099344Y2666456D01*
X3746572D02*
X3747116Y2665912D01*
X3099344Y2666456D02*
X3746572D01*
X3200400Y2870200D02*
X3581400D01*
X2260600Y2159000D02*
X2565400D01*
X2616200Y2108200D01*
X7188200Y1905000D02*
Y3200400D01*
X6324600Y2286000D02*
X6629400D01*
D65*
X8450000Y400000D02*
D03*
X400000Y1900000D02*
D03*
X3200000Y6200000D02*
D03*
X8500000Y5377800D02*
D03*
D66*
X9568273Y762000D02*
D03*
X9060273D02*
D03*
X508000D02*
D03*
X1016000D02*
D03*
D67*
X9239561Y4191000D02*
D03*
X4064000Y3495180D02*
D03*
X3558700Y3495180D02*
D03*
X1752557Y2286000D02*
D03*
X4165600Y6096000D02*
D03*
X3048000Y4572000D02*
D03*
X1673957Y502278D02*
D03*
X5588000Y2801538D02*
D03*
X8636000Y4191000D02*
D03*
D68*
X9525000Y6146800D02*
D03*
X9271000D02*
D03*
X9017000D02*
D03*
X8255000D02*
D03*
X8001000D02*
D03*
X7747000D02*
D03*
D69*
X8763000D02*
D03*
X7493000D02*
D03*
D70*
X6248400Y4826000D02*
D03*
X7315200D02*
D03*
X2616200Y1574800D02*
D03*
X5025402Y5172951D02*
D03*
X2058228Y5365991D02*
D03*
X1828800Y5892800D02*
D03*
X2260600D02*
D03*
X1212652Y1273012D02*
D03*
X3619500Y2251411D02*
D03*
Y3097142D02*
D03*
X3365500D02*
D03*
X4064000Y3175000D02*
D03*
X4160502Y4314945D02*
D03*
X3460974Y4317326D02*
D03*
X3970143Y4311200D02*
D03*
X7086600Y5969000D02*
D03*
X6902574Y5700475D02*
D03*
X6903843Y5203699D02*
D03*
Y5457699D02*
D03*
X6904920Y4443354D02*
D03*
X6924933Y2160114D02*
D03*
X6924188Y2539822D02*
D03*
X7429500Y3069263D02*
D03*
X6680200Y1574800D02*
D03*
X9245600Y3810000D02*
D03*
X9175850Y3329552D02*
D03*
X7899400Y3708400D02*
D03*
X9525000Y3683000D02*
D03*
X8356600Y3556000D02*
D03*
X8229600Y2413000D02*
D03*
X8331200D02*
D03*
X3200400Y5715000D02*
D03*
X5725500Y1701800D02*
D03*
X5867400Y1905000D02*
D03*
X7086600Y5003800D02*
D03*
X4292600Y4445000D02*
D03*
X508000Y4495800D02*
D03*
X660400D02*
D03*
X812800D02*
D03*
X965200D02*
D03*
X1117600D02*
D03*
X508000Y5410200D02*
D03*
X660400D02*
D03*
X812800D02*
D03*
X965200D02*
D03*
X1117600D02*
D03*
X2260600Y2413000D02*
D03*
X7899400Y2057400D02*
D03*
X6223000Y2080895D02*
D03*
X6121400Y2162810D02*
D03*
X3492500D02*
D03*
X2895600Y2794000D02*
D03*
X2997200Y2413000D02*
D03*
X7429500Y2242671D02*
D03*
X7683500D02*
D03*
X7366000Y1905000D02*
D03*
X3747116Y2665912D02*
D03*
X3098800Y2667000D02*
D03*
X3200400Y2870200D02*
D03*
X4292600Y2667000D02*
D03*
X2260600Y2159000D02*
D03*
X3492500Y3097142D02*
D03*
X6324600Y3048000D02*
D03*
Y2794000D02*
D03*
X4953000Y3302000D02*
D03*
X7188200Y3200400D02*
D03*
Y1905000D02*
D03*
X7391400Y1727200D02*
D03*
X6883400Y3175000D02*
D03*
X6324600Y2540000D02*
D03*
Y2286000D02*
D03*
X8051800Y1422400D02*
D03*
Y1295400D02*
D03*
X7188200Y1168400D02*
D03*
Y1016000D02*
D03*
Y863600D02*
D03*
Y711200D02*
D03*
Y558800D02*
D03*
Y406400D02*
D03*
X7289800Y355600D02*
D03*
X7416800D02*
D03*
X7543800D02*
D03*
X7696200D02*
D03*
X7823200D02*
D03*
X7950200D02*
D03*
X8051800Y406400D02*
D03*
Y558800D02*
D03*
Y711200D02*
D03*
Y863600D02*
D03*
Y1016000D02*
D03*
Y1168400D02*
D03*
X6172200Y1422400D02*
D03*
Y1295400D02*
D03*
Y1168400D02*
D03*
Y1016000D02*
D03*
Y863600D02*
D03*
Y711200D02*
D03*
Y558800D02*
D03*
Y406400D02*
D03*
X6273800Y355600D02*
D03*
X6400800D02*
D03*
X6527800D02*
D03*
X6680200D02*
D03*
X6807200D02*
D03*
X6934200D02*
D03*
X7035800Y406400D02*
D03*
Y558800D02*
D03*
Y711200D02*
D03*
Y863600D02*
D03*
Y1016000D02*
D03*
Y1168400D02*
D03*
X3987800D02*
D03*
Y1016000D02*
D03*
Y863600D02*
D03*
Y711200D02*
D03*
Y558800D02*
D03*
Y406400D02*
D03*
X3886200Y355600D02*
D03*
X3759200D02*
D03*
X3632200D02*
D03*
X3479800D02*
D03*
X3352800D02*
D03*
X3225800D02*
D03*
X3124200Y406400D02*
D03*
Y558800D02*
D03*
Y711200D02*
D03*
Y863600D02*
D03*
Y1016000D02*
D03*
Y1168400D02*
D03*
X3327400Y1727200D02*
D03*
X2971800Y1168400D02*
D03*
Y1016000D02*
D03*
Y863600D02*
D03*
Y711200D02*
D03*
Y558800D02*
D03*
Y406400D02*
D03*
X2870200Y355600D02*
D03*
X2743200D02*
D03*
X2616200D02*
D03*
X2463800D02*
D03*
X2336800D02*
D03*
X2209800D02*
D03*
X2108200Y406400D02*
D03*
Y558800D02*
D03*
Y711200D02*
D03*
Y863600D02*
D03*
Y1016000D02*
D03*
Y1168400D02*
D03*
Y1295400D02*
D03*
Y1422400D02*
D03*
X1930400Y4902200D02*
D03*
X2819400Y4419600D02*
D03*
X1828800Y3327400D02*
D03*
X1930400Y2540000D02*
D03*
X3251200Y3327400D02*
D03*
X7086600Y5588000D02*
D03*
X6248400Y4241800D02*
D03*
Y4445000D02*
D03*
X7086600Y5334000D02*
D03*
Y4241800D02*
D03*
X4851400D02*
D03*
X5410200Y4114800D02*
D03*
X5029200Y4749800D02*
D03*
X4851400Y5715000D02*
D03*
Y6096000D02*
D03*
X4089400Y4572000D02*
D03*
X1803400Y1955800D02*
D03*
X3429000Y5334000D02*
D03*
X3149600Y3810000D02*
D03*
X7899400Y4318000D02*
D03*
X6146800Y4749800D02*
D03*
X6248400Y4597400D02*
D03*
X6146800Y4521200D02*
D03*
X7315200Y4445000D02*
D03*
X5410200Y5029200D02*
D03*
X5308600Y4953000D02*
D03*
X6883400Y3937000D02*
D03*
X5029200Y5334000D02*
D03*
X5207000Y3683000D02*
D03*
X5867400Y3810000D02*
D03*
X5765800Y4826000D02*
D03*
X5664200Y4749800D02*
D03*
X5562600Y4673600D02*
D03*
X4089400Y5461000D02*
D03*
X4216400Y5207000D02*
D03*
X3479800Y4826000D02*
D03*
X4191000Y5715000D02*
D03*
X5842000Y5689600D02*
D03*
X5841273Y5252942D02*
D03*
X5588000Y6400800D02*
D03*
M02*
