M48
;Layer_Color=9474304
;FILE_FORMAT=2:5
INCH,TZ
;TYPE=PLATED
T1F00S00C0.01600
T2F00S00C0.04000
T3F00S00C0.05906
T4F00S00C0.06299
;TYPE=NON_PLATED
T5F00S00C0.12795
%
T01
X47742Y50119
X83000Y51000
Y46000
Y40000
Y34000
Y28000
Y22000
Y16000
X87000Y14000
X92000
X97000
X103000
X108000
X113000
X117000Y16000
X123000
X127000Y14000
X132000
X137000
X143000
X148000
X153000
X157000Y16000
Y22000
Y28000
Y34000
Y40000
Y46000
X123000
X117000
Y40000
X123000
Y34000
Y28000
Y22000
X117000
Y28000
Y34000
X243000
Y40000
Y46000
Y51000
Y28000
Y22000
Y16000
X247000Y14000
X252000
X257000
X263000
X268000
X273000
X277000Y16000
X283000
Y22000
Y28000
Y34000
Y40000
Y46000
X277000
Y40000
Y34000
Y28000
Y22000
X287000Y14000
X292000
X297000
X303000
X308000
X313000
X317000Y16000
Y22000
Y28000
Y34000
Y40000
Y46000
Y51000
X361254Y131085
X364000Y150000
X375000Y145000
X329000Y140000
X311000Y146000
Y170000
X288000Y175000
Y190000
X279000Y197000
X271805Y204870
X271847Y174935
X279000Y167000
X271000Y155000
Y125000
X283000Y126000
X292500Y120837
Y88294
X302500
X311000Y81000
X324000Y95000
X328000
X317000Y56000
X295000Y68000
X290945
X290000Y75000
X283000
X272635Y85044
X272606Y99993
X249000Y100000
Y110000
Y120000
Y90000
Y85225
X253000Y81947
X235000Y75000
X231000
X243000Y56000
X263000Y62000
X231000Y150000
X213000Y162000
X205000Y145000
X195000Y130000
X198000Y187000
X197851Y203660
X209000Y195000
X213000Y198000
X219000Y184000
X223000Y187000
X227000Y190000
X242000Y187000
X246000Y190000
Y181000
Y175000
X242000Y178000
X246000Y167000
X229971Y206809
X166000Y205000
X161000Y180000
X163799Y169880
X156305Y169732
X169000Y175000
X191000Y167000
X136259Y169974
X137000Y190000
X111000Y174000
X124000Y150000
X128000Y131000
X132500Y121935
X137500
X142500
X160000Y125000
X169000Y105000
X147524Y104957
X142500Y88638
X137500Y85150
X135000Y68000
X130945
X103000Y62000
X83000Y56000
X71000Y77000
X89000Y85000
Y95000
X76000Y100000
X72000Y131000
X114000Y110000
X122000Y105000
X126000Y113000
X118000Y95000
X76000Y193000
X44000Y177000
X38000
X32000
X26000
X20000
Y213000
X26000
X32000
X38000
X44000
X81033Y211260
X89000Y232000
X72000
X126000Y225000
X135000Y210000
X161000Y215000
X165000Y225000
X191000
Y240000
X198000Y210000
X230000Y224000
X220000Y252000
X279000Y235000
Y220000
Y210000
X271805Y214870
X271755Y224428
T02
X295000Y242000
X305000
X315000
X325000
X345000
X355000
X365000
X375000
T03
X20000Y30000
X40000
X356704
X376704
T04
X65904Y19775
X363762Y165000
X340000
X220000Y110297
X160000Y137606
X140106Y137606
X120000Y180000
X68998Y90000
X164000Y240000
T05
X332677Y15748
X15748Y74803
X125984Y244094
X334646Y211724
M30
