G04*
G04 #@! TF.GenerationSoftware,Altium Limited,Altium Designer,21.6.4 (81)*
G04*
G04 Layer_Physical_Order=1*
G04 Layer_Color=255*
%FSLAX25Y25*%
%MOIN*%
G70*
G04*
G04 #@! TF.SameCoordinates,2BAE2438-CD35-4855-809F-F1E5AD1C84AA*
G04*
G04*
G04 #@! TF.FilePolarity,Positive*
G04*
G01*
G75*
%ADD10C,0.01000*%
%ADD19R,0.02362X0.08465*%
%ADD20R,0.06000X0.05600*%
%ADD21R,0.05600X0.06000*%
%ADD22R,0.15748X0.23622*%
%ADD23R,0.04331X0.07677*%
%ADD24R,0.04700X0.01200*%
%ADD25R,0.01200X0.04700*%
%ADD26R,0.03937X0.05118*%
%ADD27R,0.06400X0.06400*%
%ADD28R,0.02362X0.03740*%
%ADD29R,0.07480X0.09449*%
%ADD30R,0.07677X0.09055*%
%ADD31R,0.09449X0.03937*%
%ADD32R,0.09449X0.12992*%
%ADD33R,0.26378X0.26378*%
%ADD34R,0.11811X0.06299*%
%ADD35R,0.05512X0.07677*%
%ADD36R,0.16535X0.09252*%
%ADD37R,0.06299X0.11811*%
%ADD38R,0.26378X0.26378*%
%ADD62C,0.05000*%
%ADD63C,0.01500*%
%ADD64C,0.02500*%
%ADD65C,0.23622*%
%ADD66O,0.11811X0.13780*%
%ADD67C,0.11811*%
%ADD68C,0.05906*%
%ADD69R,0.05906X0.05906*%
%ADD70C,0.03200*%
G36*
X168777Y243586D02*
X169863Y242663D01*
X170390Y242288D01*
X170905Y241971D01*
X171409Y241711D01*
X171902Y241510D01*
X172384Y241365D01*
X172855Y241279D01*
X173315Y241250D01*
Y238750D01*
X172855Y238721D01*
X172384Y238635D01*
X171902Y238491D01*
X171409Y238289D01*
X170905Y238029D01*
X170390Y237712D01*
X169863Y237337D01*
X169326Y236904D01*
X168217Y235866D01*
Y244134D01*
X168777Y243586D01*
D02*
G37*
G36*
X159783Y235866D02*
X159223Y236414D01*
X158137Y237337D01*
X157610Y237712D01*
X157095Y238029D01*
X156591Y238289D01*
X156098Y238491D01*
X155616Y238635D01*
X155145Y238721D01*
X154685Y238750D01*
Y241250D01*
X155145Y241279D01*
X155616Y241365D01*
X156098Y241510D01*
X156591Y241711D01*
X157095Y241971D01*
X157610Y242288D01*
X158137Y242663D01*
X158674Y243096D01*
X159783Y244134D01*
Y235866D01*
D02*
G37*
G36*
X114639Y186103D02*
X114955Y185894D01*
X115299Y185727D01*
X115673Y185601D01*
X116077Y185517D01*
X116510Y185475D01*
X116972Y185474D01*
X117464Y185515D01*
X117985Y185597D01*
X118535Y185721D01*
X114279Y181465D01*
X114403Y182015D01*
X114485Y182536D01*
X114526Y183028D01*
X114525Y183490D01*
X114483Y183923D01*
X114399Y184327D01*
X114273Y184701D01*
X114106Y185045D01*
X113897Y185361D01*
X113646Y185646D01*
X114354Y186354D01*
X114639Y186103D01*
D02*
G37*
G36*
X160536Y146684D02*
X160645Y146297D01*
X160827Y145872D01*
X161081Y145408D01*
X161408Y144906D01*
X161808Y144366D01*
X162826Y143171D01*
X164134Y141823D01*
X155866D01*
X156557Y142516D01*
X158192Y144366D01*
X158591Y144906D01*
X158919Y145408D01*
X159173Y145872D01*
X159355Y146297D01*
X159464Y146684D01*
X159500Y147033D01*
X160500D01*
X160536Y146684D01*
D02*
G37*
G36*
X140537Y146687D02*
X140647Y146298D01*
X140830Y145872D01*
X141086Y145411D01*
X141416Y144915D01*
X141819Y144382D01*
X142845Y143211D01*
X143467Y142572D01*
X144164Y141897D01*
X135897Y141748D01*
X136582Y142459D01*
X138203Y144349D01*
X138599Y144897D01*
X138924Y145404D01*
X139176Y145870D01*
X139356Y146295D01*
X139464Y146680D01*
X139500Y147023D01*
X140500Y147041D01*
X140537Y146687D01*
D02*
G37*
G36*
X30000Y215000D02*
X47000D01*
Y173000D01*
X30000D01*
Y93000D01*
X2000Y93000D01*
Y258000D01*
X30000D01*
Y215000D01*
D02*
G37*
G36*
X71072Y84438D02*
X70742Y84236D01*
X70450Y84017D01*
X70198Y83780D01*
X69984Y83526D01*
X69809Y83256D01*
X69673Y82968D01*
X69576Y82662D01*
X69518Y82340D01*
X69498Y82001D01*
X68498D01*
X68479Y82340D01*
X68421Y82662D01*
X68323Y82968D01*
X68187Y83256D01*
X68013Y83526D01*
X67799Y83780D01*
X67546Y84017D01*
X67255Y84236D01*
X66925Y84438D01*
X66556Y84623D01*
X71441D01*
X71072Y84438D01*
D02*
G37*
G36*
X64560Y56114D02*
X64404D01*
Y50882D01*
Y45650D01*
X64560D01*
Y41000D01*
X51000D01*
Y46000D01*
X54000D01*
Y59000D01*
X64560D01*
Y56114D01*
D02*
G37*
G36*
X179000Y59000D02*
X199000D01*
Y2000D01*
X120816D01*
Y49000D01*
X126000Y49000D01*
X166000D01*
Y97000D01*
X179000D01*
Y59000D01*
D02*
G37*
G36*
X85000Y49000D02*
X119983D01*
Y46312D01*
X120000Y46182D01*
Y2000D01*
X51000D01*
Y40172D01*
X54000D01*
X54097Y40184D01*
X64560D01*
X64872Y40246D01*
X65137Y40423D01*
X65314Y40688D01*
X65376Y41000D01*
X65400D01*
Y59000D01*
X85000D01*
Y49000D01*
D02*
G37*
G36*
X245000Y59000D02*
Y49000D01*
X279990D01*
Y46318D01*
X280000Y46241D01*
Y2000D01*
X219454D01*
Y23765D01*
X227934D01*
Y48987D01*
X222588D01*
Y60071D01*
X222475Y60932D01*
X222309Y61334D01*
X222142Y61735D01*
X221613Y62425D01*
X219454Y64584D01*
Y97000D01*
X245000D01*
Y59000D01*
D02*
G37*
G36*
X229428Y109797D02*
X229079Y109760D01*
X228692Y109651D01*
X228266Y109470D01*
X227803Y109215D01*
X227301Y108888D01*
X226761Y108489D01*
X225566Y107471D01*
X224217Y106163D01*
Y114431D01*
X224911Y113740D01*
X226761Y112105D01*
X227301Y111705D01*
X227803Y111378D01*
X228266Y111124D01*
X228692Y110942D01*
X229079Y110833D01*
X229428Y110797D01*
Y109797D01*
D02*
G37*
G36*
X210599Y111047D02*
X210987Y111081D01*
X211404Y111182D01*
X211850Y111351D01*
X212324Y111588D01*
X212828Y111893D01*
X213361Y112265D01*
X213923Y112705D01*
X215134Y113788D01*
X215783Y114431D01*
Y106163D01*
X215134Y106806D01*
X213361Y108329D01*
X212828Y108701D01*
X212324Y109005D01*
X211850Y109242D01*
X211404Y109411D01*
X210987Y109513D01*
X210599Y109547D01*
Y111047D01*
D02*
G37*
G36*
X388000Y50000D02*
X380816D01*
Y81000D01*
X380754Y81312D01*
X380577Y81577D01*
X380312Y81754D01*
X380000Y81816D01*
X363291D01*
Y113000D01*
X388000D01*
Y50000D01*
D02*
G37*
G36*
X362389Y110685D02*
X362262D01*
Y105453D01*
X361262D01*
D01*
X362262D01*
Y100221D01*
X362389D01*
Y81000D01*
X380000D01*
Y50000D01*
X351000D01*
Y84000D01*
X339356D01*
Y113000D01*
X362389D01*
Y110685D01*
D02*
G37*
G36*
X346000Y50000D02*
X339000D01*
Y27159D01*
X338574Y26897D01*
X337518Y27435D01*
X335630Y28049D01*
X333670Y28359D01*
X331685D01*
X329724Y28049D01*
X327836Y27435D01*
X326067Y26534D01*
X324462Y25367D01*
X323058Y23964D01*
X321891Y22358D01*
X320990Y20589D01*
X320377Y18701D01*
X320066Y16740D01*
Y14755D01*
X320377Y12795D01*
X320990Y10907D01*
X321891Y9138D01*
X323058Y7532D01*
X324462Y6129D01*
X326067Y4962D01*
X327836Y4061D01*
X329724Y3447D01*
X331685Y3137D01*
X333670D01*
X335630Y3447D01*
X337518Y4061D01*
X338574Y4599D01*
X339000Y4338D01*
Y2000D01*
X280816D01*
Y46241D01*
X280805Y46294D01*
X280809Y46347D01*
X280805Y46372D01*
Y49000D01*
X315000D01*
Y82000D01*
X346000Y82000D01*
Y50000D01*
D02*
G37*
G36*
X366769Y239589D02*
X366268Y239015D01*
X366064Y238742D01*
X365892Y238480D01*
X365751Y238228D01*
X365641Y237985D01*
X365563Y237753D01*
X365516Y237531D01*
X365500Y237318D01*
X364500D01*
X364484Y237531D01*
X364437Y237753D01*
X364359Y237985D01*
X364249Y238228D01*
X364108Y238480D01*
X363936Y238742D01*
X363732Y239015D01*
X363231Y239589D01*
X362933Y239891D01*
X367067D01*
X366769Y239589D01*
D02*
G37*
G36*
X356769D02*
X356268Y239015D01*
X356064Y238742D01*
X355892Y238480D01*
X355751Y238228D01*
X355641Y237985D01*
X355563Y237753D01*
X355516Y237531D01*
X355500Y237318D01*
X354500D01*
X354484Y237531D01*
X354437Y237753D01*
X354359Y237985D01*
X354249Y238228D01*
X354108Y238480D01*
X353936Y238742D01*
X353732Y239015D01*
X353231Y239589D01*
X352933Y239891D01*
X357067D01*
X356769Y239589D01*
D02*
G37*
G36*
X306769D02*
X306268Y239015D01*
X306064Y238742D01*
X305892Y238480D01*
X305751Y238228D01*
X305641Y237985D01*
X305563Y237753D01*
X305516Y237531D01*
X305500Y237318D01*
X304500D01*
X304484Y237531D01*
X304437Y237753D01*
X304359Y237985D01*
X304249Y238228D01*
X304108Y238480D01*
X303936Y238742D01*
X303732Y239015D01*
X303231Y239589D01*
X302933Y239891D01*
X307067D01*
X306769Y239589D01*
D02*
G37*
G36*
X317057Y239882D02*
X316759Y239582D01*
X316256Y239010D01*
X316052Y238739D01*
X315879Y238478D01*
X315738Y238226D01*
X315628Y237984D01*
X315549Y237752D01*
X315502Y237529D01*
X315487Y237316D01*
X314487Y237321D01*
X314471Y237532D01*
X314424Y237755D01*
X314346Y237987D01*
X314236Y238230D01*
X314096Y238483D01*
X313924Y238746D01*
X313721Y239019D01*
X313221Y239597D01*
X312924Y239901D01*
X317057Y239882D01*
D02*
G37*
G36*
X343491Y160146D02*
X341055Y157428D01*
X340885Y157160D01*
X340784Y156944D01*
X340750Y156780D01*
X339250D01*
X339216Y156944D01*
X339115Y157160D01*
X338945Y157428D01*
X338709Y157750D01*
X338032Y158550D01*
X336509Y160146D01*
X335866Y160783D01*
X344134D01*
X343491Y160146D01*
D02*
G37*
%LPC*%
G36*
X29425Y245528D02*
X25587D01*
Y241000D01*
X29425D01*
Y245528D01*
D02*
G37*
G36*
X23587D02*
X19748D01*
Y241000D01*
X23587D01*
Y245528D01*
D02*
G37*
G36*
X29425Y239000D02*
X25587D01*
Y234472D01*
X29425D01*
Y239000D01*
D02*
G37*
G36*
X23587D02*
X19748D01*
Y234472D01*
X23587D01*
Y239000D01*
D02*
G37*
G36*
X29500Y228800D02*
X26500D01*
Y226000D01*
X29500D01*
Y228800D01*
D02*
G37*
G36*
X24500D02*
X21500D01*
Y226000D01*
X24500D01*
Y228800D01*
D02*
G37*
G36*
X29500Y224000D02*
X26500D01*
Y221200D01*
X29500D01*
Y224000D01*
D02*
G37*
G36*
X24500D02*
X21500D01*
Y221200D01*
X24500D01*
Y224000D01*
D02*
G37*
G36*
X44982Y209189D02*
X31793D01*
Y196000D01*
X44982D01*
Y209189D01*
D02*
G37*
G36*
X29794D02*
X16604D01*
Y196000D01*
X29794D01*
Y209189D01*
D02*
G37*
G36*
X44982Y194000D02*
X31793D01*
Y180811D01*
X44982D01*
Y194000D01*
D02*
G37*
G36*
X29794D02*
X16604D01*
Y180811D01*
X29794D01*
Y194000D01*
D02*
G37*
G36*
X26774Y155626D02*
X18506D01*
Y151000D01*
X26774D01*
Y155626D01*
D02*
G37*
G36*
X16506D02*
X8238D01*
Y151000D01*
X16506D01*
Y155626D01*
D02*
G37*
G36*
X26774Y149000D02*
X18506D01*
Y144374D01*
X26774D01*
Y149000D01*
D02*
G37*
G36*
X16506D02*
X8238D01*
Y144374D01*
X16506D01*
Y149000D01*
D02*
G37*
G36*
X26315Y113558D02*
X18047D01*
Y108932D01*
X26315D01*
Y113558D01*
D02*
G37*
G36*
X16047D02*
X7779D01*
Y108932D01*
X16047D01*
Y113558D01*
D02*
G37*
G36*
X26315Y106932D02*
X18047D01*
Y102306D01*
X26315D01*
Y106932D01*
D02*
G37*
G36*
X16047D02*
X7779D01*
Y102306D01*
X16047D01*
Y106932D01*
D02*
G37*
G36*
X60585Y56114D02*
X59404D01*
Y51882D01*
X60585D01*
Y56114D01*
D02*
G37*
G36*
X57404D02*
X56223D01*
Y51882D01*
X57404D01*
Y56114D01*
D02*
G37*
G36*
X62404D02*
X61223D01*
Y51882D01*
X62404D01*
Y56114D01*
D02*
G37*
G36*
Y49882D02*
X61223D01*
Y45650D01*
X62404D01*
Y49882D01*
D02*
G37*
G36*
X60585D02*
X59404D01*
Y45650D01*
X60585D01*
Y49882D01*
D02*
G37*
G36*
X57404D02*
X56223D01*
Y45650D01*
X57404D01*
Y49882D01*
D02*
G37*
G36*
X177500Y94200D02*
X174300D01*
Y91000D01*
X177500D01*
Y94200D01*
D02*
G37*
G36*
X172300D02*
X169100D01*
Y91000D01*
X172300D01*
Y94200D01*
D02*
G37*
G36*
X177500Y89000D02*
X174300D01*
Y85800D01*
X177500D01*
Y89000D01*
D02*
G37*
G36*
X172300D02*
X169100D01*
Y85800D01*
X172300D01*
Y89000D01*
D02*
G37*
G36*
X174701Y79839D02*
X172535D01*
Y76000D01*
X174701D01*
Y79839D01*
D02*
G37*
G36*
X170535D02*
X168370D01*
Y76000D01*
X170535D01*
Y79839D01*
D02*
G37*
G36*
X174701Y74000D02*
X172535D01*
Y70161D01*
X174701D01*
Y74000D01*
D02*
G37*
G36*
X170535D02*
X168370D01*
Y70161D01*
X170535D01*
Y74000D01*
D02*
G37*
G36*
X189157Y49187D02*
X181283D01*
Y37376D01*
X189157D01*
Y49187D01*
D02*
G37*
G36*
X179283D02*
X171409D01*
Y37376D01*
X179283D01*
Y49187D01*
D02*
G37*
G36*
X154189Y46098D02*
X141000D01*
Y32909D01*
X154189D01*
Y46098D01*
D02*
G37*
G36*
X139000D02*
X125811D01*
Y32909D01*
X139000D01*
Y46098D01*
D02*
G37*
G36*
X189157Y35376D02*
X181283D01*
Y23565D01*
X189157D01*
Y35376D01*
D02*
G37*
G36*
X179283D02*
X171409D01*
Y23565D01*
X179283D01*
Y35376D01*
D02*
G37*
G36*
X154189Y30909D02*
X141000D01*
Y17720D01*
X154189D01*
Y30909D01*
D02*
G37*
G36*
X139000D02*
X125811D01*
Y17720D01*
X139000D01*
Y30909D01*
D02*
G37*
G36*
X75585Y56114D02*
X74404D01*
Y51882D01*
X75585D01*
Y56114D01*
D02*
G37*
G36*
X70585D02*
X69404D01*
Y51882D01*
X70585D01*
Y56114D01*
D02*
G37*
G36*
X72404D02*
X71223D01*
Y51882D01*
X72404D01*
Y56114D01*
D02*
G37*
G36*
X67404D02*
X66223D01*
Y51882D01*
X67404D01*
Y56114D01*
D02*
G37*
G36*
X75585Y49882D02*
X74404D01*
Y45650D01*
X75585D01*
Y49882D01*
D02*
G37*
G36*
X72404D02*
X71223D01*
Y45650D01*
X72404D01*
Y49882D01*
D02*
G37*
G36*
X70585D02*
X69404D01*
Y45650D01*
X70585D01*
Y49882D01*
D02*
G37*
G36*
X67404D02*
X66223D01*
Y45650D01*
X67404D01*
Y49882D01*
D02*
G37*
G36*
X114189Y46098D02*
X101000D01*
Y32909D01*
X114189D01*
Y46098D01*
D02*
G37*
G36*
X99000D02*
X85811D01*
Y32909D01*
X99000D01*
Y46098D01*
D02*
G37*
G36*
X66904Y26617D02*
Y20775D01*
X72746D01*
X72544Y21789D01*
X72023Y23046D01*
X71268Y24177D01*
X70306Y25139D01*
X69175Y25894D01*
X67918Y26415D01*
X66904Y26617D01*
D02*
G37*
G36*
X64904D02*
X63889Y26415D01*
X62633Y25894D01*
X61502Y25139D01*
X60540Y24177D01*
X59784Y23046D01*
X59264Y21789D01*
X59062Y20775D01*
X64904D01*
Y26617D01*
D02*
G37*
G36*
X114189Y30909D02*
X101000D01*
Y17720D01*
X114189D01*
Y30909D01*
D02*
G37*
G36*
X99000D02*
X85811D01*
Y17720D01*
X99000D01*
Y30909D01*
D02*
G37*
G36*
X72746Y18775D02*
X66904D01*
Y12933D01*
X67918Y13135D01*
X69175Y13655D01*
X70306Y14411D01*
X71268Y15373D01*
X72023Y16504D01*
X72544Y17761D01*
X72746Y18775D01*
D02*
G37*
G36*
X64904D02*
X59062D01*
X59264Y17761D01*
X59784Y16504D01*
X60540Y15373D01*
X61502Y14411D01*
X62633Y13655D01*
X63889Y13135D01*
X64904Y12933D01*
Y18775D01*
D02*
G37*
G36*
X228500Y93800D02*
X225500D01*
Y91000D01*
X228500D01*
Y93800D01*
D02*
G37*
G36*
X223500D02*
X220500D01*
Y91000D01*
X223500D01*
Y93800D01*
D02*
G37*
G36*
X228500Y89000D02*
X225500D01*
Y86200D01*
X228500D01*
Y89000D01*
D02*
G37*
G36*
X223500D02*
X220500D01*
Y86200D01*
X223500D01*
Y89000D01*
D02*
G37*
G36*
X230052Y80171D02*
X220775D01*
Y69516D01*
X230052D01*
Y71671D01*
X235000D01*
X235861Y71785D01*
X236664Y72117D01*
X237354Y72646D01*
X237882Y73336D01*
X238215Y74138D01*
X238329Y75000D01*
X238215Y75862D01*
X237882Y76664D01*
X237354Y77354D01*
X236664Y77883D01*
X235861Y78215D01*
X235000Y78329D01*
X230052D01*
Y80171D01*
D02*
G37*
G36*
X274189Y46098D02*
X261000D01*
Y32909D01*
X274189D01*
Y46098D01*
D02*
G37*
G36*
X259000D02*
X245811D01*
Y32909D01*
X259000D01*
Y46098D01*
D02*
G37*
G36*
X274189Y30909D02*
X261000D01*
Y17720D01*
X274189D01*
Y30909D01*
D02*
G37*
G36*
X259000D02*
X245811D01*
Y17720D01*
X259000D01*
Y30909D01*
D02*
G37*
G36*
X368443Y110685D02*
X367262D01*
Y106453D01*
X368443D01*
Y110685D01*
D02*
G37*
G36*
X373443D02*
X372262D01*
Y106453D01*
X373443D01*
Y110685D01*
D02*
G37*
G36*
X365262D02*
X364081D01*
Y106453D01*
X365262D01*
Y110685D01*
D02*
G37*
G36*
X370262D02*
X369081D01*
Y106453D01*
X370262D01*
Y110685D01*
D02*
G37*
G36*
X373443Y104453D02*
X372262D01*
Y100221D01*
X373443D01*
Y104453D01*
D02*
G37*
G36*
X370262D02*
X369081D01*
Y100221D01*
X370262D01*
Y104453D01*
D02*
G37*
G36*
X368443D02*
X367262D01*
Y100221D01*
X368443D01*
Y104453D01*
D02*
G37*
G36*
X365262D02*
X364081D01*
Y100221D01*
X365262D01*
Y104453D01*
D02*
G37*
G36*
X358443Y110685D02*
X357262D01*
Y106453D01*
X358443D01*
Y110685D01*
D02*
G37*
G36*
X360262D02*
X359081D01*
Y106453D01*
X360262D01*
Y110685D01*
D02*
G37*
G36*
X355262D02*
X354081D01*
Y106453D01*
X355262D01*
Y110685D01*
D02*
G37*
G36*
X360262Y104453D02*
X359081D01*
Y100221D01*
X360262D01*
Y104453D01*
D02*
G37*
G36*
X358443D02*
X357262D01*
Y100221D01*
X358443D01*
Y104453D01*
D02*
G37*
G36*
X355262D02*
X354081D01*
Y100221D01*
X355262D01*
Y104453D01*
D02*
G37*
G36*
X350252Y100528D02*
X346413D01*
Y96000D01*
X350252D01*
Y100528D01*
D02*
G37*
G36*
X344413D02*
X340575D01*
Y96000D01*
X344413D01*
Y100528D01*
D02*
G37*
G36*
X350252Y94000D02*
X346413D01*
Y89472D01*
X350252D01*
Y94000D01*
D02*
G37*
G36*
X344413D02*
X340575D01*
Y89472D01*
X344413D01*
Y94000D01*
D02*
G37*
G36*
X378535Y78311D02*
X370661D01*
Y66500D01*
X378535D01*
Y78311D01*
D02*
G37*
G36*
X368661D02*
X360787D01*
Y66500D01*
X368661D01*
Y78311D01*
D02*
G37*
G36*
X378535Y64500D02*
X370661D01*
Y52689D01*
X378535D01*
Y64500D01*
D02*
G37*
G36*
X368661D02*
X360787D01*
Y52689D01*
X368661D01*
Y64500D01*
D02*
G37*
G36*
X339559Y78311D02*
X331685D01*
Y66500D01*
X339559D01*
Y78311D01*
D02*
G37*
G36*
X329685D02*
X321811D01*
Y66500D01*
X329685D01*
Y78311D01*
D02*
G37*
G36*
X339559Y64500D02*
X331685D01*
Y52689D01*
X339559D01*
Y64500D01*
D02*
G37*
G36*
X329685D02*
X321811D01*
Y52689D01*
X329685D01*
Y64500D01*
D02*
G37*
G36*
X314189Y46098D02*
X301000D01*
Y32909D01*
X314189D01*
Y46098D01*
D02*
G37*
G36*
X299000D02*
X285811D01*
Y32909D01*
X299000D01*
Y46098D01*
D02*
G37*
G36*
X314189Y30909D02*
X301000D01*
Y17720D01*
X314189D01*
Y30909D01*
D02*
G37*
G36*
X299000D02*
X285811D01*
Y17720D01*
X299000D01*
Y30909D01*
D02*
G37*
%LPD*%
D10*
X130945Y58091D02*
X131000Y58146D01*
X314987Y184987D02*
Y241987D01*
X313987Y183987D02*
X314987Y184987D01*
X236846Y183987D02*
X313987D01*
X236832Y183973D02*
X236846Y183987D01*
X314987Y241987D02*
X315000Y242000D01*
X304000Y187000D02*
X305000Y188000D01*
X242000Y187000D02*
X304000D01*
X305000Y188000D02*
Y242000D01*
X246000Y190000D02*
X288000D01*
X355000Y182000D02*
Y242000D01*
X354000Y181000D02*
X355000Y182000D01*
X246000Y181000D02*
X354000D01*
X364414Y179000D02*
X365000Y179586D01*
X249000Y179000D02*
X251862D01*
X251961Y179100D01*
X308038D01*
X365000Y179586D02*
Y242000D01*
X308038Y179100D02*
X308138Y179000D01*
X364414D01*
X200335Y205665D02*
X203329D01*
X203368Y205627D01*
X198421Y207579D02*
X200335Y205665D01*
X198421Y207579D02*
Y209579D01*
X184500Y205000D02*
X192414D01*
X184500Y215000D02*
X194365D01*
X193000Y198339D02*
Y204414D01*
X192414Y205000D02*
X193000Y204414D01*
X197852Y203658D02*
X203368D01*
X194365Y215000D02*
X194950Y214414D01*
X193000Y198339D02*
X193586Y197753D01*
X197851Y203660D02*
X197852Y203658D01*
X194950Y200357D02*
X195586Y199721D01*
X194950Y200357D02*
Y214414D01*
X198000Y210000D02*
X198421Y209579D01*
X132445Y114603D02*
Y121755D01*
X132389Y121810D02*
X132445Y121755D01*
Y114603D02*
X132500Y114547D01*
X160000Y125000D02*
X243414D01*
X244000Y115586D02*
Y124414D01*
X155000Y125000D02*
X160000D01*
X243414D02*
X244000Y124414D01*
X153000Y127000D02*
X155000Y125000D01*
X124202Y127000D02*
X153000D01*
X304500Y155000D02*
X304685Y154815D01*
X163770Y165069D02*
Y169850D01*
X163740Y165039D02*
X163770Y165069D01*
Y169850D02*
X163799Y169880D01*
X136259Y165040D02*
X136260Y165039D01*
X136259Y169974D02*
X136259Y169973D01*
Y165040D02*
Y169973D01*
X156260Y165039D02*
X156282Y165062D01*
Y169710D02*
X156305Y169732D01*
X156282Y165062D02*
Y169710D01*
X264500Y235000D02*
X279000D01*
X264572Y224428D02*
X271755D01*
X264500Y224500D02*
X264572Y224428D01*
X264500Y215000D02*
X264630Y214870D01*
X264500Y205000D02*
X264630Y204870D01*
X271805D01*
X272000Y200000D02*
Y204675D01*
X271805Y204870D02*
X272000Y204675D01*
X264630Y214870D02*
X271805D01*
X271782Y175000D02*
X271847Y174935D01*
X270000Y175000D02*
X271782D01*
X248000Y178000D02*
X249000Y179000D01*
X292515Y120822D02*
X292530Y120837D01*
X292500Y114547D02*
X292515Y114562D01*
Y120822D01*
X240000Y231586D02*
Y235500D01*
X234000Y231586D02*
Y239000D01*
Y231586D02*
X234586Y231000D01*
X239414D01*
X240000Y231586D01*
X200000D02*
X200586Y231000D01*
X205414D01*
X206000Y231586D02*
Y239000D01*
X205414Y231000D02*
X206000Y231586D01*
X200000D02*
Y235500D01*
X288000Y150000D02*
X364000D01*
X286000Y148000D02*
X288000Y150000D01*
X286000Y141000D02*
Y148000D01*
X285000Y140000D02*
X286000Y141000D01*
X264500Y140000D02*
X285000D01*
X361258Y124551D02*
Y131081D01*
Y124551D02*
X361262Y124547D01*
X361254Y131085D02*
X361258Y131081D01*
X126000Y225000D02*
X141764D01*
X86713Y136287D02*
Y150000D01*
X88000Y135000D02*
X130000D01*
X86713Y136287D02*
X88000Y135000D01*
X270000Y170586D02*
Y175000D01*
X271000Y125000D02*
Y129414D01*
Y120586D02*
Y125000D01*
X191000Y225000D02*
X214593D01*
X184500D02*
X191000D01*
X169000Y175000D02*
X175500D01*
X302500Y95453D02*
X302546Y95407D01*
Y88340D02*
Y95407D01*
Y88340D02*
X302591Y88294D01*
X125000Y125000D02*
X134515D01*
X137373Y122142D01*
X124000Y124000D02*
X125000Y125000D01*
X124000Y115586D02*
Y124000D01*
X137436Y114611D02*
X137500Y114547D01*
X137436Y114611D02*
Y122078D01*
X244000Y115586D02*
X244586Y115000D01*
X285414D01*
X286000Y123414D02*
X286586Y124000D01*
X296914D01*
X297500Y123414D01*
X286000Y115586D02*
Y123414D01*
X297500Y114547D02*
Y123414D01*
X285414Y115000D02*
X286000Y115586D01*
X249000Y120000D02*
Y130000D01*
Y120000D02*
X255500D01*
X249000Y130000D02*
X255500D01*
X195000D02*
X249000D01*
Y110000D02*
X255500D01*
X135000Y130000D02*
X188000D01*
X193000Y135000D01*
X215500D01*
X240703Y110297D02*
X246000Y105000D01*
X220000Y110297D02*
X240703D01*
X246000Y105000D02*
X269414D01*
X290945Y58091D02*
X291000Y58146D01*
X269414Y105000D02*
X270000Y105586D01*
X269414Y110000D02*
X270000Y109414D01*
X264500Y110000D02*
X269414D01*
X270000Y105586D02*
Y109414D01*
X264500Y120000D02*
X270414D01*
X271000Y120586D01*
X270414Y130000D02*
X271000Y129414D01*
X264500Y130000D02*
X270414D01*
X249000Y100000D02*
X255500D01*
X76000Y186586D02*
Y193000D01*
X114000Y186000D02*
X120000Y180000D01*
X76586Y186000D02*
X114000D01*
X76000Y186586D02*
X76586Y186000D01*
X104500Y125000D02*
X122202D01*
X124202Y127000D01*
X104500Y115000D02*
X123414D01*
X124000Y115586D01*
X130000Y135000D02*
X135000Y130000D01*
X72000Y131000D02*
X128000D01*
X160000Y137606D02*
Y155000D01*
X251000Y220000D02*
X279000D01*
X246000Y175000D02*
X255500D01*
X231513D02*
X246000D01*
X250000Y210000D02*
X279000D01*
X230000Y170000D02*
X269414D01*
X228958Y171042D02*
Y178068D01*
X269414Y170000D02*
X270000Y170586D01*
X228958Y171042D02*
X230000Y170000D01*
X249000Y141000D02*
X250000Y140000D01*
X249000Y141000D02*
Y150000D01*
X250000Y140000D02*
X255500D01*
X255250Y119750D02*
X255500Y120000D01*
X198000Y183000D02*
X198973Y183973D01*
X198000Y167000D02*
Y183000D01*
X213000Y162000D02*
X248000D01*
X249000Y160000D02*
Y161000D01*
X248000Y162000D02*
X249000Y161000D01*
Y150000D02*
X256387D01*
X249000D02*
Y160000D01*
X255500D01*
X230927Y175586D02*
Y178068D01*
Y175586D02*
X231513Y175000D01*
X198973Y183973D02*
X203368D01*
X203299Y186010D02*
X203368Y185942D01*
X198595Y187000D02*
X199585Y186010D01*
X203299D01*
X198000Y187000D02*
X198595D01*
X193414Y231000D02*
X194000Y230414D01*
X171000Y231000D02*
X193414D01*
X194586Y227000D02*
X216000D01*
X194000Y227586D02*
Y230414D01*
Y227586D02*
X194586Y227000D01*
X140000Y137712D02*
X140106Y137606D01*
X140000Y137712D02*
Y155000D01*
X143740Y165039D02*
Y179414D01*
X144326Y180000D01*
X161000D01*
X63404Y69976D02*
Y80404D01*
X67998Y81000D02*
X68998Y82001D01*
X63404Y80404D02*
X64000Y81000D01*
X67998D01*
X71000Y77000D02*
X73000D01*
X135000Y210000D02*
Y214000D01*
Y206000D02*
Y210000D01*
X73000Y77000D02*
X73404Y76596D01*
Y69976D02*
Y76596D01*
X69000Y77000D02*
X71000D01*
X68404Y69976D02*
Y76404D01*
X69000Y77000D01*
X68998Y82001D02*
Y90000D01*
X136000Y215000D02*
X141764D01*
X135000Y214000D02*
X136000Y215000D01*
X135000Y206000D02*
X136000Y205000D01*
X141764D01*
X311000Y166000D02*
Y170000D01*
X304500Y165000D02*
X310000D01*
X311000Y166000D01*
Y170000D02*
Y174000D01*
X310000Y175000D02*
X311000Y174000D01*
X304500Y175000D02*
X310000D01*
X242000Y178000D02*
X248000D01*
X288000Y165000D02*
Y175000D01*
X295500D01*
X288000Y155586D02*
X288586Y155000D01*
X288000Y155586D02*
Y165000D01*
X288586Y155000D02*
X295500D01*
X288000Y165000D02*
X295500D01*
X247661Y197753D02*
X250414Y195000D01*
X255500D01*
X209000D02*
X209273Y195273D01*
Y211532D01*
X211242Y200354D02*
Y211532D01*
Y200354D02*
X213000Y198595D01*
Y198000D02*
Y198595D01*
X270414Y150000D02*
X271000Y150586D01*
Y155000D01*
X264500Y150000D02*
X270414D01*
X270900Y155100D02*
Y159100D01*
X264500Y160000D02*
X270000D01*
X270900Y159100D01*
Y155100D02*
X271000Y155000D01*
X219116Y207884D02*
Y211532D01*
Y207884D02*
X220000Y207000D01*
X229780D01*
X210000Y145000D02*
X215500D01*
X205000D02*
X210000D01*
Y154000D01*
X211000Y155000D01*
X215500D01*
X231000Y145000D02*
Y150000D01*
Y136000D02*
Y145000D01*
X224500D02*
X231000D01*
X224500Y135000D02*
X230000D01*
X231000Y136000D01*
X224500Y155000D02*
X230000D01*
X231000Y150000D02*
Y154000D01*
X230000Y155000D02*
X231000Y154000D01*
X272000Y196000D02*
Y200000D01*
X271000Y195000D02*
X272000Y196000D01*
X264500Y195000D02*
X271000D01*
X226995Y189995D02*
X227000Y190000D01*
X226995Y178073D02*
Y189995D01*
X221084Y181918D02*
X223000Y183834D01*
Y187000D01*
X221084Y178068D02*
Y181918D01*
X219058Y178126D02*
X219116Y178068D01*
X219058Y178126D02*
Y183942D01*
X219000Y184000D02*
X219058Y183942D01*
X264500Y175000D02*
X270000D01*
X226990Y178068D02*
X226995Y178073D01*
X157000Y220000D02*
Y224000D01*
Y215000D02*
Y220000D01*
Y206000D02*
Y215000D01*
X150764D02*
X157000D01*
X150764Y205000D02*
X156000D01*
X157000Y206000D01*
X150764Y225000D02*
X156000D01*
X157000Y224000D01*
Y220000D02*
X212000D01*
X213210Y218790D01*
Y211532D02*
Y218790D01*
X161000Y215000D02*
X175500D01*
X166000Y205000D02*
X175500D01*
X150595Y185000D02*
X175500D01*
X150595Y195000D02*
X175500D01*
X137000Y186000D02*
X138000Y185000D01*
X137000Y186000D02*
Y190000D01*
X138000Y185000D02*
X141933D01*
X137000Y190000D02*
Y194000D01*
X138000Y195000D01*
X141933D01*
X170000Y225000D02*
Y230000D01*
Y225000D02*
X175500D01*
X165000D02*
X170000D01*
Y230000D02*
X171000Y231000D01*
X216000Y227000D02*
X217147Y225853D01*
Y211532D02*
Y225853D01*
X215179Y211532D02*
Y224414D01*
X214593Y225000D02*
X215179Y224414D01*
X221084Y211532D02*
Y227916D01*
X223053Y228053D02*
X224071Y229071D01*
X223053Y211532D02*
Y228053D01*
X224071Y229071D02*
X227071D01*
X219929Y229071D02*
X221084Y227916D01*
X249000Y205627D02*
X249373D01*
X236832D02*
X249000D01*
Y209000D01*
X250000Y210000D01*
Y215000D02*
X255500D01*
X231513D02*
X250000D01*
Y219000D02*
X251000Y220000D01*
X250000Y215000D02*
Y219000D01*
Y224000D02*
X255000D01*
X230000D02*
X250000D01*
Y234000D01*
X251000Y235000D01*
X255500D01*
X255000Y224000D02*
X255500Y224500D01*
X229780Y207000D02*
X229971Y206809D01*
X230927Y214414D02*
X231513Y215000D01*
X230927Y211532D02*
Y214414D01*
X250000Y200000D02*
X272000D01*
X249000Y201000D02*
X250000Y200000D01*
X249000Y201000D02*
Y203000D01*
X236832Y203658D02*
X248342D01*
X249000Y203000D01*
X250000Y205000D02*
X255500D01*
X249373Y205627D02*
X250000Y205000D01*
X236832Y197753D02*
X247661D01*
X195586Y199721D02*
X203368D01*
X193586Y197753D02*
X203368D01*
X195000Y175586D02*
Y191000D01*
X195847Y191847D02*
X203368D01*
X195000Y191000D02*
X195847Y191847D01*
X184500Y175000D02*
X194414D01*
X195000Y175586D01*
X193000Y193230D02*
X193586Y193816D01*
X193000Y185586D02*
Y193230D01*
X191000Y195000D02*
X191784Y195784D01*
X193586Y193816D02*
X203368D01*
X184500Y195000D02*
X191000D01*
X191784Y195784D02*
X203368D01*
X184500Y185000D02*
X192414D01*
X193000Y185586D01*
X219058Y178010D02*
X219116Y178068D01*
X212929Y229071D02*
X219929D01*
X211929Y230071D02*
X212929Y229071D01*
X211929Y230071D02*
Y240000D01*
X228071Y230071D02*
Y240000D01*
X227071Y229071D02*
X228071Y230071D01*
X207000Y240000D02*
X211929D01*
X206000Y239000D02*
X207000Y240000D01*
X233000D02*
X234000Y239000D01*
X228071Y240000D02*
X233000D01*
X220000Y252000D02*
X239000D01*
X201000D02*
X220000D01*
X240000Y244500D02*
Y251000D01*
X239000Y252000D02*
X240000Y251000D01*
X200000D02*
X201000Y252000D01*
X200000Y244500D02*
Y251000D01*
D19*
X147500Y114547D02*
D03*
X142500D02*
D03*
X137500D02*
D03*
X132500D02*
D03*
X147500Y95453D02*
D03*
X142500D02*
D03*
X137500D02*
D03*
X132500D02*
D03*
X356262Y105453D02*
D03*
X361262D02*
D03*
X366262D02*
D03*
X371262D02*
D03*
X356262Y124547D02*
D03*
X361262D02*
D03*
X366262D02*
D03*
X371262D02*
D03*
X73404Y69976D02*
D03*
X68404D02*
D03*
X63404D02*
D03*
X58404D02*
D03*
X73404Y50882D02*
D03*
X68404D02*
D03*
X63404D02*
D03*
X58404D02*
D03*
X292500Y95453D02*
D03*
X297500D02*
D03*
X302500D02*
D03*
X307500D02*
D03*
X292500Y114547D02*
D03*
X297500D02*
D03*
X302500D02*
D03*
X307500D02*
D03*
D20*
X264500Y235000D02*
D03*
X255500D02*
D03*
Y175000D02*
D03*
X264500D02*
D03*
X304500D02*
D03*
X295500D02*
D03*
Y165000D02*
D03*
X304500D02*
D03*
Y155000D02*
D03*
X295500D02*
D03*
X224500Y135000D02*
D03*
X215500D02*
D03*
Y145000D02*
D03*
X224500D02*
D03*
Y155000D02*
D03*
X215500D02*
D03*
X255500Y130000D02*
D03*
X264500D02*
D03*
X255500Y110000D02*
D03*
X264500D02*
D03*
Y120000D02*
D03*
X255500D02*
D03*
X359262Y140000D02*
D03*
X368262D02*
D03*
X255500D02*
D03*
X264500D02*
D03*
X150764Y205000D02*
D03*
X141764D02*
D03*
X150764Y225000D02*
D03*
X141764D02*
D03*
Y215000D02*
D03*
X150764D02*
D03*
X264500Y224500D02*
D03*
X255500D02*
D03*
X175500Y105000D02*
D03*
X184500D02*
D03*
X104500Y115000D02*
D03*
X95500D02*
D03*
X104500Y125000D02*
D03*
X95500D02*
D03*
X184500Y195000D02*
D03*
X175500D02*
D03*
X184500Y185000D02*
D03*
X175500D02*
D03*
X184500Y215000D02*
D03*
X175500D02*
D03*
X184500Y205000D02*
D03*
X175500D02*
D03*
X264500Y195000D02*
D03*
X255500D02*
D03*
X184500Y175000D02*
D03*
X175500D02*
D03*
Y225000D02*
D03*
X184500D02*
D03*
X264500Y215000D02*
D03*
X255500D02*
D03*
X264500Y205000D02*
D03*
X255500D02*
D03*
X215500Y90000D02*
D03*
X224500D02*
D03*
X104500Y180000D02*
D03*
X95500D02*
D03*
X104500Y225000D02*
D03*
X95500D02*
D03*
X55500D02*
D03*
X64500D02*
D03*
X25500D02*
D03*
X34500D02*
D03*
X104500Y105000D02*
D03*
X95500D02*
D03*
Y95000D02*
D03*
X104500D02*
D03*
X95500Y85000D02*
D03*
X104500D02*
D03*
X95500Y75000D02*
D03*
X104500D02*
D03*
X144500D02*
D03*
X135500D02*
D03*
X255500Y90000D02*
D03*
X264500D02*
D03*
X304500Y75000D02*
D03*
X295500D02*
D03*
X344500Y140000D02*
D03*
X335500D02*
D03*
X255500Y75000D02*
D03*
X264500D02*
D03*
X255500Y100000D02*
D03*
X264500D02*
D03*
X255500Y160000D02*
D03*
X264500D02*
D03*
Y150000D02*
D03*
X255500D02*
D03*
D21*
X47720Y64929D02*
D03*
Y55929D02*
D03*
X200000Y235500D02*
D03*
Y244500D02*
D03*
X240000Y235500D02*
D03*
Y244500D02*
D03*
D22*
X219260Y36376D02*
D03*
X180283D02*
D03*
X369661Y65500D02*
D03*
X330685D02*
D03*
D23*
X348465Y130049D02*
D03*
X331535D02*
D03*
X171535Y75000D02*
D03*
X188465D02*
D03*
D24*
X236832Y205627D02*
D03*
Y203658D02*
D03*
Y201690D02*
D03*
Y199721D02*
D03*
Y197753D02*
D03*
Y195784D02*
D03*
Y193816D02*
D03*
Y191847D02*
D03*
Y189879D02*
D03*
Y187910D02*
D03*
Y185942D02*
D03*
Y183973D02*
D03*
X203368D02*
D03*
Y185942D02*
D03*
Y187910D02*
D03*
Y189879D02*
D03*
Y191847D02*
D03*
Y193816D02*
D03*
Y195784D02*
D03*
Y197753D02*
D03*
Y199721D02*
D03*
Y201690D02*
D03*
Y203658D02*
D03*
Y205627D02*
D03*
D25*
X230927Y178068D02*
D03*
X228958D02*
D03*
X226990D02*
D03*
X225021D02*
D03*
X223053D02*
D03*
X221084D02*
D03*
X219116D02*
D03*
X217147D02*
D03*
X215179D02*
D03*
X213210D02*
D03*
X211242D02*
D03*
X209273D02*
D03*
Y211532D02*
D03*
X211242D02*
D03*
X213210D02*
D03*
X215179D02*
D03*
X217147D02*
D03*
X219116D02*
D03*
X221084D02*
D03*
X223053D02*
D03*
X225021D02*
D03*
X226990D02*
D03*
X228958D02*
D03*
X230927D02*
D03*
D26*
X141933Y195000D02*
D03*
X150595D02*
D03*
X141933Y185000D02*
D03*
X150595D02*
D03*
D27*
X173300Y90000D02*
D03*
X186700D02*
D03*
X346700Y120000D02*
D03*
X333300D02*
D03*
D28*
X163740Y165039D02*
D03*
X156260D02*
D03*
X160000Y155000D02*
D03*
X143740Y165039D02*
D03*
X136260D02*
D03*
X140000Y155000D02*
D03*
D29*
X211929Y240000D02*
D03*
X228071D02*
D03*
D30*
X334587Y95000D02*
D03*
X345413D02*
D03*
X105413Y240000D02*
D03*
X94587D02*
D03*
X24587D02*
D03*
X35413D02*
D03*
X65413D02*
D03*
X54587D02*
D03*
X214587Y74843D02*
D03*
X225413D02*
D03*
D31*
X88583Y211260D02*
D03*
Y202204D02*
D03*
Y193149D02*
D03*
D32*
X111417Y202204D02*
D03*
D33*
X30793Y195000D02*
D03*
D34*
X56975Y185945D02*
D03*
Y204055D02*
D03*
D35*
X28465Y55000D02*
D03*
X11535D02*
D03*
D36*
X86713Y150000D02*
D03*
X113287D02*
D03*
X43622Y107932D02*
D03*
X17047D02*
D03*
X44081Y150000D02*
D03*
X17506D02*
D03*
D37*
X290945Y58091D02*
D03*
X309055D02*
D03*
X250945D02*
D03*
X269055D02*
D03*
X130945D02*
D03*
X149055D02*
D03*
X90945D02*
D03*
X109055D02*
D03*
D38*
X300000Y31909D02*
D03*
X260000D02*
D03*
X140000D02*
D03*
X100000D02*
D03*
D62*
X251000Y68000D02*
X280389D01*
X283318Y46318D02*
Y65071D01*
X280389Y68000D02*
X283318Y65071D01*
X225413Y75000D02*
X231000D01*
X235000D01*
X291000Y58146D02*
Y68000D01*
X295000D01*
X131000Y58146D02*
Y68000D01*
X135000D01*
X91000D02*
X120382D01*
X123311Y46312D02*
Y65071D01*
X120382Y68000D02*
X123311Y65071D01*
X37000Y81000D02*
X44000Y88000D01*
X37000Y55000D02*
Y81000D01*
X44000Y88000D02*
Y104919D01*
X19000Y29000D02*
X20000Y30000D01*
X5000Y31929D02*
Y53000D01*
Y31929D02*
X7929Y29000D01*
X19000D01*
X376823Y30119D02*
Y39823D01*
X384000Y47000D02*
Y100000D01*
X376704Y30000D02*
X376823Y30119D01*
Y39823D02*
X384000Y47000D01*
X208929Y63000D02*
X216331D01*
X219260Y60071D01*
Y36376D02*
Y60071D01*
X383000Y101000D02*
X384000Y100000D01*
X324000Y95000D02*
X334587D01*
X206000Y75000D02*
X215500D01*
X206000Y90000D02*
X215500D01*
X206000Y75000D02*
Y90000D01*
X44081Y105000D02*
Y150000D01*
X37000Y46429D02*
X39929Y43500D01*
X37000Y46429D02*
Y55000D01*
X39929Y43500D02*
X54000D01*
X28465Y55000D02*
X37000D01*
X7000D02*
X11000D01*
X5000Y53000D02*
X7000Y55000D01*
X251000Y58146D02*
Y68000D01*
X250945Y58091D02*
X251000Y58146D01*
X91000D02*
Y68000D01*
X90945Y58091D02*
X91000Y58146D01*
X206000Y65929D02*
Y75000D01*
Y65929D02*
X208929Y63000D01*
X44000Y104919D02*
X44081Y105000D01*
Y150000D02*
X68000D01*
X86713D01*
D63*
X249091Y85134D02*
X272545D01*
X272635Y85044D01*
X268053Y81947D02*
X269000Y81000D01*
X253000Y81947D02*
X268053D01*
X249000Y85225D02*
X249091Y85134D01*
X383121Y154815D02*
X384000Y153936D01*
Y111217D02*
Y153936D01*
X340000Y154815D02*
X383121D01*
X106656Y62000D02*
X109055Y59600D01*
X103000Y62000D02*
X106656D01*
X109055Y58091D02*
Y59600D01*
X142502Y88641D02*
Y95450D01*
X142500Y95453D02*
X142502Y95450D01*
Y88641D02*
X142505Y88638D01*
X142493Y114554D02*
Y121916D01*
Y114554D02*
X142500Y114547D01*
X142486Y121923D02*
X142493Y121916D01*
X340000Y154815D02*
Y165000D01*
X304685Y154815D02*
X340000D01*
X317000Y118000D02*
X319000Y120000D01*
X326150D01*
X272635Y85044D02*
X283997D01*
X285041Y84000D01*
X264507Y99993D02*
X272606D01*
X264500Y100000D02*
X264507Y99993D01*
X88000Y110000D02*
Y115000D01*
Y106000D02*
Y110000D01*
X269055Y58091D02*
Y59600D01*
X266655Y62000D02*
X269055Y59600D01*
X263000Y62000D02*
X266655D01*
X354000Y140000D02*
Y145000D01*
Y134000D02*
Y140000D01*
X311000Y146000D02*
X353000D01*
X354000Y145000D01*
X366262Y124547D02*
Y132121D01*
X367141Y133000D02*
X371262D01*
X366262Y132121D02*
X367141Y133000D01*
X371262Y124547D02*
Y133000D01*
X374000D01*
X375000Y140000D02*
Y145000D01*
Y134000D02*
Y140000D01*
X368262D02*
X375000D01*
X374000Y133000D02*
X375000Y134000D01*
X354000Y140000D02*
X359262D01*
X354000Y134000D02*
X356262Y131738D01*
Y124547D02*
Y131738D01*
X346700Y120000D02*
X348481Y121781D01*
Y130033D01*
X348465Y130049D02*
X348481Y130033D01*
X348465Y130049D02*
X348481Y130066D01*
X347603Y140000D02*
X348481Y139121D01*
X344500Y140000D02*
X347603D01*
X348481Y130066D02*
Y139121D01*
X326150Y120000D02*
X333300D01*
X326150D02*
Y129150D01*
X327049Y130049D01*
X331535D01*
X317000Y88000D02*
Y118000D01*
X308379Y88000D02*
X317000D01*
X307500Y88879D02*
X308379Y88000D01*
X307500Y88879D02*
Y95453D01*
X206000Y90000D02*
Y107368D01*
X89000Y95000D02*
X95500D01*
X269000Y81000D02*
X311000D01*
X285041Y84000D02*
X296621D01*
X297500Y84879D01*
Y95453D01*
X137473Y85150D02*
X137486Y85164D01*
Y95439D01*
X111000Y95000D02*
X118000D01*
X110000Y105000D02*
X111000Y104000D01*
Y95000D02*
Y104000D01*
X104500Y95000D02*
X111000D01*
X104500Y105000D02*
X110000D01*
X88000Y110000D02*
X114000D01*
X87000Y105000D02*
X88000Y106000D01*
X292444Y88453D02*
Y95397D01*
X292500Y95453D01*
X292388Y88397D02*
X292444Y88453D01*
X290000Y75000D02*
X295500D01*
X137486Y95439D02*
X137500Y95453D01*
X147512Y104969D02*
X147524Y104957D01*
X147500Y114547D02*
X147512Y114535D01*
Y104969D02*
Y114535D01*
X122000Y86000D02*
Y105000D01*
X104500Y85000D02*
X121000D01*
X122000Y86000D01*
X126000Y78000D02*
Y113000D01*
X123000Y75000D02*
X126000Y78000D01*
X104500Y75000D02*
X123000D01*
X148379Y89621D02*
X167000D01*
X147500Y90500D02*
Y95453D01*
Y90500D02*
X148379Y89621D01*
X89000Y85000D02*
X95500D01*
X130000Y86000D02*
X132500Y88500D01*
Y95453D01*
X130000Y76000D02*
Y86000D01*
Y76000D02*
X131000Y75000D01*
X135500D01*
X144500D02*
X148000D01*
X149055Y73945D01*
Y58091D02*
Y73945D01*
X300950Y126050D02*
X302500Y124500D01*
X283050Y126050D02*
X300950D01*
X283000Y126000D02*
X283050Y126050D01*
X302500Y114547D02*
Y124500D01*
X264500Y75000D02*
X283000D01*
X306414Y105000D02*
X307500Y106086D01*
X288000Y105000D02*
X306414D01*
X307500Y106086D02*
Y114547D01*
X287000Y91000D02*
Y104000D01*
X288000Y105000D01*
X264500Y90000D02*
X286000D01*
X287000Y91000D01*
X304500Y75000D02*
X308000D01*
X309055Y58091D02*
Y73945D01*
X308000Y75000D02*
X309055Y73945D01*
X249000Y90000D02*
X255500D01*
X251000Y74121D02*
X251879Y75000D01*
X255500D01*
X251000Y68000D02*
Y74121D01*
X91000Y68000D02*
Y74121D01*
X91879Y75000D02*
X95500D01*
X91000Y74121D02*
X91879Y75000D01*
X206000Y107368D02*
X208929Y110297D01*
X220000D01*
X88000Y115000D02*
Y124000D01*
Y115000D02*
X95500D01*
X88000Y124000D02*
X89000Y125000D01*
X95500D01*
X58404Y69976D02*
Y98404D01*
X60000Y100000D01*
X76000D01*
X49000Y78000D02*
X58000D01*
X47720Y64929D02*
Y76720D01*
X49000Y78000D01*
D64*
X343000Y249000D02*
X344762Y247238D01*
X296464Y249000D02*
X343000D01*
X295000Y198465D02*
Y247535D01*
X344762Y242238D02*
Y247238D01*
Y242238D02*
X345000Y242000D01*
X295000Y247535D02*
X296464Y249000D01*
X293535Y197000D02*
X294268Y197732D01*
X279000Y197000D02*
X293535D01*
X294268Y197732D02*
X295000Y198465D01*
X81121Y211348D02*
X88494D01*
X88583Y211260D01*
X81033Y211436D02*
X81121Y211348D01*
X71866Y231866D02*
X72000Y232000D01*
X71866Y227666D02*
Y231866D01*
X70402Y226202D02*
X71866Y227666D01*
X72000Y232000D02*
Y238535D01*
X70535Y240000D02*
X72000Y238535D01*
X65413Y240000D02*
X70535D01*
X65702Y226202D02*
X70402D01*
X64500Y225000D02*
X65702Y226202D01*
X65413Y239311D02*
X68002Y236722D01*
X65413Y239311D02*
Y240000D01*
X76000Y193000D02*
Y247000D01*
X89000Y232000D02*
Y238535D01*
Y226465D02*
Y232000D01*
Y226465D02*
X90465Y225000D01*
X95500D01*
X90465Y240000D02*
X94587D01*
X89000Y238535D02*
X90465Y240000D01*
X194768Y76464D02*
Y90000D01*
X188465Y75000D02*
X193303D01*
X184500Y105000D02*
X193000D01*
X186700Y90000D02*
X194768D01*
Y103232D01*
X193000Y105000D02*
X194768Y103232D01*
X193303Y75000D02*
X194768Y76464D01*
X47731Y50130D02*
Y55918D01*
X47720Y55929D02*
X47731Y55918D01*
Y50130D02*
X47742Y50119D01*
X329000Y140000D02*
X335500D01*
X317000Y56189D02*
Y88000D01*
X165264Y240000D02*
X191000D01*
X150000D02*
X163264D01*
X148500Y231500D02*
Y238500D01*
X147000Y230000D02*
X148500Y231500D01*
X122000Y230000D02*
X147000D01*
X148500Y238500D02*
X150000Y240000D01*
X112000Y225000D02*
X120000D01*
X104500D02*
X112000D01*
Y238000D01*
X110000Y240000D02*
X112000Y238000D01*
X105413Y240000D02*
X110000D01*
X120000Y225000D02*
Y228000D01*
X122000Y230000D01*
X74000Y249000D02*
X76000Y247000D01*
X47000Y249000D02*
X74000D01*
X45000Y240000D02*
Y247000D01*
X47000Y249000D01*
X169000Y105000D02*
X175500D01*
X88508Y193075D02*
X88583Y193149D01*
X76000Y193000D02*
X76075Y193075D01*
X88508D01*
X111000Y174000D02*
Y179000D01*
X110000Y180000D02*
X111000Y179000D01*
X104500Y180000D02*
X110000D01*
X87000Y105000D02*
X95500D01*
X76586D02*
X87000D01*
X76000Y100000D02*
Y104414D01*
X76586Y105000D01*
X246000Y167000D02*
X279000D01*
X198000D02*
X246000D01*
X191000D02*
X198000D01*
X88583Y202204D02*
X111417D01*
X113287Y150000D02*
X124000D01*
X120000Y203669D02*
Y225000D01*
X118535Y202204D02*
X120000Y203669D01*
X111417Y202204D02*
X118535D01*
X93587Y241000D02*
X94587Y240000D01*
X68000Y180000D02*
Y183905D01*
Y150000D02*
Y180000D01*
X95500D01*
X65535Y204055D02*
X67000Y205520D01*
Y216535D01*
X56975Y204055D02*
X65535D01*
Y218000D02*
X67000Y216535D01*
X46464Y218000D02*
X65535D01*
X45000Y219464D02*
Y225000D01*
Y219464D02*
X46464Y218000D01*
X30793Y195000D02*
Y195000D01*
X57550Y185370D02*
X66536D01*
X68000Y183905D01*
X56975Y185945D02*
X57550Y185370D01*
X45000Y225000D02*
X55500D01*
X45000Y240000D02*
X54587D01*
X35293Y225000D02*
X45000D01*
X36207Y240000D02*
X45000D01*
Y225000D02*
Y240000D01*
D65*
X332677Y15748D02*
D03*
X15748Y74803D02*
D03*
X125984Y244094D02*
D03*
X334646Y211724D02*
D03*
D66*
X376704Y30000D02*
D03*
X356704D02*
D03*
X20000D02*
D03*
X40000D02*
D03*
D67*
X363762Y165000D02*
D03*
X160000Y137606D02*
D03*
X140106Y137606D02*
D03*
X68998Y90000D02*
D03*
X164000Y240000D02*
D03*
X120000Y180000D02*
D03*
X65904Y19775D02*
D03*
X220000Y110297D02*
D03*
X340000Y165000D02*
D03*
D68*
X375000Y242000D02*
D03*
X365000D02*
D03*
X355000D02*
D03*
X325000D02*
D03*
X315000D02*
D03*
X305000D02*
D03*
D69*
X345000D02*
D03*
X295000D02*
D03*
D70*
X277000Y46000D02*
D03*
X235000Y75000D02*
D03*
X253000Y81947D02*
D03*
X249000Y85225D02*
D03*
X295000Y68000D02*
D03*
X135000D02*
D03*
X130945D02*
D03*
X290945D02*
D03*
X117000Y46000D02*
D03*
X246000Y190000D02*
D03*
X288000D02*
D03*
X103000Y62000D02*
D03*
X197851Y203660D02*
D03*
X81033Y211260D02*
D03*
X72000Y232000D02*
D03*
X89000D02*
D03*
X47742Y50119D02*
D03*
X142500Y88638D02*
D03*
Y121935D02*
D03*
X132500D02*
D03*
X160000Y125000D02*
D03*
X163799Y169880D02*
D03*
X136259Y169974D02*
D03*
X156305Y169732D02*
D03*
X279000Y235000D02*
D03*
X271755Y224428D02*
D03*
X271805Y204870D02*
D03*
Y214870D02*
D03*
X271847Y174935D02*
D03*
X272635Y85044D02*
D03*
X272606Y99993D02*
D03*
X292500Y120837D02*
D03*
X263000Y62000D02*
D03*
X364000Y150000D02*
D03*
X361254Y131085D02*
D03*
X311000Y146000D02*
D03*
X375000Y145000D02*
D03*
X329000Y140000D02*
D03*
X324000Y95000D02*
D03*
X328000D02*
D03*
X126000Y225000D02*
D03*
X231000Y75000D02*
D03*
X279000Y197000D02*
D03*
X169000Y175000D02*
D03*
X20000Y177000D02*
D03*
X26000D02*
D03*
X32000D02*
D03*
X38000D02*
D03*
X44000D02*
D03*
X20000Y213000D02*
D03*
X26000D02*
D03*
X32000D02*
D03*
X38000D02*
D03*
X44000D02*
D03*
X89000Y95000D02*
D03*
X311000Y81000D02*
D03*
X137500Y85150D02*
D03*
X114000Y110000D02*
D03*
X118000Y95000D02*
D03*
X292500Y88294D02*
D03*
X302500D02*
D03*
X290000Y75000D02*
D03*
X147524Y104957D02*
D03*
X122000Y105000D02*
D03*
X126000Y113000D02*
D03*
X169000Y105000D02*
D03*
X89000Y85000D02*
D03*
X137500Y121935D02*
D03*
X249000Y120000D02*
D03*
Y110000D02*
D03*
X195000Y130000D02*
D03*
X283000Y126000D02*
D03*
Y75000D02*
D03*
X271000Y125000D02*
D03*
X249000Y100000D02*
D03*
Y90000D02*
D03*
X317000Y56000D02*
D03*
Y51000D02*
D03*
X283000Y46000D02*
D03*
Y40000D02*
D03*
Y34000D02*
D03*
Y28000D02*
D03*
Y22000D02*
D03*
Y16000D02*
D03*
X287000Y14000D02*
D03*
X292000D02*
D03*
X297000D02*
D03*
X303000D02*
D03*
X308000D02*
D03*
X313000D02*
D03*
X317000Y16000D02*
D03*
Y22000D02*
D03*
Y28000D02*
D03*
Y34000D02*
D03*
Y40000D02*
D03*
Y46000D02*
D03*
X243000Y56000D02*
D03*
Y51000D02*
D03*
Y46000D02*
D03*
Y40000D02*
D03*
Y34000D02*
D03*
Y28000D02*
D03*
Y22000D02*
D03*
Y16000D02*
D03*
X247000Y14000D02*
D03*
X252000D02*
D03*
X257000D02*
D03*
X263000D02*
D03*
X268000D02*
D03*
X273000D02*
D03*
X277000Y16000D02*
D03*
Y22000D02*
D03*
Y28000D02*
D03*
Y34000D02*
D03*
Y40000D02*
D03*
X157000Y46000D02*
D03*
Y40000D02*
D03*
Y34000D02*
D03*
Y28000D02*
D03*
Y22000D02*
D03*
Y16000D02*
D03*
X153000Y14000D02*
D03*
X148000D02*
D03*
X143000D02*
D03*
X137000D02*
D03*
X132000D02*
D03*
X127000D02*
D03*
X123000Y16000D02*
D03*
Y22000D02*
D03*
Y28000D02*
D03*
Y34000D02*
D03*
Y40000D02*
D03*
Y46000D02*
D03*
X117000Y40000D02*
D03*
Y34000D02*
D03*
Y28000D02*
D03*
Y22000D02*
D03*
Y16000D02*
D03*
X113000Y14000D02*
D03*
X108000D02*
D03*
X103000D02*
D03*
X97000D02*
D03*
X92000D02*
D03*
X87000D02*
D03*
X83000Y16000D02*
D03*
Y22000D02*
D03*
Y28000D02*
D03*
Y34000D02*
D03*
Y40000D02*
D03*
Y46000D02*
D03*
Y51000D02*
D03*
Y56000D02*
D03*
X76000Y193000D02*
D03*
X111000Y174000D02*
D03*
X72000Y131000D02*
D03*
X76000Y100000D02*
D03*
X128000Y131000D02*
D03*
X279000Y220000D02*
D03*
X246000Y167000D02*
D03*
Y175000D02*
D03*
X279000Y210000D02*
D03*
Y167000D02*
D03*
X191000D02*
D03*
X213000Y162000D02*
D03*
X198000Y187000D02*
D03*
X191000Y225000D02*
D03*
Y240000D02*
D03*
X161000Y180000D02*
D03*
X71000Y77000D02*
D03*
X135000Y210000D02*
D03*
X124000Y150000D02*
D03*
X311000Y170000D02*
D03*
X242000Y187000D02*
D03*
X246000Y181000D02*
D03*
X242000Y178000D02*
D03*
X288000Y175000D02*
D03*
X213000Y198000D02*
D03*
X209000Y195000D02*
D03*
X271000Y155000D02*
D03*
X198000Y210000D02*
D03*
X205000Y145000D02*
D03*
X231000Y150000D02*
D03*
X227000Y190000D02*
D03*
X223000Y187000D02*
D03*
X219000Y184000D02*
D03*
X161000Y215000D02*
D03*
X166000Y205000D02*
D03*
X137000Y190000D02*
D03*
X165000Y225000D02*
D03*
X230000Y224000D02*
D03*
X229971Y206809D02*
D03*
X220000Y252000D02*
D03*
M02*
