G04*
G04 #@! TF.GenerationSoftware,Altium Limited,Altium Designer,21.6.4 (81)*
G04*
G04 Layer_Color=65535*
%FSLAX25Y25*%
%MOIN*%
G70*
G04*
G04 #@! TF.SameCoordinates,2BAE2438-CD35-4855-809F-F1E5AD1C84AA*
G04*
G04*
G04 #@! TF.FilePolarity,Positive*
G04*
G01*
G75*
%ADD10C,0.01000*%
%ADD11C,0.00394*%
%ADD12C,0.00600*%
%ADD13C,0.00984*%
%ADD14C,0.00787*%
%ADD15C,0.00800*%
%ADD16C,0.00500*%
%ADD17C,0.01200*%
%ADD18R,0.21000X0.06000*%
D10*
X151339Y114547D02*
G03*
X151339Y114547I-492J0D01*
G01*
X370061Y165000D02*
G03*
X370061Y165000I-6299J0D01*
G01*
X166299Y137606D02*
G03*
X166299Y137606I-6299J0D01*
G01*
X146405Y137606D02*
G03*
X146405Y137606I-6299J0D01*
G01*
X75297Y90000D02*
G03*
X75297Y90000I-6299J0D01*
G01*
X170299Y240000D02*
G03*
X170299Y240000I-6299J0D01*
G01*
X126299Y180000D02*
G03*
X126299Y180000I-6299J0D01*
G01*
X72203Y19775D02*
G03*
X72203Y19775I-6299J0D01*
G01*
X226299Y110297D02*
G03*
X226299Y110297I-6299J0D01*
G01*
X346299Y165000D02*
G03*
X346299Y165000I-6299J0D01*
G01*
X353408Y105453D02*
G03*
X353408Y105453I-492J0D01*
G01*
X55550Y50882D02*
G03*
X55550Y50882I-492J0D01*
G01*
X311339Y114547D02*
G03*
X311339Y114547I-492J0D01*
G01*
D11*
X350433Y125030D02*
G03*
X350433Y125030I-197J0D01*
G01*
X139326Y198394D02*
G03*
X139326Y198394I-197J0D01*
G01*
Y188394D02*
G03*
X139326Y188394I-197J0D01*
G01*
X30433Y49980D02*
G03*
X30433Y49980I-197J0D01*
G01*
X190433Y69980D02*
G03*
X190433Y69980I-197J0D01*
G01*
D12*
X231227Y215866D02*
G03*
X231227Y215866I-300J0D01*
G01*
X234750Y207537D02*
Y209450D01*
X232837Y180150D02*
X234750D01*
X205450D02*
Y182063D01*
Y209450D02*
X207363D01*
X232837D02*
X234750D01*
Y180150D02*
Y182063D01*
X205450Y180150D02*
X207363D01*
X205450Y207537D02*
Y209450D01*
D13*
X350335Y88307D02*
G03*
X350335Y88307I-492J0D01*
G01*
X110335Y233307D02*
G03*
X110335Y233307I-492J0D01*
G01*
X40335D02*
G03*
X40335Y233307I-492J0D01*
G01*
X50650Y246693D02*
G03*
X50650Y246693I-492J0D01*
G01*
X210650Y81536D02*
G03*
X210650Y81536I-492J0D01*
G01*
D14*
X130157Y108740D02*
X149843D01*
X130157Y101260D02*
X149843D01*
Y108740D01*
X130157Y101260D02*
Y108740D01*
X251500Y238800D02*
X268500D01*
X251500Y231200D02*
X268500D01*
X251500D02*
Y238800D01*
X268500Y231200D02*
Y238800D01*
X43920Y51929D02*
X51520D01*
X43920Y68929D02*
X51520D01*
X43920Y51929D02*
Y68929D01*
X51520Y51929D02*
Y68929D01*
X347097Y-9173D02*
X386310D01*
X347097Y38071D02*
X386310D01*
X347097Y-9173D02*
Y38071D01*
X352097Y7165D02*
X361310D01*
X360326Y-9173D02*
Y7165D01*
X353082Y-9173D02*
Y7165D01*
X352097Y-9173D02*
Y7165D01*
X361310Y-9173D02*
Y7165D01*
X348223Y-9173D02*
Y24488D01*
X365184Y-9173D02*
Y24488D01*
X355916Y-5630D02*
X357491D01*
X358317Y-1723D02*
X358374Y-1951D01*
X358199Y-1292D02*
X358317Y-1723D01*
X358074Y-894D02*
X358199Y-1292D01*
X358009Y-709D02*
X358074Y-894D01*
X355333D02*
X355398Y-709D01*
X355208Y-1292D02*
X355333Y-894D01*
X355090Y-1723D02*
X355208Y-1292D01*
X355033Y-1951D02*
X355090Y-1723D01*
X355033Y-1951D02*
X355090Y-1723D01*
X355208Y-1292D01*
X355333Y-894D01*
X355398Y-709D01*
X358009D01*
Y24488D01*
X357491Y-5630D02*
X358672Y-709D01*
Y24488D01*
X354735Y-709D02*
X355916Y-5630D01*
X354735Y-709D02*
Y24488D01*
X355398Y-709D02*
Y24488D01*
X348223D02*
X365184D01*
X368223D02*
X385184D01*
X375398Y-709D02*
Y24488D01*
X374735Y-709D02*
Y24488D01*
Y-709D02*
X375916Y-5630D01*
X375398Y-709D02*
X378010D01*
X375333Y-894D02*
X375398Y-709D01*
X375208Y-1292D02*
X375333Y-894D01*
X375090Y-1723D02*
X375208Y-1292D01*
X375033Y-1951D02*
X375090Y-1723D01*
X375033Y-1951D02*
X375090Y-1723D01*
X375208Y-1292D01*
X375333Y-894D01*
X375398Y-709D01*
X375916Y-5630D02*
X377491D01*
X368223Y-9173D02*
Y24488D01*
X372097Y-9173D02*
Y7165D01*
X373082Y-9173D02*
Y7165D01*
X372097D02*
X381310D01*
X380326Y-9173D02*
Y7165D01*
X381310Y-9173D02*
Y7165D01*
X385184Y-9173D02*
Y24488D01*
X378317Y-1723D02*
X378374Y-1951D01*
X378199Y-1292D02*
X378317Y-1723D01*
X378074Y-894D02*
X378199Y-1292D01*
X378009Y-709D02*
X378074Y-894D01*
X378009Y-709D02*
Y24488D01*
X377491Y-5630D02*
X378672Y-709D01*
Y24488D01*
X386310Y-9173D02*
Y38071D01*
X251500Y171200D02*
X268500D01*
X251500Y178800D02*
X268500D01*
Y171200D02*
Y178800D01*
X251500Y171200D02*
Y178800D01*
X291500D02*
X308500D01*
X291500Y171200D02*
X308500D01*
X291500D02*
Y178800D01*
X308500Y171200D02*
Y178800D01*
X291500Y161200D02*
X308500D01*
X291500Y168800D02*
X308500D01*
Y161200D02*
Y168800D01*
X291500Y161200D02*
Y168800D01*
Y158800D02*
X308500D01*
X291500Y151200D02*
X308500D01*
X291500D02*
Y158800D01*
X308500Y151200D02*
Y158800D01*
X339500Y229000D02*
Y255000D01*
Y229000D02*
X360500D01*
X339500Y255000D02*
X360500D01*
X359500Y229000D02*
X380500D01*
Y255000D01*
X359500D02*
X380500D01*
X289500Y229000D02*
Y255000D01*
Y229000D02*
X310500D01*
X289500Y255000D02*
X310500D01*
X309500Y229000D02*
X330500D01*
Y255000D01*
X309500D02*
X330500D01*
X211500Y131200D02*
Y138800D01*
X228500Y131200D02*
Y138800D01*
X211500D02*
X228500D01*
X211500Y131200D02*
X228500D01*
Y141200D02*
Y148800D01*
X211500Y141200D02*
Y148800D01*
Y141200D02*
X228500D01*
X211500Y148800D02*
X228500D01*
X211500Y151200D02*
Y158800D01*
X228500Y151200D02*
Y158800D01*
X211500D02*
X228500D01*
X211500Y151200D02*
X228500D01*
X268500Y126200D02*
Y133800D01*
X251500Y126200D02*
Y133800D01*
Y126200D02*
X268500D01*
X251500Y133800D02*
X268500D01*
Y106200D02*
Y113800D01*
X251500Y106200D02*
Y113800D01*
Y106200D02*
X268500D01*
X251500Y113800D02*
X268500D01*
X251500Y116200D02*
Y123800D01*
X268500Y116200D02*
Y123800D01*
X251500D02*
X268500D01*
X251500Y116200D02*
X268500D01*
X372262Y136200D02*
Y143800D01*
X355262Y136200D02*
Y143800D01*
Y136200D02*
X372262D01*
X355262Y143800D02*
X372262D01*
X268500Y136200D02*
Y143800D01*
X251500Y136200D02*
Y143800D01*
Y136200D02*
X268500D01*
X251500Y143800D02*
X268500D01*
X137764Y201200D02*
Y208800D01*
X154764Y201200D02*
Y208800D01*
X137764D02*
X154764D01*
X137764Y201200D02*
X154764D01*
X137764Y221200D02*
Y228800D01*
X154764Y221200D02*
Y228800D01*
X137764D02*
X154764D01*
X137764Y221200D02*
X154764D01*
Y211200D02*
Y218800D01*
X137764Y211200D02*
Y218800D01*
Y211200D02*
X154764D01*
X137764Y218800D02*
X154764D01*
X251500Y220700D02*
Y228300D01*
X268500Y220700D02*
Y228300D01*
X251500D02*
X268500D01*
X251500Y220700D02*
X268500D01*
X144492Y197461D02*
X148036D01*
X144492Y192539D02*
X148036D01*
X144492Y187461D02*
X148036D01*
X144492Y182539D02*
X148036D01*
X190900Y85800D02*
Y94200D01*
X169000D02*
X190900D01*
X169000Y85800D02*
X190900D01*
X169000D02*
Y94200D01*
X171500Y101200D02*
X188500D01*
X171500Y108800D02*
X188500D01*
Y101200D02*
Y108800D01*
X171500Y101200D02*
Y108800D01*
X91500Y111200D02*
Y118800D01*
X108500Y111200D02*
Y118800D01*
X91500D02*
X108500D01*
X91500Y111200D02*
X108500D01*
X91500Y121200D02*
Y128800D01*
X108500Y121200D02*
Y128800D01*
X91500D02*
X108500D01*
X91500Y121200D02*
X108500D01*
X171500Y191200D02*
Y198800D01*
X188500Y191200D02*
Y198800D01*
X171500D02*
X188500D01*
X171500Y191200D02*
X188500D01*
X171500Y181200D02*
Y188800D01*
X188500Y181200D02*
Y188800D01*
X171500D02*
X188500D01*
X171500Y181200D02*
X188500D01*
X166102Y156476D02*
Y161594D01*
X162756Y156476D02*
X166102D01*
X153898D02*
Y161594D01*
Y156476D02*
X157244D01*
X146102D02*
Y161594D01*
X142756Y156476D02*
X146102D01*
X133898D02*
Y161594D01*
Y156476D02*
X137244D01*
X171500Y211200D02*
Y218800D01*
X188500Y211200D02*
Y218800D01*
X171500D02*
X188500D01*
X171500Y211200D02*
X188500D01*
X171500Y201200D02*
Y208800D01*
X188500Y201200D02*
Y208800D01*
X171500D02*
X188500D01*
X171500Y201200D02*
X188500D01*
X251500Y191200D02*
Y198800D01*
X268500Y191200D02*
Y198800D01*
X251500D02*
X268500D01*
X251500Y191200D02*
X268500D01*
X171500Y171200D02*
Y178800D01*
X188500Y171200D02*
Y178800D01*
X171500D02*
X188500D01*
X171500Y171200D02*
X188500D01*
Y221200D02*
Y228800D01*
X171500Y221200D02*
Y228800D01*
Y221200D02*
X188500D01*
X171500Y228800D02*
X188500D01*
X251500Y211200D02*
Y218800D01*
X268500Y211200D02*
Y218800D01*
X251500D02*
X268500D01*
X251500Y211200D02*
X268500D01*
X251500Y201200D02*
Y208800D01*
X268500Y201200D02*
Y208800D01*
X251500D02*
X268500D01*
X251500Y201200D02*
X268500D01*
X196200Y248500D02*
X203800D01*
X196200Y231500D02*
X203800D01*
Y248500D01*
X196200Y231500D02*
Y248500D01*
X236200D02*
X243800D01*
X236200Y231500D02*
X243800D01*
Y248500D01*
X236200Y231500D02*
Y248500D01*
X332716Y100906D02*
X347284D01*
X332716Y89095D02*
X347284D01*
X211500Y86200D02*
X228500D01*
X211500Y93800D02*
X228500D01*
Y86200D02*
Y93800D01*
X211500Y86200D02*
Y93800D01*
X353920Y111260D02*
X373605D01*
X353920Y118740D02*
X373605D01*
X353920Y111260D02*
Y118740D01*
X373605Y111260D02*
Y118740D01*
X91500Y183800D02*
X108500D01*
X91500Y176200D02*
X108500D01*
X91500D02*
Y183800D01*
X108500Y176200D02*
Y183800D01*
X92716Y234095D02*
X107283D01*
X92716Y245905D02*
X107283D01*
X91500Y221200D02*
Y228800D01*
X108500Y221200D02*
Y228800D01*
X91500D02*
X108500D01*
X91500Y221200D02*
X108500D01*
X105500Y189015D02*
Y215393D01*
X94500Y189015D02*
X105500D01*
X94500Y215393D02*
X105500D01*
X94500Y215393D02*
X94500Y215393D01*
X94500Y189015D02*
Y215393D01*
X22716Y245905D02*
X37284D01*
X22716Y234095D02*
X37284D01*
X52716D02*
X67283D01*
X52716Y245905D02*
X67283D01*
X51500Y221200D02*
X68500D01*
X51500Y228800D02*
X68500D01*
Y221200D02*
Y228800D01*
X51500Y221200D02*
Y228800D01*
X16175Y180445D02*
X64275D01*
X16175Y209555D02*
X64275D01*
Y180445D02*
Y209555D01*
X16175Y180445D02*
Y209555D01*
X21500Y221200D02*
X38500D01*
X21500Y228800D02*
X38500D01*
Y221200D02*
Y228800D01*
X21500Y221200D02*
Y228800D01*
X91500Y108800D02*
X108500D01*
X91500Y101200D02*
X108500D01*
X91500D02*
Y108800D01*
X108500Y101200D02*
Y108800D01*
X83268Y155807D02*
Y160679D01*
X89321Y166732D01*
X83268Y139321D02*
X89321Y133268D01*
X83268Y139321D02*
Y144193D01*
X89321Y166732D02*
X116732D01*
Y155807D02*
Y166732D01*
Y133268D02*
Y144193D01*
X89321Y133268D02*
X116732D01*
X75746Y56689D02*
Y64169D01*
X56061Y56689D02*
Y64169D01*
X75746D01*
X56061Y56689D02*
X75746D01*
X285445Y17290D02*
X314555D01*
X285445Y65390D02*
X314555D01*
X285445Y17290D02*
Y65390D01*
X314555Y17290D02*
Y65390D01*
X245445Y17290D02*
X274555D01*
X245445Y65390D02*
X274555D01*
X245445Y17290D02*
Y65390D01*
X274555Y17290D02*
Y65390D01*
X125445Y17290D02*
X154555D01*
X125445Y65390D02*
X154555D01*
X125445Y17290D02*
Y65390D01*
X154555Y17290D02*
Y65390D01*
X85445Y17290D02*
X114555D01*
X85445Y65390D02*
X114555D01*
X85445Y17290D02*
Y65390D01*
X114555Y17290D02*
Y65390D01*
X108500Y91200D02*
Y98800D01*
X91500Y91200D02*
Y98800D01*
Y91200D02*
X108500D01*
X91500Y98800D02*
X108500D01*
Y81200D02*
Y88800D01*
X91500Y81200D02*
Y88800D01*
Y81200D02*
X108500D01*
X91500Y88800D02*
X108500D01*
Y71200D02*
Y78800D01*
X91500Y71200D02*
Y78800D01*
Y71200D02*
X108500D01*
X91500Y78800D02*
X108500D01*
X131500Y71200D02*
Y78800D01*
X148500Y71200D02*
Y78800D01*
X131500D02*
X148500D01*
X131500Y71200D02*
X148500D01*
X49606Y-9173D02*
Y38071D01*
X41969Y-709D02*
Y24488D01*
X40787Y-5630D02*
X41969Y-709D01*
X41306D02*
Y24488D01*
Y-709D02*
X41370Y-894D01*
X41495Y-1292D01*
X41614Y-1723D01*
X41670Y-1951D01*
X48481Y-9173D02*
Y24488D01*
X44606Y-9173D02*
Y7165D01*
X43622Y-9173D02*
Y7165D01*
X35394D02*
X44606D01*
X36378Y-9173D02*
Y7165D01*
X35394Y-9173D02*
Y7165D01*
X31519Y-9173D02*
Y24488D01*
X39213Y-5630D02*
X40787D01*
X38629Y-894D02*
X38694Y-709D01*
X38504Y-1292D02*
X38629Y-894D01*
X38386Y-1723D02*
X38504Y-1292D01*
X38330Y-1951D02*
X38386Y-1723D01*
X38330Y-1951D02*
X38386Y-1723D01*
X38504Y-1292D01*
X38629Y-894D01*
X38694Y-709D01*
X41306D01*
X38032D02*
X39213Y-5630D01*
X38032Y-709D02*
Y24488D01*
X38694Y-709D02*
Y24488D01*
X31519D02*
X48481D01*
X11519D02*
X28481D01*
X18694Y-709D02*
Y24488D01*
X18032Y-709D02*
Y24488D01*
Y-709D02*
X19213Y-5630D01*
X21969Y-709D02*
Y24488D01*
X20787Y-5630D02*
X21969Y-709D01*
X21306D02*
Y24488D01*
X18694Y-709D02*
X21306D01*
X18629Y-894D02*
X18694Y-709D01*
X18505Y-1292D02*
X18629Y-894D01*
X18386Y-1723D02*
X18505Y-1292D01*
X18330Y-1951D02*
X18386Y-1723D01*
X18330Y-1951D02*
X18386Y-1723D01*
X18505Y-1292D01*
X18629Y-894D01*
X18694Y-709D01*
X21306D02*
X21371Y-894D01*
X21496Y-1292D01*
X21614Y-1723D01*
X21670Y-1951D01*
X19213Y-5630D02*
X20787D01*
X28481Y-9173D02*
Y24488D01*
X11519Y-9173D02*
Y24488D01*
X24606Y-9173D02*
Y7165D01*
X15394Y-9173D02*
Y7165D01*
X16378Y-9173D02*
Y7165D01*
X23622Y-9173D02*
Y7165D01*
X15394D02*
X24606D01*
X10394Y-9173D02*
Y38071D01*
X49606D01*
X10394Y-9173D02*
X49606D01*
X268500Y86200D02*
Y93800D01*
X251500Y86200D02*
Y93800D01*
Y86200D02*
X268500D01*
X251500Y93800D02*
X268500D01*
X291500Y71200D02*
Y78800D01*
X308500Y71200D02*
Y78800D01*
X291500D02*
X308500D01*
X291500Y71200D02*
X308500D01*
X47067Y97253D02*
Y102125D01*
X41014Y91200D02*
X47067Y97253D01*
X41014Y124665D02*
X47067Y118611D01*
Y113739D02*
Y118611D01*
X13602Y91200D02*
X41014D01*
X13602D02*
Y102125D01*
Y113739D02*
Y124665D01*
X41014D01*
X47526Y139321D02*
Y144193D01*
X41473Y133268D02*
X47526Y139321D01*
X41473Y166732D02*
X47526Y160679D01*
Y155807D02*
Y160679D01*
X14061Y133268D02*
X41473D01*
X14061D02*
Y144193D01*
Y155807D02*
Y166732D01*
X41473D01*
X329000Y115800D02*
Y124200D01*
Y115800D02*
X350900D01*
X329000Y124200D02*
X350900D01*
Y115800D02*
Y124200D01*
X290158Y101260D02*
Y108740D01*
X309842Y101260D02*
Y108740D01*
X290158Y101260D02*
X309842D01*
X290158Y108740D02*
X309842D01*
X331500Y136200D02*
Y143800D01*
X348500Y136200D02*
Y143800D01*
X331500D02*
X348500D01*
X331500Y136200D02*
X348500D01*
X212717Y80749D02*
X227284D01*
X212717Y68938D02*
X227284D01*
X268500Y71200D02*
Y78800D01*
X251500Y71200D02*
Y78800D01*
Y71200D02*
X268500D01*
X251500Y78800D02*
X268500D01*
Y96200D02*
Y103800D01*
X251500Y96200D02*
Y103800D01*
Y96200D02*
X268500D01*
X251500Y103800D02*
X268500D01*
Y156200D02*
Y163800D01*
X251500Y156200D02*
Y163800D01*
Y156200D02*
X268500D01*
X251500Y163800D02*
X268500D01*
X251500Y146200D02*
Y153800D01*
X268500Y146200D02*
Y153800D01*
X251500D02*
X268500D01*
X251500Y146200D02*
X268500D01*
D15*
X219815Y46924D02*
Y56373D01*
X179658Y46924D02*
Y56373D01*
X219815D01*
X179693Y16297D02*
Y25746D01*
X219851Y16297D02*
Y25746D01*
X179693Y16297D02*
X219851D01*
X370216Y76049D02*
Y85497D01*
X330059Y76049D02*
Y85497D01*
X370216D01*
X330095Y45421D02*
Y54870D01*
X370252Y45421D02*
Y54870D01*
X330095Y45421D02*
X370252D01*
X314127Y176300D02*
Y180798D01*
X315626Y179299D01*
X317126Y180798D01*
Y176300D01*
X318625D02*
Y180798D01*
X320875D01*
X321624Y180048D01*
Y178549D01*
X320875Y177799D01*
X318625D01*
X323124Y176300D02*
Y180798D01*
X325373D01*
X326123Y180048D01*
Y178549D01*
X325373Y177799D01*
X323124D01*
X327623Y180798D02*
X330622D01*
X329122D01*
Y176300D01*
X336620D02*
X338119D01*
X337369D01*
Y180798D01*
X336620Y180048D01*
X340368D02*
X341118Y180798D01*
X342618D01*
X343367Y180048D01*
Y177049D01*
X342618Y176300D01*
X341118D01*
X340368Y177049D01*
Y180048D01*
X344867Y180798D02*
Y176300D01*
X346367Y177799D01*
X347866Y176300D01*
Y180798D01*
X356863Y180048D02*
X356113Y180798D01*
X354614D01*
X353864Y180048D01*
Y177049D01*
X354614Y176300D01*
X356113D01*
X356863Y177049D01*
Y178549D01*
X355364D01*
X358363Y179299D02*
Y176300D01*
Y177799D01*
X359112Y178549D01*
X359862Y179299D01*
X360612D01*
X362861D02*
Y177049D01*
X363611Y176300D01*
X365860D01*
Y179299D01*
X367360Y174800D02*
Y179299D01*
X369609D01*
X370359Y178549D01*
Y177049D01*
X369609Y176300D01*
X367360D01*
X372608D02*
X374108D01*
X374857Y177049D01*
Y178549D01*
X374108Y179299D01*
X372608D01*
X371858Y178549D01*
Y177049D01*
X372608Y176300D01*
X383854D02*
X380855D01*
X383854Y179299D01*
Y180048D01*
X383105Y180798D01*
X381605D01*
X380855Y180048D01*
X316001Y188299D02*
X313002D01*
Y183800D01*
X316001D01*
X313002Y186049D02*
X314502D01*
X317501Y183800D02*
X319000D01*
X318250D01*
Y188299D01*
X317501D01*
X323499Y183800D02*
X321999D01*
X321250Y184550D01*
Y186049D01*
X321999Y186799D01*
X323499D01*
X324249Y186049D01*
Y185300D01*
X321250D01*
X328747Y186799D02*
X326498D01*
X325748Y186049D01*
Y184550D01*
X326498Y183800D01*
X328747D01*
X330247D02*
Y184550D01*
X330996D01*
Y183800D01*
X330247D01*
X341493Y188299D02*
Y183800D01*
X339244D01*
X338494Y184550D01*
Y186049D01*
X339244Y186799D01*
X341493D01*
X345242Y183800D02*
X343742D01*
X342993Y184550D01*
Y186049D01*
X343742Y186799D01*
X345242D01*
X345992Y186049D01*
Y185300D01*
X342993D01*
X351990Y183800D02*
Y188299D01*
X354239D01*
X354989Y187549D01*
Y186049D01*
X354239Y185300D01*
X351990D01*
X357238Y183800D02*
X358737D01*
X359487Y184550D01*
Y186049D01*
X358737Y186799D01*
X357238D01*
X356488Y186049D01*
Y184550D01*
X357238Y183800D01*
X361736Y187549D02*
Y186799D01*
X360987D01*
X362486D01*
X361736D01*
Y184550D01*
X362486Y183800D01*
X366985D02*
X365485D01*
X364736Y184550D01*
Y186049D01*
X365485Y186799D01*
X366985D01*
X367735Y186049D01*
Y185300D01*
X364736D01*
X369234Y183800D02*
Y186799D01*
X371483D01*
X372233Y186049D01*
Y183800D01*
X376732Y186799D02*
X374482D01*
X373733Y186049D01*
Y184550D01*
X374482Y183800D01*
X376732D01*
X378231D02*
X379731D01*
X378981D01*
Y186799D01*
X378231D01*
X382730D02*
X384229D01*
X384979Y186049D01*
Y183800D01*
X382730D01*
X381980Y184550D01*
X382730Y185300D01*
X384979D01*
X216668Y253499D02*
Y252666D01*
X218334Y251000D01*
X220000Y252666D01*
Y253499D01*
X218334Y251000D02*
Y248501D01*
X221666D02*
X223332D01*
X222499D01*
Y253499D01*
X221666Y252666D01*
X157072Y253666D02*
X157905Y254499D01*
X159571D01*
X160404Y253666D01*
Y252833D01*
X159571Y252000D01*
X158738D01*
X159571D01*
X160404Y251167D01*
Y250334D01*
X159571Y249501D01*
X157905D01*
X157072Y250334D01*
X162070Y254499D02*
Y251167D01*
X163736Y249501D01*
X165402Y251167D01*
Y254499D01*
X167068Y253666D02*
X167901Y254499D01*
X169568D01*
X170401Y253666D01*
Y252833D01*
X169568Y252000D01*
X168735D01*
X169568D01*
X170401Y251167D01*
Y250334D01*
X169568Y249501D01*
X167901D01*
X167068Y250334D01*
X119167Y193499D02*
X115835D01*
Y191000D01*
X117501Y191833D01*
X118334D01*
X119167Y191000D01*
Y189334D01*
X118334Y188501D01*
X116668D01*
X115835Y189334D01*
X120833Y193499D02*
Y190167D01*
X122499Y188501D01*
X124165Y190167D01*
Y193499D01*
X150836Y145501D02*
Y150499D01*
X153335D01*
X154169Y149666D01*
Y148000D01*
X153335Y147167D01*
X150836D01*
X155835Y150499D02*
Y145501D01*
X157501Y147167D01*
X159167Y145501D01*
Y150499D01*
X160833Y145501D02*
Y150499D01*
X162499Y148833D01*
X164165Y150499D01*
Y145501D01*
X169164D02*
X165831D01*
X169164Y148833D01*
Y149666D01*
X168331Y150499D01*
X166665D01*
X165831Y149666D01*
X131669Y145501D02*
Y150499D01*
X134169D01*
X135002Y149666D01*
Y148000D01*
X134169Y147167D01*
X131669D01*
X136668Y150499D02*
Y145501D01*
X138334Y147167D01*
X140000Y145501D01*
Y150499D01*
X141666Y145501D02*
Y150499D01*
X143332Y148833D01*
X144998Y150499D01*
Y145501D01*
X146665D02*
X148331D01*
X147498D01*
Y150499D01*
X146665Y149666D01*
X355253Y156499D02*
X356919D01*
X356086D01*
Y151501D01*
X355253D01*
X356919D01*
X361917Y156499D02*
X360251D01*
X359418Y155666D01*
Y152334D01*
X360251Y151501D01*
X361917D01*
X362750Y152334D01*
Y155666D01*
X361917Y156499D01*
X364417D02*
Y152334D01*
X365250Y151501D01*
X366916D01*
X367749Y152334D01*
Y156499D01*
X369415D02*
X372747D01*
X371081D01*
Y151501D01*
X211253Y123796D02*
Y120464D01*
X212919Y118798D01*
X214585Y120464D01*
Y123796D01*
X216251D02*
X217917D01*
X217084D01*
Y118798D01*
X216251D01*
X217917D01*
X220416D02*
Y123796D01*
X223749Y118798D01*
Y123796D01*
X225415D02*
X228747D01*
X227081D01*
Y118798D01*
X330836Y156499D02*
Y153167D01*
X332502Y151501D01*
X334169Y153167D01*
Y156499D01*
X338334D02*
X336668D01*
X335835Y155666D01*
Y152334D01*
X336668Y151501D01*
X338334D01*
X339167Y152334D01*
Y155666D01*
X338334Y156499D01*
X340833D02*
Y152334D01*
X341666Y151501D01*
X343332D01*
X344165Y152334D01*
Y156499D01*
X345831D02*
X349164D01*
X347498D01*
Y151501D01*
X59752Y33184D02*
Y29852D01*
X61418Y28186D01*
X63084Y29852D01*
Y33184D01*
X64750D02*
X66417D01*
X65583D01*
Y28186D01*
X64750D01*
X66417D01*
X68916D02*
Y33184D01*
X72248Y28186D01*
Y33184D01*
X63169Y103499D02*
X64835D01*
X64002D01*
Y98501D01*
X63169D01*
X64835D01*
X67334Y103499D02*
X69000D01*
X68167D01*
Y98501D01*
X67334D01*
X69000D01*
X71499D02*
Y103499D01*
X74831Y98501D01*
Y103499D01*
X84666Y107499D02*
X83000D01*
X83833D01*
Y103334D01*
X83000Y102501D01*
X82167D01*
X81334Y103334D01*
X89665Y102501D02*
X86332D01*
X89665Y105833D01*
Y106666D01*
X88831Y107499D01*
X87165D01*
X86332Y106666D01*
X206000Y92499D02*
X204334D01*
X205167D01*
Y88334D01*
X204334Y87501D01*
X203501D01*
X202668Y88334D01*
X207666Y87501D02*
X209332D01*
X208499D01*
Y92499D01*
X207666Y91666D01*
X32835Y57499D02*
Y52501D01*
X35334D01*
X36167Y53334D01*
Y56666D01*
X35334Y57499D01*
X32835D01*
X41165D02*
X37833D01*
Y55000D01*
X39499Y55833D01*
X40332D01*
X41165Y55000D01*
Y53334D01*
X40332Y52501D01*
X38666D01*
X37833Y53334D01*
X107835Y216499D02*
Y212334D01*
X108668Y211501D01*
X110334D01*
X111167Y212334D01*
Y216499D01*
X112833D02*
X116165D01*
Y215666D01*
X112833Y212334D01*
Y211501D01*
X66628Y197499D02*
Y193334D01*
X67461Y192501D01*
X69127D01*
X69960Y193334D01*
Y197499D01*
X74959D02*
X73293Y196666D01*
X71627Y195000D01*
Y193334D01*
X72460Y192501D01*
X74126D01*
X74959Y193334D01*
Y194167D01*
X74126Y195000D01*
X71627D01*
X215835Y220499D02*
Y216334D01*
X216668Y215501D01*
X218334D01*
X219167Y216334D01*
Y220499D01*
X224165D02*
X220833D01*
Y218000D01*
X222499Y218833D01*
X223332D01*
X224165Y218000D01*
Y216334D01*
X223332Y215501D01*
X221666D01*
X220833Y216334D01*
X375835Y117499D02*
Y113334D01*
X376668Y112501D01*
X378334D01*
X379167Y113334D01*
Y117499D01*
X383332Y112501D02*
Y117499D01*
X380833Y115000D01*
X384165D01*
X119835Y107499D02*
Y103334D01*
X120668Y102501D01*
X122334D01*
X123167Y103334D01*
Y107499D01*
X124833Y106666D02*
X125666Y107499D01*
X127332D01*
X128165Y106666D01*
Y105833D01*
X127332Y105000D01*
X126499D01*
X127332D01*
X128165Y104167D01*
Y103334D01*
X127332Y102501D01*
X125666D01*
X124833Y103334D01*
X311835Y107499D02*
Y103334D01*
X312668Y102501D01*
X314334D01*
X315167Y103334D01*
Y107499D01*
X320165Y102501D02*
X316833D01*
X320165Y105833D01*
Y106666D01*
X319332Y107499D01*
X317666D01*
X316833Y106666D01*
X62668Y80499D02*
Y76334D01*
X63501Y75501D01*
X65167D01*
X66000Y76334D01*
Y80499D01*
X67666Y75501D02*
X69332D01*
X68499D01*
Y80499D01*
X67666Y79666D01*
X168575Y162539D02*
X171907D01*
X170241D01*
Y157540D01*
X176906D02*
X173573D01*
X176906Y160872D01*
Y161706D01*
X176072Y162539D01*
X174406D01*
X173573Y161706D01*
X124668Y162499D02*
X128000D01*
X126334D01*
Y157501D01*
X129666D02*
X131332D01*
X130499D01*
Y162499D01*
X129666Y161666D01*
X76336Y122501D02*
Y127499D01*
X78835D01*
X79668Y126666D01*
Y125000D01*
X78835Y124167D01*
X76336D01*
X78002D02*
X79668Y122501D01*
X84666D02*
X81334D01*
X84666Y125833D01*
Y126666D01*
X83833Y127499D01*
X82167D01*
X81334Y126666D01*
X89665Y127499D02*
X86332D01*
Y125000D01*
X87998Y125833D01*
X88831D01*
X89665Y125000D01*
Y123334D01*
X88831Y122501D01*
X87165D01*
X86332Y123334D01*
X76336Y112501D02*
Y117499D01*
X78835D01*
X79668Y116666D01*
Y115000D01*
X78835Y114167D01*
X76336D01*
X78002D02*
X79668Y112501D01*
X84666D02*
X81334D01*
X84666Y115833D01*
Y116666D01*
X83833Y117499D01*
X82167D01*
X81334Y116666D01*
X88831Y112501D02*
Y117499D01*
X86332Y115000D01*
X89665D01*
X156335Y202501D02*
Y207499D01*
X158835D01*
X159668Y206666D01*
Y205000D01*
X158835Y204167D01*
X156335D01*
X158002D02*
X159668Y202501D01*
X164666D02*
X161334D01*
X164666Y205833D01*
Y206666D01*
X163833Y207499D01*
X162167D01*
X161334Y206666D01*
X166332D02*
X167165Y207499D01*
X168831D01*
X169665Y206666D01*
Y205833D01*
X168831Y205000D01*
X167998D01*
X168831D01*
X169665Y204167D01*
Y203334D01*
X168831Y202501D01*
X167165D01*
X166332Y203334D01*
X156335Y212501D02*
Y217499D01*
X158835D01*
X159668Y216666D01*
Y215000D01*
X158835Y214167D01*
X156335D01*
X158002D02*
X159668Y212501D01*
X164666D02*
X161334D01*
X164666Y215833D01*
Y216666D01*
X163833Y217499D01*
X162167D01*
X161334Y216666D01*
X169665Y212501D02*
X166332D01*
X169665Y215833D01*
Y216666D01*
X168831Y217499D01*
X167165D01*
X166332Y216666D01*
X158002Y182501D02*
Y187499D01*
X160501D01*
X161334Y186666D01*
Y185000D01*
X160501Y184167D01*
X158002D01*
X159668D02*
X161334Y182501D01*
X166332D02*
X163000D01*
X166332Y185833D01*
Y186666D01*
X165499Y187499D01*
X163833D01*
X163000Y186666D01*
X167998Y182501D02*
X169665D01*
X168831D01*
Y187499D01*
X167998Y186666D01*
X156335Y192501D02*
Y197499D01*
X158835D01*
X159668Y196666D01*
Y195000D01*
X158835Y194167D01*
X156335D01*
X158002D02*
X159668Y192501D01*
X164666D02*
X161334D01*
X164666Y195833D01*
Y196666D01*
X163833Y197499D01*
X162167D01*
X161334Y196666D01*
X166332D02*
X167165Y197499D01*
X168831D01*
X169665Y196666D01*
Y193334D01*
X168831Y192501D01*
X167165D01*
X166332Y193334D01*
Y196666D01*
X157169Y172501D02*
Y177499D01*
X159668D01*
X160501Y176666D01*
Y175000D01*
X159668Y174167D01*
X157169D01*
X158835D02*
X160501Y172501D01*
X162167D02*
X163833D01*
X163000D01*
Y177499D01*
X162167Y176666D01*
X166332Y173334D02*
X167165Y172501D01*
X168831D01*
X169665Y173334D01*
Y176666D01*
X168831Y177499D01*
X167165D01*
X166332Y176666D01*
Y175833D01*
X167165Y175000D01*
X169665D01*
X269835Y192501D02*
Y197499D01*
X272334D01*
X273167Y196666D01*
Y195000D01*
X272334Y194167D01*
X269835D01*
X271501D02*
X273167Y192501D01*
X274833D02*
X276499D01*
X275666D01*
Y197499D01*
X274833Y196666D01*
X278998D02*
X279831Y197499D01*
X281498D01*
X282331Y196666D01*
Y195833D01*
X281498Y195000D01*
X282331Y194167D01*
Y193334D01*
X281498Y192501D01*
X279831D01*
X278998Y193334D01*
Y194167D01*
X279831Y195000D01*
X278998Y195833D01*
Y196666D01*
X279831Y195000D02*
X281498D01*
X269835Y232501D02*
Y237499D01*
X272334D01*
X273167Y236666D01*
Y235000D01*
X272334Y234167D01*
X269835D01*
X271501D02*
X273167Y232501D01*
X274833D02*
X276499D01*
X275666D01*
Y237499D01*
X274833Y236666D01*
X278998Y237499D02*
X282331D01*
Y236666D01*
X278998Y233334D01*
Y232501D01*
X310018Y162575D02*
Y167574D01*
X312517D01*
X313350Y166741D01*
Y165075D01*
X312517Y164242D01*
X310018D01*
X311684D02*
X313350Y162575D01*
X315016D02*
X316682D01*
X315849D01*
Y167574D01*
X315016Y166741D01*
X322514Y167574D02*
X320848Y166741D01*
X319181Y165075D01*
Y163409D01*
X320015Y162575D01*
X321681D01*
X322514Y163409D01*
Y164242D01*
X321681Y165075D01*
X319181D01*
X310018Y152575D02*
Y157574D01*
X312517D01*
X313350Y156741D01*
Y155075D01*
X312517Y154242D01*
X310018D01*
X311684D02*
X313350Y152575D01*
X315016D02*
X316682D01*
X315849D01*
Y157574D01*
X315016Y156741D01*
X322514Y157574D02*
X319181D01*
Y155075D01*
X320848Y155908D01*
X321681D01*
X322514Y155075D01*
Y153409D01*
X321681Y152575D01*
X320015D01*
X319181Y153409D01*
X270585Y117501D02*
Y122499D01*
X273084D01*
X273917Y121666D01*
Y120000D01*
X273084Y119167D01*
X270585D01*
X272251D02*
X273917Y117501D01*
X275583D02*
X277249D01*
X276416D01*
Y122499D01*
X275583Y121666D01*
X282248Y117501D02*
Y122499D01*
X279748Y120000D01*
X283081D01*
X270585Y107501D02*
Y112499D01*
X273084D01*
X273917Y111666D01*
Y110000D01*
X273084Y109167D01*
X270585D01*
X272251D02*
X273917Y107501D01*
X275583D02*
X277249D01*
X276416D01*
Y112499D01*
X275583Y111666D01*
X279748D02*
X280581Y112499D01*
X282248D01*
X283081Y111666D01*
Y110833D01*
X282248Y110000D01*
X281415D01*
X282248D01*
X283081Y109167D01*
Y108334D01*
X282248Y107501D01*
X280581D01*
X279748Y108334D01*
X196919Y142501D02*
Y147499D01*
X199418D01*
X200251Y146666D01*
Y145000D01*
X199418Y144167D01*
X196919D01*
X198585D02*
X200251Y142501D01*
X201917D02*
X203584D01*
X202750D01*
Y147499D01*
X201917Y146666D01*
X209415Y142501D02*
X206083D01*
X209415Y145833D01*
Y146666D01*
X208582Y147499D01*
X206916D01*
X206083Y146666D01*
X198585Y132501D02*
Y137499D01*
X201084D01*
X201917Y136666D01*
Y135000D01*
X201084Y134167D01*
X198585D01*
X200251D02*
X201917Y132501D01*
X203584D02*
X205250D01*
X204416D01*
Y137499D01*
X203584Y136666D01*
X207749Y132501D02*
X209415D01*
X208582D01*
Y137499D01*
X207749Y136666D01*
X270585Y147501D02*
Y152499D01*
X273084D01*
X273917Y151666D01*
Y150000D01*
X273084Y149167D01*
X270585D01*
X272251D02*
X273917Y147501D01*
X275583D02*
X277249D01*
X276416D01*
Y152499D01*
X275583Y151666D01*
X279748D02*
X280581Y152499D01*
X282248D01*
X283081Y151666D01*
Y148334D01*
X282248Y147501D01*
X280581D01*
X279748Y148334D01*
Y151666D01*
X270585Y137501D02*
Y142499D01*
X273084D01*
X273917Y141666D01*
Y140000D01*
X273084Y139167D01*
X270585D01*
X272251D02*
X273917Y137501D01*
X275583Y138334D02*
X276416Y137501D01*
X278082D01*
X278915Y138334D01*
Y141666D01*
X278082Y142499D01*
X276416D01*
X275583Y141666D01*
Y140833D01*
X276416Y140000D01*
X278915D01*
X128099Y212501D02*
Y217499D01*
X130598D01*
X131431Y216666D01*
Y215000D01*
X130598Y214167D01*
X128099D01*
X129765D02*
X131431Y212501D01*
X133097Y216666D02*
X133930Y217499D01*
X135596D01*
X136429Y216666D01*
Y215833D01*
X135596Y215000D01*
X136429Y214167D01*
Y213334D01*
X135596Y212501D01*
X133930D01*
X133097Y213334D01*
Y214167D01*
X133930Y215000D01*
X133097Y215833D01*
Y216666D01*
X133930Y215000D02*
X135596D01*
X128099Y222501D02*
Y227499D01*
X130598D01*
X131431Y226666D01*
Y225000D01*
X130598Y224167D01*
X128099D01*
X129765D02*
X131431Y222501D01*
X133097Y227499D02*
X136429D01*
Y226666D01*
X133097Y223334D01*
Y222501D01*
X158835Y87501D02*
Y92499D01*
X161334D01*
X162167Y91666D01*
Y90000D01*
X161334Y89167D01*
X158835D01*
X160501D02*
X162167Y87501D01*
X167165Y92499D02*
X165499Y91666D01*
X163833Y90000D01*
Y88334D01*
X164666Y87501D01*
X166332D01*
X167165Y88334D01*
Y89167D01*
X166332Y90000D01*
X163833D01*
X318835Y117501D02*
Y122499D01*
X321334D01*
X322167Y121666D01*
Y120000D01*
X321334Y119167D01*
X318835D01*
X320501D02*
X322167Y117501D01*
X327165Y122499D02*
X323833D01*
Y120000D01*
X325499Y120833D01*
X326332D01*
X327165Y120000D01*
Y118334D01*
X326332Y117501D01*
X324666D01*
X323833Y118334D01*
X119835Y72501D02*
Y77499D01*
X122334D01*
X123167Y76666D01*
Y75000D01*
X122334Y74167D01*
X119835D01*
X121501D02*
X123167Y72501D01*
X127332D02*
Y77499D01*
X124833Y75000D01*
X128165D01*
X81334Y82501D02*
Y87499D01*
X83833D01*
X84666Y86666D01*
Y85000D01*
X83833Y84167D01*
X81334D01*
X83000D02*
X84666Y82501D01*
X86332Y86666D02*
X87165Y87499D01*
X88831D01*
X89665Y86666D01*
Y85833D01*
X88831Y85000D01*
X87998D01*
X88831D01*
X89665Y84167D01*
Y83334D01*
X88831Y82501D01*
X87165D01*
X86332Y83334D01*
X309835Y72501D02*
Y77499D01*
X312334D01*
X313167Y76666D01*
Y75000D01*
X312334Y74167D01*
X309835D01*
X311501D02*
X313167Y72501D01*
X318165D02*
X314833D01*
X318165Y75833D01*
Y76666D01*
X317332Y77499D01*
X315666D01*
X314833Y76666D01*
X270585Y87501D02*
Y92499D01*
X273084D01*
X273917Y91666D01*
Y90000D01*
X273084Y89167D01*
X270585D01*
X272251D02*
X273917Y87501D01*
X275583D02*
X277249D01*
X276416D01*
Y92499D01*
X275583Y91666D01*
X162167Y38334D02*
Y41666D01*
X161334Y42499D01*
X159668D01*
X158835Y41666D01*
Y38334D01*
X159668Y37501D01*
X161334D01*
X160501Y39167D02*
X162167Y37501D01*
X161334D02*
X162167Y38334D01*
X166332Y37501D02*
Y42499D01*
X163833Y40000D01*
X167165D01*
X76167Y38334D02*
Y41666D01*
X75334Y42499D01*
X73668D01*
X72835Y41666D01*
Y38334D01*
X73668Y37501D01*
X75334D01*
X74501Y39167D02*
X76167Y37501D01*
X75334D02*
X76167Y38334D01*
X77833Y41666D02*
X78666Y42499D01*
X80332D01*
X81165Y41666D01*
Y40833D01*
X80332Y40000D01*
X79499D01*
X80332D01*
X81165Y39167D01*
Y38334D01*
X80332Y37501D01*
X78666D01*
X77833Y38334D01*
X322167D02*
Y41666D01*
X321334Y42499D01*
X319668D01*
X318835Y41666D01*
Y38334D01*
X319668Y37501D01*
X321334D01*
X320501Y39167D02*
X322167Y37501D01*
X321334D02*
X322167Y38334D01*
X327165Y37501D02*
X323833D01*
X327165Y40833D01*
Y41666D01*
X326332Y42499D01*
X324666D01*
X323833Y41666D01*
X238000Y38334D02*
Y41666D01*
X237167Y42499D01*
X235501D01*
X234668Y41666D01*
Y38334D01*
X235501Y37501D01*
X237167D01*
X236334Y39167D02*
X238000Y37501D01*
X237167D02*
X238000Y38334D01*
X239666Y37501D02*
X241332D01*
X240499D01*
Y42499D01*
X239666Y41666D01*
X196100Y63197D02*
Y58198D01*
X199433D01*
X204431D02*
X201099D01*
X204431Y61531D01*
Y62364D01*
X203598Y63197D01*
X201932D01*
X201099Y62364D01*
X321696Y85276D02*
Y80277D01*
X325029D01*
X326695D02*
X328361D01*
X327528D01*
Y85276D01*
X326695Y84443D01*
X130099Y187499D02*
Y182501D01*
X132598D01*
X133431Y183334D01*
Y186666D01*
X132598Y187499D01*
X130099D01*
X137596Y182501D02*
Y187499D01*
X135097Y185000D01*
X138429D01*
X130125Y197499D02*
Y192501D01*
X132624D01*
X133457Y193334D01*
Y196666D01*
X132624Y197499D01*
X130125D01*
X135123Y196666D02*
X135956Y197499D01*
X137622D01*
X138456Y196666D01*
Y195833D01*
X137622Y195000D01*
X136790D01*
X137622D01*
X138456Y194167D01*
Y193334D01*
X137622Y192501D01*
X135956D01*
X135123Y193334D01*
X158835Y77499D02*
Y72501D01*
X161334D01*
X162167Y73334D01*
Y76666D01*
X161334Y77499D01*
X158835D01*
X167165Y72501D02*
X163833D01*
X167165Y75833D01*
Y76666D01*
X166332Y77499D01*
X164666D01*
X163833Y76666D01*
X320501Y132548D02*
Y127550D01*
X323000D01*
X323833Y128383D01*
Y131715D01*
X323000Y132548D01*
X320501D01*
X325499Y127550D02*
X327165D01*
X326332D01*
Y132548D01*
X325499Y131715D01*
X351239Y226499D02*
Y222334D01*
X352072Y221501D01*
X353738D01*
X354571Y222334D01*
Y226499D01*
X356238Y221501D02*
Y224833D01*
X357904Y226499D01*
X359570Y224833D01*
Y221501D01*
Y224000D01*
X356238D01*
X361236Y221501D02*
Y226499D01*
X363735D01*
X364568Y225666D01*
Y224000D01*
X363735Y223167D01*
X361236D01*
X362902D02*
X364568Y221501D01*
X366234Y226499D02*
X369566D01*
X367900D01*
Y221501D01*
X296884Y226499D02*
Y221501D01*
X299383D01*
X300216Y222334D01*
Y225666D01*
X299383Y226499D01*
X296884D01*
X305215D02*
X301883D01*
Y221501D01*
X305215D01*
X301883Y224000D02*
X303549D01*
X306881Y226499D02*
Y221501D01*
X309380D01*
X310213Y222334D01*
Y223167D01*
X309380Y224000D01*
X306881D01*
X309380D01*
X310213Y224833D01*
Y225666D01*
X309380Y226499D01*
X306881D01*
X311879D02*
Y222334D01*
X312712Y221501D01*
X314378D01*
X315212Y222334D01*
Y226499D01*
X320210Y225666D02*
X319377Y226499D01*
X317711D01*
X316878Y225666D01*
Y222334D01*
X317711Y221501D01*
X319377D01*
X320210Y222334D01*
Y224000D01*
X318544D01*
X352019Y43907D02*
Y39409D01*
X354268D01*
X355018Y40159D01*
Y40908D01*
X354268Y41658D01*
X352019D01*
X354268D01*
X355018Y42408D01*
Y43158D01*
X354268Y43907D01*
X352019D01*
X356517Y39409D02*
Y42408D01*
X358017Y43907D01*
X359516Y42408D01*
Y39409D01*
Y41658D01*
X356517D01*
X361016Y43907D02*
X364015D01*
X362515D01*
Y39409D01*
X368513Y43907D02*
X365514D01*
Y39409D01*
X368513D01*
X365514Y41658D02*
X367014D01*
X370013Y39409D02*
Y43907D01*
X372262D01*
X373012Y43158D01*
Y41658D01*
X372262Y40908D01*
X370013D01*
X371513D02*
X373012Y39409D01*
X374512Y43907D02*
X376011D01*
X375261D01*
Y39409D01*
X374512D01*
X376011D01*
X378260D02*
Y42408D01*
X379760Y43907D01*
X381259Y42408D01*
Y39409D01*
Y41658D01*
X378260D01*
X18337Y40501D02*
Y45499D01*
X20836D01*
X21669Y44666D01*
Y43000D01*
X20836Y42167D01*
X18337D01*
X23336Y40501D02*
Y43833D01*
X25002Y45499D01*
X26668Y43833D01*
Y40501D01*
Y43000D01*
X23336D01*
X28334Y40501D02*
Y45499D01*
X31666Y40501D01*
Y45499D01*
X36665D02*
X33332D01*
Y40501D01*
X36665D01*
X33332Y43000D02*
X34998D01*
X38331Y45499D02*
Y40501D01*
X41663D01*
X79835Y241666D02*
X79002Y242499D01*
X77336D01*
X76502Y241666D01*
Y238334D01*
X77336Y237501D01*
X79002D01*
X79835Y238334D01*
X81501Y241666D02*
X82334Y242499D01*
X84000D01*
X84833Y241666D01*
Y240833D01*
X84000Y240000D01*
X83167D01*
X84000D01*
X84833Y239167D01*
Y238334D01*
X84000Y237501D01*
X82334D01*
X81501Y238334D01*
X89831Y237501D02*
X86499D01*
X89831Y240833D01*
Y241666D01*
X88998Y242499D01*
X87332D01*
X86499Y241666D01*
X81501Y226666D02*
X80668Y227499D01*
X79002D01*
X78169Y226666D01*
Y223334D01*
X79002Y222501D01*
X80668D01*
X81501Y223334D01*
X83167Y226666D02*
X84000Y227499D01*
X85666D01*
X86499Y226666D01*
Y225833D01*
X85666Y225000D01*
X84833D01*
X85666D01*
X86499Y224167D01*
Y223334D01*
X85666Y222501D01*
X84000D01*
X83167Y223334D01*
X88165Y222501D02*
X89831D01*
X88998D01*
Y227499D01*
X88165Y226666D01*
X56668Y218666D02*
X55835Y219499D01*
X54169D01*
X53335Y218666D01*
Y215334D01*
X54169Y214501D01*
X55835D01*
X56668Y215334D01*
X58334Y218666D02*
X59167Y219499D01*
X60833D01*
X61666Y218666D01*
Y217833D01*
X60833Y217000D01*
X60000D01*
X60833D01*
X61666Y216167D01*
Y215334D01*
X60833Y214501D01*
X59167D01*
X58334Y215334D01*
X63332Y218666D02*
X64165Y219499D01*
X65831D01*
X66664Y218666D01*
Y215334D01*
X65831Y214501D01*
X64165D01*
X63332Y215334D01*
Y218666D01*
X56668Y252666D02*
X55835Y253499D01*
X54169D01*
X53335Y252666D01*
Y249334D01*
X54169Y248501D01*
X55835D01*
X56668Y249334D01*
X61666Y248501D02*
X58334D01*
X61666Y251833D01*
Y252666D01*
X60833Y253499D01*
X59167D01*
X58334Y252666D01*
X63332Y249334D02*
X64165Y248501D01*
X65831D01*
X66664Y249334D01*
Y252666D01*
X65831Y253499D01*
X64165D01*
X63332Y252666D01*
Y251833D01*
X64165Y251000D01*
X66664D01*
X26668Y252666D02*
X25835Y253499D01*
X24169D01*
X23336Y252666D01*
Y249334D01*
X24169Y248501D01*
X25835D01*
X26668Y249334D01*
X31666Y248501D02*
X28334D01*
X31666Y251833D01*
Y252666D01*
X30833Y253499D01*
X29167D01*
X28334Y252666D01*
X33332D02*
X34165Y253499D01*
X35831D01*
X36665Y252666D01*
Y251833D01*
X35831Y251000D01*
X36665Y250167D01*
Y249334D01*
X35831Y248501D01*
X34165D01*
X33332Y249334D01*
Y250167D01*
X34165Y251000D01*
X33332Y251833D01*
Y252666D01*
X34165Y251000D02*
X35831D01*
X26668Y218666D02*
X25835Y219499D01*
X24169D01*
X23336Y218666D01*
Y215334D01*
X24169Y214501D01*
X25835D01*
X26668Y215334D01*
X31666Y214501D02*
X28334D01*
X31666Y217833D01*
Y218666D01*
X30833Y219499D01*
X29167D01*
X28334Y218666D01*
X33332Y219499D02*
X36665D01*
Y218666D01*
X33332Y215334D01*
Y214501D01*
X79835Y181666D02*
X79002Y182499D01*
X77336D01*
X76502Y181666D01*
Y178334D01*
X77336Y177501D01*
X79002D01*
X79835Y178334D01*
X84833Y177501D02*
X81501D01*
X84833Y180833D01*
Y181666D01*
X84000Y182499D01*
X82334D01*
X81501Y181666D01*
X89831Y182499D02*
X88165Y181666D01*
X86499Y180000D01*
Y178334D01*
X87332Y177501D01*
X88998D01*
X89831Y178334D01*
Y179167D01*
X88998Y180000D01*
X86499D01*
X96668Y172666D02*
X95835Y173499D01*
X94169D01*
X93335Y172666D01*
Y169334D01*
X94169Y168501D01*
X95835D01*
X96668Y169334D01*
X101666Y168501D02*
X98334D01*
X101666Y171833D01*
Y172666D01*
X100833Y173499D01*
X99167D01*
X98334Y172666D01*
X106665Y173499D02*
X103332D01*
Y171000D01*
X104998Y171833D01*
X105831D01*
X106665Y171000D01*
Y169334D01*
X105831Y168501D01*
X104165D01*
X103332Y169334D01*
X273167Y176666D02*
X272334Y177499D01*
X270668D01*
X269835Y176666D01*
Y173334D01*
X270668Y172501D01*
X272334D01*
X273167Y173334D01*
X278165Y172501D02*
X274833D01*
X278165Y175833D01*
Y176666D01*
X277332Y177499D01*
X275666D01*
X274833Y176666D01*
X282331Y172501D02*
Y177499D01*
X279831Y175000D01*
X283164D01*
X273167Y206666D02*
X272334Y207499D01*
X270668D01*
X269835Y206666D01*
Y203334D01*
X270668Y202501D01*
X272334D01*
X273167Y203334D01*
X278165Y202501D02*
X274833D01*
X278165Y205833D01*
Y206666D01*
X277332Y207499D01*
X275666D01*
X274833Y206666D01*
X279831D02*
X280664Y207499D01*
X282331D01*
X283164Y206666D01*
Y205833D01*
X282331Y205000D01*
X281498D01*
X282331D01*
X283164Y204167D01*
Y203334D01*
X282331Y202501D01*
X280664D01*
X279831Y203334D01*
X273167Y216666D02*
X272334Y217499D01*
X270668D01*
X269835Y216666D01*
Y213334D01*
X270668Y212501D01*
X272334D01*
X273167Y213334D01*
X278165Y212501D02*
X274833D01*
X278165Y215833D01*
Y216666D01*
X277332Y217499D01*
X275666D01*
X274833Y216666D01*
X283164Y212501D02*
X279831D01*
X283164Y215833D01*
Y216666D01*
X282331Y217499D01*
X280664D01*
X279831Y216666D01*
X186501Y246666D02*
X185668Y247499D01*
X184002D01*
X183169Y246666D01*
Y243334D01*
X184002Y242501D01*
X185668D01*
X186501Y243334D01*
X191499Y242501D02*
X188167D01*
X191499Y245833D01*
Y246666D01*
X190666Y247499D01*
X189000D01*
X188167Y246666D01*
X193165Y242501D02*
X194831D01*
X193998D01*
Y247499D01*
X193165Y246666D01*
X248668D02*
X247835Y247499D01*
X246169D01*
X245336Y246666D01*
Y243334D01*
X246169Y242501D01*
X247835D01*
X248668Y243334D01*
X253666Y242501D02*
X250334D01*
X253666Y245833D01*
Y246666D01*
X252833Y247499D01*
X251167D01*
X250334Y246666D01*
X255332D02*
X256165Y247499D01*
X257831D01*
X258664Y246666D01*
Y243334D01*
X257831Y242501D01*
X256165D01*
X255332Y243334D01*
Y246666D01*
X160501Y226666D02*
X159668Y227499D01*
X158002D01*
X157169Y226666D01*
Y223334D01*
X158002Y222501D01*
X159668D01*
X160501Y223334D01*
X162167Y222501D02*
X163833D01*
X163000D01*
Y227499D01*
X162167Y226666D01*
X166332Y223334D02*
X167165Y222501D01*
X168831D01*
X169665Y223334D01*
Y226666D01*
X168831Y227499D01*
X167165D01*
X166332Y226666D01*
Y225833D01*
X167165Y225000D01*
X169665D01*
X273167Y226047D02*
X272334Y226880D01*
X270668D01*
X269835Y226047D01*
Y222715D01*
X270668Y221882D01*
X272334D01*
X273167Y222715D01*
X274833Y221882D02*
X276499D01*
X275666D01*
Y226880D01*
X274833Y226047D01*
X278998D02*
X279831Y226880D01*
X281498D01*
X282331Y226047D01*
Y225214D01*
X281498Y224381D01*
X282331Y223548D01*
Y222715D01*
X281498Y221882D01*
X279831D01*
X278998Y222715D01*
Y223548D01*
X279831Y224381D01*
X278998Y225214D01*
Y226047D01*
X279831Y224381D02*
X281498D01*
X297084Y184666D02*
X296251Y185499D01*
X294585D01*
X293752Y184666D01*
Y181334D01*
X294585Y180501D01*
X296251D01*
X297084Y181334D01*
X298750Y180501D02*
X300416D01*
X299584D01*
Y185499D01*
X298750Y184666D01*
X302916Y185499D02*
X306248D01*
Y184666D01*
X302916Y181334D01*
Y180501D01*
X273917Y131666D02*
X273084Y132499D01*
X271418D01*
X270585Y131666D01*
Y128334D01*
X271418Y127501D01*
X273084D01*
X273917Y128334D01*
X275583Y127501D02*
X277249D01*
X276416D01*
Y132499D01*
X275583Y131666D01*
X283081Y132499D02*
X281415Y131666D01*
X279748Y130000D01*
Y128334D01*
X280581Y127501D01*
X282248D01*
X283081Y128334D01*
Y129167D01*
X282248Y130000D01*
X279748D01*
X200251Y156666D02*
X199418Y157499D01*
X197752D01*
X196919Y156666D01*
Y153334D01*
X197752Y152501D01*
X199418D01*
X200251Y153334D01*
X201917Y152501D02*
X203584D01*
X202750D01*
Y157499D01*
X201917Y156666D01*
X209415Y157499D02*
X206083D01*
Y155000D01*
X207749Y155833D01*
X208582D01*
X209415Y155000D01*
Y153334D01*
X208582Y152501D01*
X206916D01*
X206083Y153334D01*
X27626Y130598D02*
X26792Y131431D01*
X25126D01*
X24293Y130598D01*
Y127266D01*
X25126Y126433D01*
X26792D01*
X27626Y127266D01*
X29292Y126433D02*
X30958D01*
X30125D01*
Y131431D01*
X29292Y130598D01*
X35956Y126433D02*
Y131431D01*
X33457Y128932D01*
X36789D01*
X273917Y161666D02*
X273084Y162499D01*
X271418D01*
X270585Y161666D01*
Y158334D01*
X271418Y157501D01*
X273084D01*
X273917Y158334D01*
X275583Y157501D02*
X277249D01*
X276416D01*
Y162499D01*
X275583Y161666D01*
X279748D02*
X280581Y162499D01*
X282248D01*
X283081Y161666D01*
Y160833D01*
X282248Y160000D01*
X281415D01*
X282248D01*
X283081Y159167D01*
Y158334D01*
X282248Y157501D01*
X280581D01*
X279748Y158334D01*
X127266Y206666D02*
X126433Y207499D01*
X124766D01*
X123933Y206666D01*
Y203334D01*
X124766Y202501D01*
X126433D01*
X127266Y203334D01*
X128932Y202501D02*
X130598D01*
X129765D01*
Y207499D01*
X128932Y206666D01*
X136429Y202501D02*
X133097D01*
X136429Y205833D01*
Y206666D01*
X135596Y207499D01*
X133930D01*
X133097Y206666D01*
X27917Y172666D02*
X27084Y173499D01*
X25418D01*
X24585Y172666D01*
Y169334D01*
X25418Y168501D01*
X27084D01*
X27917Y169334D01*
X29583Y168501D02*
X31250D01*
X30417D01*
Y173499D01*
X29583Y172666D01*
X33749Y168501D02*
X35415D01*
X34582D01*
Y173499D01*
X33749Y172666D01*
X200169Y76666D02*
X199336Y77499D01*
X197669D01*
X196836Y76666D01*
Y73334D01*
X197669Y72501D01*
X199336D01*
X200169Y73334D01*
X201835Y72501D02*
X203501D01*
X202668D01*
Y77499D01*
X201835Y76666D01*
X206000D02*
X206833Y77499D01*
X208499D01*
X209332Y76666D01*
Y73334D01*
X208499Y72501D01*
X206833D01*
X206000Y73334D01*
Y76666D01*
X377167Y141666D02*
X376334Y142499D01*
X374668D01*
X373835Y141666D01*
Y138334D01*
X374668Y137501D01*
X376334D01*
X377167Y138334D01*
X378833D02*
X379666Y137501D01*
X381332D01*
X382165Y138334D01*
Y141666D01*
X381332Y142499D01*
X379666D01*
X378833Y141666D01*
Y140833D01*
X379666Y140000D01*
X382165D01*
X162167Y106666D02*
X161334Y107499D01*
X159668D01*
X158835Y106666D01*
Y103334D01*
X159668Y102501D01*
X161334D01*
X162167Y103334D01*
X163833Y106666D02*
X164666Y107499D01*
X166332D01*
X167165Y106666D01*
Y105833D01*
X166332Y105000D01*
X167165Y104167D01*
Y103334D01*
X166332Y102501D01*
X164666D01*
X163833Y103334D01*
Y104167D01*
X164666Y105000D01*
X163833Y105833D01*
Y106666D01*
X164666Y105000D02*
X166332D01*
X354167Y96666D02*
X353334Y97499D01*
X351668D01*
X350835Y96666D01*
Y93334D01*
X351668Y92501D01*
X353334D01*
X354167Y93334D01*
X355833Y97499D02*
X359165D01*
Y96666D01*
X355833Y93334D01*
Y92501D01*
X322167Y141666D02*
X321334Y142499D01*
X319668D01*
X318835Y141666D01*
Y138334D01*
X319668Y137501D01*
X321334D01*
X322167Y138334D01*
X327165Y142499D02*
X325499Y141666D01*
X323833Y140000D01*
Y138334D01*
X324666Y137501D01*
X326332D01*
X327165Y138334D01*
Y139167D01*
X326332Y140000D01*
X323833D01*
X84666Y96666D02*
X83833Y97499D01*
X82167D01*
X81334Y96666D01*
Y93334D01*
X82167Y92501D01*
X83833D01*
X84666Y93334D01*
X89665Y97499D02*
X86332D01*
Y95000D01*
X87998Y95833D01*
X88831D01*
X89665Y95000D01*
Y93334D01*
X88831Y92501D01*
X87165D01*
X86332Y93334D01*
X84666Y76666D02*
X83833Y77499D01*
X82167D01*
X81334Y76666D01*
Y73334D01*
X82167Y72501D01*
X83833D01*
X84666Y73334D01*
X88831Y72501D02*
Y77499D01*
X86332Y75000D01*
X89665D01*
X273917Y101666D02*
X273084Y102499D01*
X271418D01*
X270585Y101666D01*
Y98334D01*
X271418Y97501D01*
X273084D01*
X273917Y98334D01*
X275583Y101666D02*
X276416Y102499D01*
X278082D01*
X278915Y101666D01*
Y100833D01*
X278082Y100000D01*
X277249D01*
X278082D01*
X278915Y99167D01*
Y98334D01*
X278082Y97501D01*
X276416D01*
X275583Y98334D01*
X273917Y76666D02*
X273084Y77499D01*
X271418D01*
X270585Y76666D01*
Y73334D01*
X271418Y72501D01*
X273084D01*
X273917Y73334D01*
X278915Y72501D02*
X275583D01*
X278915Y75833D01*
Y76666D01*
X278082Y77499D01*
X276416D01*
X275583Y76666D01*
X47537Y75256D02*
X46704Y76089D01*
X45038D01*
X44205Y75256D01*
Y71924D01*
X45038Y71091D01*
X46704D01*
X47537Y71924D01*
X49203Y71091D02*
X50869D01*
X50036D01*
Y76089D01*
X49203Y75256D01*
D16*
X211929Y246299D02*
X228071D01*
X211929Y233702D02*
X228071Y233700D01*
D17*
X320000Y197198D02*
Y192200D01*
X321000Y191200D01*
X322999D01*
X323999Y192200D01*
Y197198D01*
X325998D02*
X329997D01*
X327997D01*
Y191200D01*
X331996D02*
Y197198D01*
X335995Y191200D01*
Y197198D01*
X343992Y194199D02*
X347991D01*
X359987Y197198D02*
X355988D01*
Y194199D01*
X357988D01*
X355988D01*
Y191200D01*
X361986D02*
Y197198D01*
X364985D01*
X365985Y196198D01*
Y194199D01*
X364985Y193199D01*
X361986D01*
X363986D02*
X365985Y191200D01*
X367985Y197198D02*
Y191200D01*
X370984D01*
X371983Y192200D01*
Y193199D01*
X370984Y194199D01*
X367985D01*
X370984D01*
X371983Y195199D01*
Y196198D01*
X370984Y197198D01*
X367985D01*
X373983Y191200D02*
Y195199D01*
X375982Y197198D01*
X377981Y195199D01*
Y191200D01*
Y194199D01*
X373983D01*
D18*
X350000Y252000D02*
D03*
X370000D02*
D03*
X300000D02*
D03*
X320000D02*
D03*
M02*
