G04*
G04 #@! TF.GenerationSoftware,Altium Limited,Altium Designer,21.6.4 (81)*
G04*
G04 Layer_Color=32768*
%FSLAX25Y25*%
%MOIN*%
G70*
G04*
G04 #@! TF.SameCoordinates,2BAE2438-CD35-4855-809F-F1E5AD1C84AA*
G04*
G04*
G04 #@! TF.FilePolarity,Positive*
G04*
G01*
G75*
%ADD11C,0.00394*%
D11*
X129173Y119764D02*
X150827D01*
X129173Y90236D02*
X150827D01*
Y119764D01*
X129173Y90236D02*
Y119764D01*
X140000Y103032D02*
Y106968D01*
X138031Y105000D02*
X141969D01*
X260000Y233032D02*
Y236968D01*
X258032Y235000D02*
X261968D01*
X47720Y58461D02*
Y62398D01*
X45751Y60429D02*
X49688D01*
X260000Y173031D02*
Y176969D01*
X258032Y175000D02*
X261968D01*
X300000Y173031D02*
Y176969D01*
X298031Y175000D02*
X301969D01*
X300000Y163031D02*
Y166969D01*
X298031Y165000D02*
X301969D01*
X300000Y153032D02*
Y156968D01*
X298031Y155000D02*
X301969D01*
X218032Y135000D02*
X221969D01*
X220000Y133031D02*
Y136969D01*
X218032Y145000D02*
X221969D01*
X220000Y143032D02*
Y146968D01*
X218032Y155000D02*
X221969D01*
X220000Y153032D02*
Y156968D01*
X258032Y130000D02*
X261968D01*
X260000Y128032D02*
Y131968D01*
X258032Y110000D02*
X261968D01*
X260000Y108031D02*
Y111969D01*
X258032Y120000D02*
X261968D01*
X260000Y118032D02*
Y121968D01*
X361794Y140000D02*
X365731D01*
X363762Y138031D02*
Y141969D01*
X258032Y140000D02*
X261968D01*
X260000Y138031D02*
Y141969D01*
X144295Y205000D02*
X148232D01*
X146264Y203031D02*
Y206968D01*
X144295Y225000D02*
X148232D01*
X146264Y223031D02*
Y226969D01*
X144295Y215000D02*
X148232D01*
X146264Y213032D02*
Y216968D01*
X258032Y224500D02*
X261968D01*
X260000Y222532D02*
Y226468D01*
X178032Y90000D02*
X181968D01*
X180000Y88032D02*
Y91969D01*
X180000Y103032D02*
Y106968D01*
X178032Y105000D02*
X181968D01*
X98032Y115000D02*
X101969D01*
X100000Y113031D02*
Y116969D01*
X98032Y125000D02*
X101969D01*
X100000Y123031D02*
Y126969D01*
X178032Y195000D02*
X181968D01*
X180000Y193032D02*
Y196968D01*
X178032Y185000D02*
X181968D01*
X180000Y183031D02*
Y186969D01*
X153504Y167205D02*
X166496D01*
X153504Y152835D02*
X166496D01*
Y167205D01*
X153504Y152835D02*
Y167205D01*
X160000Y158051D02*
Y161988D01*
X158031Y160020D02*
X161969D01*
X133504Y167205D02*
X146496D01*
X133504Y152835D02*
X146496D01*
Y167205D01*
X133504Y152835D02*
Y167205D01*
X140000Y158051D02*
Y161988D01*
X138031Y160020D02*
X141969D01*
X178032Y215000D02*
X181968D01*
X180000Y213032D02*
Y216968D01*
X178032Y205000D02*
X181968D01*
X180000Y203031D02*
Y206968D01*
X258032Y195000D02*
X261968D01*
X260000Y193032D02*
Y196968D01*
X178032Y175000D02*
X181968D01*
X180000Y173031D02*
Y176969D01*
X178032Y225000D02*
X181968D01*
X180000Y223031D02*
Y226969D01*
X258032Y215000D02*
X261968D01*
X260000Y213032D02*
Y216968D01*
X258032Y205000D02*
X261968D01*
X260000Y203031D02*
Y206968D01*
X200000Y238032D02*
Y241968D01*
X198031Y240000D02*
X201969D01*
X240000Y238032D02*
Y241968D01*
X238032Y240000D02*
X241968D01*
X340000Y93032D02*
Y96969D01*
X338032Y95000D02*
X341968D01*
X220000Y88032D02*
Y91969D01*
X218032Y90000D02*
X221969D01*
X352936Y100236D02*
X374589D01*
X352936Y129764D02*
X374589D01*
X352936Y100236D02*
Y129764D01*
X374589Y100236D02*
Y129764D01*
X363762Y113031D02*
Y116969D01*
X361794Y115000D02*
X365731D01*
X100000Y178032D02*
Y181968D01*
X98032Y180000D02*
X101969D01*
X98032Y240000D02*
X101969D01*
X100000Y238032D02*
Y241968D01*
X98032Y225000D02*
X101969D01*
X100000Y223031D02*
Y226969D01*
X98051Y202204D02*
X101988D01*
X100020Y200236D02*
Y204173D01*
X30000Y238032D02*
Y241968D01*
X28032Y240000D02*
X31969D01*
X60000Y238032D02*
Y241968D01*
X58031Y240000D02*
X61968D01*
X60000Y223031D02*
Y226969D01*
X58031Y225000D02*
X61968D01*
X30000Y223031D02*
Y226969D01*
X28032Y225000D02*
X31969D01*
X100000Y103032D02*
Y106968D01*
X98032Y105000D02*
X101969D01*
X63935Y60429D02*
X67872D01*
X65904Y58461D02*
Y62398D01*
X76731Y45665D02*
Y75193D01*
X55077Y45665D02*
Y75193D01*
X76731D01*
X55077Y45665D02*
X76731D01*
X98032Y95000D02*
X101969D01*
X100000Y93032D02*
Y96969D01*
X98032Y85000D02*
X101969D01*
X100000Y83031D02*
Y86968D01*
X98032Y75000D02*
X101969D01*
X100000Y73032D02*
Y76968D01*
X138031Y75000D02*
X141969D01*
X140000Y73032D02*
Y76968D01*
X258032Y90000D02*
X261968D01*
X260000Y88032D02*
Y91969D01*
X298031Y75000D02*
X301969D01*
X300000Y73032D02*
Y76968D01*
X340000Y118032D02*
Y121968D01*
X338032Y120000D02*
X341968D01*
X298031Y105000D02*
X301969D01*
X300000Y103032D02*
Y106968D01*
X289173Y90236D02*
Y119764D01*
X310827Y90236D02*
Y119764D01*
X289173Y90236D02*
X310827D01*
X289173Y119764D02*
X310827D01*
X338032Y140000D02*
X341968D01*
X340000Y138031D02*
Y141969D01*
X218032Y74843D02*
X221969D01*
X220000Y72875D02*
Y76812D01*
X258032Y75000D02*
X261968D01*
X260000Y73032D02*
Y76968D01*
X258032Y100000D02*
X261968D01*
X260000Y98032D02*
Y101969D01*
X258032Y160000D02*
X261968D01*
X260000Y158031D02*
Y161969D01*
X258032Y150000D02*
X261968D01*
X260000Y148031D02*
Y151969D01*
M02*
